<?xml version="1.0" standalone="no"?>
<!DOCTYPE svg PUBLIC "-//W3C//DTD SVG 1.1//EN" "http://www.w3.org/Graphics/SVG/1.1/DTD/svg11.dtd" >
<svg xmlns="http://www.w3.org/2000/svg">
<metadata></metadata>
<defs>
<font id="charis_silitalic" horiz-adv-x="1139" >
<font-face units-per-em="2048" ascent="1638" descent="-410" />
<missing-glyph horiz-adv-x="600" />
<glyph horiz-adv-x="2048" />
<glyph horiz-adv-x="2048" />
<glyph unicode="&#xd;" horiz-adv-x="1024" />
<glyph unicode=" "  horiz-adv-x="600" />
<glyph unicode="&#x09;" horiz-adv-x="600" />
<glyph unicode="&#xa0;" horiz-adv-x="600" />
<glyph unicode="!" horiz-adv-x="692" d="M135 100q0 27 10 49.5t28 39t42 25.5t51 9t51.5 -9t43 -25t29.5 -38.5t11 -50.5q0 -49 -36.5 -83.5t-98.5 -34.5q-22 0 -45.5 7.5t-42.5 22.5t-31 37t-12 51zM238 346l104 885q5 39 15.5 70t29.5 53t48 33.5t71 11.5q102 0 102 -105q-58 -226 -107 -419 q-21 -82 -42 -164.5t-39 -154.5t-32 -127.5t-21 -82.5h-129z" />
<glyph unicode="&#x22;" horiz-adv-x="678" d="M205 864l26 457q2 31 9 56.5t21 44.5t37 29.5t58 10.5t59.5 -20t24.5 -58q0 -11 -11 -49.5t-28.5 -92t-38 -114t-39 -114.5t-33.5 -95t-20 -55h-65zM532 864l25 457q2 31 9.5 56.5t22 44.5t37.5 29.5t58 10.5q37 0 61.5 -20t24.5 -58q0 -11 -11.5 -49.5t-29 -92t-38 -114 t-40 -114.5t-34 -95t-19.5 -55h-66z" />
<glyph unicode="#" horiz-adv-x="1522" d="M156 467v102h323l101 293h-330v105h364l164 483l105 -33l-156 -450h299l162 483l106 -33l-155 -450h286v-105h-321l-98 -293h329v-102h-364l-174 -514l-103 33l162 481h-297l-174 -514l-102 35l163 479h-290zM594 569h297l98 293h-297z" />
<glyph unicode="$" d="M29 90l65 322h137l-18 -236q0 -8 4.5 -12t9.5 -6q4 -2 20.5 -9.5t40.5 -16.5t53.5 -17t61.5 -11l101 523q-65 27 -119.5 61t-94.5 75.5t-62.5 91.5t-22.5 110q0 87 36.5 158t97.5 122.5t141 83t167 39.5l29 154h117l-25 -148q50 -2 98 -10t88.5 -17.5t70.5 -18.5t42 -13 l-66 -305h-120l10 200q0 7 -8 17.5t-15 13.5q-2 1 -12.5 6t-26.5 10.5t-37.5 11t-46.5 7.5l-96 -508q68 -22 128 -54t104.5 -74t70 -95.5t25.5 -118.5q0 -79 -25.5 -140.5t-67 -108t-93.5 -78.5t-105 -53t-101.5 -31.5t-82.5 -12.5l-39 -211h-121l39 209q-54 3 -101 10 t-89 18t-82 26.5t-80 35.5zM410 1020q0 -69 34 -117t97 -80l86 445q-49 -15 -89 -38.5t-68.5 -55t-44 -70.5t-15.5 -84zM526 113q115 28 175.5 95t60.5 163q0 66 -35 117.5t-111 86.5z" />
<glyph unicode="%" horiz-adv-x="1761" d="M137 834q0 60 11.5 125.5t34 129t57 121.5t81 101.5t105 69.5t129.5 26q65 0 111 -22.5t75 -61t42.5 -90.5t13.5 -111q0 -60 -11 -125.5t-34 -129.5t-57 -122t-80.5 -102t-104.5 -70t-129 -26q-65 0 -111.5 22.5t-76 61.5t-43 91.5t-13.5 111.5zM272 0l1147 1374h127 l-1145 -1374h-129zM285 801q0 -28 4.5 -59t16.5 -57t34 -43t57 -17q46 0 82 30.5t63.5 78.5t47 108t32 120t18 112.5t5.5 86.5q0 27 -3.5 56.5t-15 54.5t-32.5 41t-55 16q-47 0 -84 -29.5t-65 -77t-48 -106.5t-32.5 -117.5t-18.5 -111t-6 -86.5zM1024 254q0 60 11 126 t34 129.5t57 121t80.5 101t104.5 69.5t129 26q65 0 111 -22.5t75 -61t42 -90t13 -110.5q0 -60 -11 -126t-34 -130t-57 -122t-80 -102t-104.5 -70t-128.5 -26q-65 0 -111 22.5t-75 61.5t-42.5 91.5t-13.5 111.5zM1171 221q0 -28 4 -59t16 -57.5t34 -44t57 -17.5 q45 0 81.5 30.5t64 79t47.5 109t32.5 120.5t18.5 113t6 87q0 27 -4 56.5t-15.5 54t-33 41t-56.5 16.5q-46 0 -82.5 -29.5t-64.5 -77t-48 -106.5t-32.5 -118t-18.5 -111.5t-6 -86.5z" />
<glyph unicode="&#x26;" horiz-adv-x="1442" d="M25 317q0 76 27.5 139.5t75.5 117t112 97.5t137 81q-23 32 -43.5 64t-35.5 64.5t-23.5 66.5t-8.5 71q0 83 35 153t96 121t144.5 80t181.5 29q84 0 143 -23t97 -61.5t55.5 -87t17.5 -99.5q0 -74 -30.5 -133t-85.5 -107t-131.5 -86t-167.5 -69l288 -381q53 59 93 126 t65 120q1 2 -2 7t-6.5 10t-7 8.5t-4.5 3.5l-105 18v94h436v-94l-147 -16q-43 -91 -109.5 -187t-144.5 -180q35 -48 69 -80.5t72 -52.5t84 -29t105 -10v-90q-50 -2 -85.5 -4t-64.5 -4q-32 -2 -62.5 -1t-58.5 7q-25 4 -48.5 13.5t-47 25.5t-48.5 40t-52 58q-45 -34 -94 -63 t-104 -50.5t-117 -34t-134 -12.5q-77 0 -143.5 23t-116 67t-78 107t-28.5 143zM242 377q0 -62 21 -112t56 -85t81 -54.5t96 -19.5q36 0 68.5 6.5t65.5 20.5t67.5 35.5t74.5 50.5l-340 453q-88 -57 -139 -129t-51 -166zM451 1073q0 -37 10 -73.5t26 -71t36.5 -66t41.5 -57.5 q60 24 110 53t85.5 66t55.5 83t20 105q0 36 -10 70t-29.5 60t-48.5 42t-66 16t-77.5 -14t-74.5 -42t-56.5 -70.5t-22.5 -100.5z" />
<glyph unicode="'" horiz-adv-x="348" d="M205 864l26 457q3 31 10.5 56.5t22.5 44.5t39 29.5t59 10.5q39 0 64 -20t25 -58q0 -11 -12 -49.5t-30 -92t-39.5 -114t-41.5 -114.5t-35.5 -95t-20.5 -55h-67z" />
<glyph unicode="(" horiz-adv-x="858" d="M145 285q0 122 22 254t66 259.5t111 244t157 207.5t204 149.5t251 70.5l-18 -94q-85 -11 -155.5 -53t-128 -105.5t-103 -144t-79.5 -169t-58 -180.5t-39 -179t-22 -164t-7 -135q0 -114 22.5 -192.5t62 -130.5t92.5 -80.5t114 -41.5l-19 -94q-104 6 -190.5 50.5 t-149.5 120t-98 179t-35 228.5z" />
<glyph unicode=")" horiz-adv-x="856" d="M-98 -295l18 98q89 12 161.5 56.5t131 111.5t103 151.5t77.5 176t55.5 185t36 179t19.5 158t6 121.5q0 31 -4 72t-14.5 86t-30.5 90t-52 83t-78.5 65.5t-109.5 37.5l19 94q109 -12 186.5 -51t130 -92t83 -115t46.5 -120t20.5 -107t4.5 -76q0 -170 -28.5 -321t-80 -280 t-125 -234.5t-163 -182.5t-194 -124.5t-218.5 -61.5z" />
<glyph unicode="*" horiz-adv-x="1024" d="M240 1167l143 43l221 -145l-6 -29l-266 15zM393 690l4 152l207 166l27 -19l-94 -246zM557 1341l84 125l86 -125l-72 -256h-26zM653 989l27 19l207 -166l4 -152l-143 53zM680 1065l219 145l145 -43l-92 -116l-264 -15z" />
<glyph unicode="+" horiz-adv-x="2048" d="M410 551v127h551v551h126v-551h551v-127h-551v-551h-126v551h-551z" />
<glyph unicode="," horiz-adv-x="573" d="M-113 -348l15 74q63 13 110.5 36.5t82 58t56.5 82.5t33 111h-129q-11 14 -15.5 31.5t-4.5 34.5q0 31 13 61.5t34.5 54.5t50 39t60.5 15q36 0 61.5 -11.5t41 -32.5t23 -49t7.5 -61q0 -87 -37 -164t-98.5 -137t-140.5 -98t-163 -45z" />
<glyph unicode="-" horiz-adv-x="653" d="M61 424l27 139h492l-27 -139h-492z" />
<glyph unicode="." horiz-adv-x="573" d="M37 113q0 28 10.5 53t28.5 43.5t42.5 29.5t53.5 11q28 0 53.5 -11t44.5 -29.5t30 -43.5t11 -53q0 -29 -11 -54t-30 -43.5t-44.5 -29.5t-53.5 -11q-29 0 -53.5 11t-42.5 29.5t-28.5 43.5t-10.5 54z" />
<glyph unicode="/" horiz-adv-x="1004" d="M0 -190l872 1564h132l-873 -1564h-131z" />
<glyph unicode="0" d="M70 426q0 108 18.5 222.5t55.5 223.5t92.5 206.5t129.5 170.5t166.5 115.5t202.5 42.5q102 0 176 -35.5t122 -97.5t71.5 -146.5t23.5 -181.5q0 -120 -21 -239t-61 -227.5t-97.5 -202.5t-131 -162.5t-161.5 -108t-189 -39.5q-95 0 -169 31t-124.5 89.5t-77 144 t-26.5 194.5zM293 393q0 -105 20 -168t49 -96.5t63 -44t62 -10.5q60 0 115 40.5t101.5 109t84 159.5t64 192t41 205.5t14.5 200.5q0 84 -15 144.5t-41 100t-61 58.5t-75 19q-64 0 -119.5 -41t-102.5 -110t-84 -160.5t-63 -192.5t-39.5 -205.5t-13.5 -200.5z" />
<glyph unicode="1" d="M172 0v96l207 10q17 2 26.5 14t12.5 27l209 1072l-322 -41v92l486 137h75l-243 -1260q-4 -17 5 -28t34 -13l153 -10v-96h-643z" />
<glyph unicode="2" d="M-43 0l27 133q148 105 270 195.5t219.5 170.5t170 152t120.5 142t72 139.5t24 144.5q0 58 -16 99.5t-44.5 67.5t-66.5 38t-82 12q-27 0 -53 -5t-48 -12.5t-39.5 -15.5t-29.5 -14l-43 -217q-5 -4 -14.5 -10t-24 -12t-33 -10.5t-42.5 -4.5q-17 0 -36.5 4t-36.5 14 t-28.5 27.5t-11.5 44.5q0 57 40.5 114.5t109.5 104t161 76t195 29.5q80 0 149 -17t120 -53.5t80.5 -94.5t29.5 -140q0 -70 -24.5 -139t-66.5 -136t-99.5 -130.5t-123.5 -121.5q-64 -57 -130.5 -109t-135.5 -101.5t-138.5 -97.5t-139.5 -97h573l70 174h123l-64 -344h-983z " />
<glyph unicode="3" d="M16 193q0 14 6.5 34.5t21 39t39 31.5t60.5 13q26 0 49 -5t41 -13l31 -174q7 -5 21.5 -13t34.5 -15.5t44.5 -13t53.5 -5.5q74 0 140.5 28.5t116.5 78t79.5 116t29.5 143.5q0 72 -25.5 116t-61.5 67t-75 30.5t-67 7.5q-38 0 -73 -4t-70 -10l18 127q98 -5 178 18t137 66 t88 103t31 131q0 60 -21 100.5t-52.5 65.5t-67.5 36t-66 11q-33 0 -62 -7t-52 -17t-40.5 -21t-27.5 -19l-31 -195q-7 -2 -20 -6.5t-29 -9t-32.5 -7.5t-30.5 -3q-19 0 -38 6t-34.5 18.5t-25 31.5t-9.5 44q0 61 43.5 114t114 92t160.5 61t182 22q178 0 274.5 -74t96.5 -217 q0 -54 -22.5 -109.5t-68.5 -106.5t-117.5 -94t-168.5 -73q67 -10 121 -29.5t92 -51.5t59 -77t21 -106q0 -98 -47 -188.5t-130 -160t-196 -111.5t-244 -42q-104 0 -176.5 22.5t-117.5 56.5t-65 73.5t-20 73.5z" />
<glyph unicode="4" d="M43 414l27 137l825 856h152l-164 -852h186l-27 -141h-190l-90 -469h-193l93 469h-619zM272 555h418l109 543z" />
<glyph unicode="5" d="M20 158q0 24 9 47t26.5 40t43 27.5t59.5 10.5q17 0 34 -2.5t29 -6.5l55 -174q32 -11 64 -19.5t70 -8.5q77 0 145 32t119 85.5t80.5 123.5t29.5 146q0 77 -29 127t-77 79.5t-109 41.5t-125 12q-21 0 -50.5 -2t-60.5 -5t-60 -6t-50 -6l137 674h750l-31 -166h-596l-80 -397 q38 11 90.5 21t120.5 10q70 0 139.5 -16.5t124.5 -55.5t89 -102t34 -156q0 -74 -23 -143t-64.5 -129.5t-99.5 -110.5t-129 -86t-153 -56t-170 -20q-163 0 -252.5 51.5t-89.5 139.5z" />
<glyph unicode="6" d="M70 440q0 125 30.5 245.5t88.5 229.5t142 203t191.5 166.5t236.5 120t277 63.5l2 -112q-133 -15 -245 -62t-199 -118t-147.5 -162t-88.5 -193q75 50 156 77.5t174 27.5q82 0 151 -25.5t118.5 -73.5t77.5 -116.5t28 -155.5q0 -119 -43.5 -225.5t-119.5 -187t-177.5 -128 t-218.5 -47.5q-48 0 -99 8.5t-99.5 29.5t-91 56t-75 87.5t-51 124.5t-18.5 167zM287 418q0 -52 9 -113t34 -113t69 -87t115 -35q64 0 124 35t106.5 94.5t74 138t27.5 164.5q0 67 -14.5 121t-44.5 92t-76.5 59t-110.5 21q-31 0 -62 -5t-64 -17.5t-69.5 -33t-76.5 -51.5 q-2 -10 -9 -39.5t-14 -68.5t-12.5 -82t-5.5 -80z" />
<glyph unicode="7" d="M74 -76l911 1284h-596l-65 -184h-131l69 350h975l-16 -88l-932 -1315l-13 -47h-202z" />
<glyph unicode="8" d="M31 303q0 50 17 106t57.5 112t107 108.5t164.5 95.5q-52 28 -84.5 59.5t-50.5 64.5t-24.5 66t-6.5 64q0 84 34.5 161.5t99 137t157.5 94.5t209 35q93 0 163 -22.5t117 -61.5t70.5 -91.5t23.5 -113.5q0 -81 -24.5 -141t-66.5 -105t-98 -79t-118 -62q40 -18 85 -43.5 t83 -62.5t63 -85.5t25 -111.5q0 -95 -43.5 -178.5t-120 -146.5t-180 -99.5t-223.5 -36.5q-105 0 -186.5 24t-137 68.5t-84 106.5t-28.5 137zM236 340q0 -54 18 -101.5t52.5 -83t84 -56.5t113.5 -21q65 0 122 25.5t99 66.5t66 94t24 109q0 48 -29.5 89t-78 77t-111 68.5 t-127.5 62.5q-50 -27 -92.5 -61t-74 -75t-49 -89.5t-17.5 -104.5zM416 1024q0 -42 18.5 -77t52.5 -65t82.5 -56.5t108.5 -51.5q48 25 87 58.5t67 74t43.5 89t15.5 104.5q0 47 -14 85.5t-39.5 66t-62.5 42.5t-83 15q-57 0 -107.5 -22.5t-88 -61.5t-59 -91t-21.5 -110z" />
<glyph unicode="9" d="M94 -16q109 42 208 90.5t189.5 114t172.5 154.5t157 212q-34 -17 -72 -33t-78 -28t-82 -19.5t-83 -7.5q-64 0 -130 19.5t-120 62.5t-88.5 112t-34.5 168q0 120 45 225.5t124.5 183.5t187.5 123.5t233 45.5q35 0 80 -5t91 -21t90.5 -45t79.5 -76.5t56 -116.5t21 -164 q0 -151 -42.5 -280.5t-116 -239t-172 -199t-210 -160.5t-230.5 -124t-233 -89zM356 870q0 -76 23 -129t58.5 -86.5t78 -49t82.5 -15.5q55 0 104 16.5t87.5 38t63.5 42t32 28.5q11 63 25 130t14 132q0 100 -23 164.5t-58 102t-76.5 51.5t-78.5 14q-68 0 -128 -36 t-105.5 -96.5t-72 -140t-26.5 -166.5z" />
<glyph unicode=":" horiz-adv-x="573" d="M35 113q0 28 10.5 53t29.5 43.5t43.5 29.5t53.5 11q28 0 53.5 -11t44.5 -29.5t30 -43.5t11 -53q0 -29 -11 -54t-30 -43.5t-44.5 -29.5t-53.5 -11q-29 0 -53.5 11t-43.5 29.5t-29.5 43.5t-10.5 54zM184 874q0 28 11 53.5t29.5 44t43.5 29.5t54 11q28 0 53.5 -11 t44.5 -29.5t30 -44t11 -53.5t-11 -53t-30 -43.5t-44.5 -29.5t-53.5 -11q-29 0 -54 11t-43.5 29.5t-29.5 43.5t-11 53z" />
<glyph unicode=";" horiz-adv-x="573" d="M-113 -348l15 74q63 13 110.5 36t82 57.5t56.5 82.5t33 112h-129q-11 14 -15.5 33.5t-4.5 36.5q0 30 13 59.5t35 53.5t50.5 38.5t59.5 14.5q35 0 60.5 -11.5t41.5 -32t23.5 -48.5t7.5 -60q0 -87 -37 -165t-98.5 -138t-140.5 -98t-163 -45zM184 874q0 28 11 53.5t29.5 44 t43.5 29.5t54 11q28 0 53.5 -11t44.5 -29.5t30 -44t11 -53.5t-11 -53t-30 -43.5t-44.5 -29.5t-53.5 -11q-29 0 -54 11t-43.5 29.5t-29.5 43.5t-11 53z" />
<glyph unicode="&#x3c;" horiz-adv-x="2048" d="M410 551v127l1228 471v-127l-1097 -408l1097 -407v-127z" />
<glyph unicode="=" horiz-adv-x="2048" d="M410 365v127h1228v-127h-1228zM410 737v127h1228v-127h-1228z" />
<glyph unicode="&#x3e;" horiz-adv-x="2048" d="M410 80v127l1097 407l-1097 408v127l1228 -471v-127z" />
<glyph unicode="?" horiz-adv-x="995" d="M197 88q0 24 9.5 46.5t27 40t43 28t57.5 10.5q31 0 55.5 -10t41.5 -27.5t25.5 -39.5t8.5 -46t-8.5 -46t-25.5 -39t-41.5 -27.5t-55.5 -10.5q-32 0 -57.5 10t-43 27t-27 38.5t-9.5 45.5zM215 1186q0 30 17.5 68.5t59.5 72t110.5 57t170.5 23.5q91 0 161 -20.5t117.5 -59 t72 -93t24.5 -122.5q0 -103 -41.5 -184.5t-108 -145t-150 -111t-167.5 -81.5l-47 -244h-137l55 305q70 22 137 61.5t119.5 95t84.5 127t32 157.5q0 105 -57 159t-156 54l-125 -203h-59q-53 0 -83 22t-30 62z" />
<glyph unicode="@" horiz-adv-x="1917" d="M170 489q0 152 36.5 279.5t100.5 230.5t151.5 181t190 130t215 78.5t226.5 26.5q152 0 280.5 -42.5t221.5 -125t145.5 -204t52.5 -279.5q0 -104 -23 -192.5t-61.5 -160.5t-89.5 -127.5t-107 -93t-113 -56.5t-108 -19q-85 0 -122.5 42.5t-37.5 127.5q-80 -81 -151 -124.5 t-143 -43.5q-56 0 -103 23.5t-81 67t-53 105t-19 138.5q0 117 43 219t114 177t162 118t188 43q22 0 48 -4t52.5 -11.5t52.5 -18t48 -22.5l37 47h117q-2 -6 -9 -35.5t-17.5 -73t-23 -98t-25.5 -109.5q-30 -130 -67 -292q-8 -35 -8 -64.5t9 -50.5t27.5 -33t47.5 -12 q30 0 65.5 16.5t70.5 48.5t67.5 78t57.5 105t40 130.5t15 152.5q0 96 -22.5 175.5t-62.5 142t-94.5 108.5t-118.5 76.5t-135 45.5t-143 15q-117 0 -221.5 -27.5t-193 -78t-160 -122.5t-121 -161t-76.5 -192.5t-27 -217.5q0 -156 48.5 -291t140.5 -234t225 -155.5t303 -56.5 q90 0 168.5 14t146 36t124.5 49t104 53l29 -74q-69 -37 -141.5 -69.5t-149 -57t-159 -39t-171.5 -14.5q-110 0 -212.5 25t-193 72.5t-165.5 117t-128.5 158.5t-83.5 197t-30 232zM766 469q0 -111 41 -166t119 -55q34 0 65 13.5t57.5 33.5t48.5 43t38 43l82 424q3 13 -5.5 33 t-25 38.5t-40 32t-50.5 13.5q-76 0 -137 -35.5t-104 -97t-66 -144t-23 -176.5z" />
<glyph unicode="A" horiz-adv-x="1378" d="M-109 0v86l115 12l756 1309h164l221 -1272q3 -20 11 -28.5t30 -10.5l94 -10v-86h-481v86l94 10q45 6 39 39l-62 391h-464l-209 -391q-11 -20 -0.5 -28t39.5 -11l94 -10v-86h-441zM463 623h391l-88 532z" />
<glyph unicode="B" horiz-adv-x="1243" d="M-31 0v86l129 10q19 2 27.5 11.5t11.5 27.5l213 1102q3 17 -5 28t-36 13l-114 10v86h575q111 0 188.5 -18.5t126 -53t70 -83t21.5 -107.5q0 -79 -27 -140t-73.5 -106.5t-109 -78.5t-132.5 -56q67 -9 122 -27.5t95 -50.5t62 -79.5t22 -114.5q0 -126 -46 -213.5 t-127.5 -142t-192 -79t-239.5 -24.5h-561zM336 98q12 -1 28.5 -2t34 -2t34.5 -1.5t30 -0.5q220 0 334 91.5t114 254.5q0 63 -22 106.5t-62.5 70.5t-98.5 39t-130 12q-38 0 -79 -3t-75 -8zM465 760q12 -1 25 -2l27 -1q14 0 25.5 -0.5t18.5 -0.5q96 0 168.5 27.5t121 74 t73 109t24.5 131.5q0 97 -73.5 142.5t-204.5 45.5q-32 0 -60 -2t-45 -4z" />
<glyph unicode="C" horiz-adv-x="1290" d="M98 547q0 109 27 215t78 201.5t124 177t164.5 140.5t200 92.5t230.5 33.5q50 0 96 -5.5t93 -16t98 -26t110 -34.5l-55 -319h-121v190q0 16 -11.5 33t-25.5 22q-4 2 -18 10.5t-36.5 17.5t-52.5 16.5t-67 7.5q-79 0 -155 -25t-144.5 -72t-126.5 -115t-100.5 -154.5 t-66.5 -190.5t-24 -222q0 -116 33.5 -201t90.5 -141t133.5 -83t162.5 -27q33 0 60 4.5t46.5 10.5t31.5 11.5t16 7.5q12 2 26.5 14.5t20.5 26.5l88 234h121l-55 -332q-12 -4 -51.5 -17t-97 -27.5t-128.5 -26t-145 -11.5q-102 0 -184 23t-145 63t-109 95t-75 119.5t-43 135.5 t-14 144z" />
<glyph unicode="D" horiz-adv-x="1374" d="M-31 0v86l127 10q20 2 28 11.5t13 27.5l213 1102q3 17 -5 28t-36 13l-114 10v86h489q140 0 259.5 -27t207 -89t137 -162t49.5 -246q0 -126 -29 -238t-84 -206.5t-133.5 -169.5t-177 -127.5t-215 -80.5t-247.5 -28h-482zM338 106h149q155 2 273 66.5t197 170.5t119 242.5 t40 282.5q0 128 -39 206t-105 121t-153 58.5t-182 18.5h-74z" />
<glyph unicode="E" horiz-adv-x="1143" d="M-31 0v86l119 10q43 3 49 39l213 1102q3 17 -5 28t-34 13l-114 10v86h991l-62 -307h-131v166q0 22 -8 30.5t-31 8.5h-393l-94 -504h274q22 0 33.5 8.5t18.5 30.5l39 137h114l-90 -469h-117l21 146q1 5 1 9q0 32 -40 32h-277l-106 -560h481q22 0 33.5 11.5t17.5 29.5 l64 197h125l-68 -340h-1024z" />
<glyph unicode="F" horiz-adv-x="1053" d="M-31 0v86l117 10q42 3 51 39l213 1102q3 17 -5 28t-36 13l-114 10v86h970l-63 -330h-131v189q0 22 -9 30.5t-32 8.5h-367l-100 -527h262q22 0 33 9t16 30l39 140h117l-90 -467h-117l20 143q4 20 -7.5 30.5t-33.5 10.5h-260l-98 -506q-3 -15 5 -26t34 -13l133 -10v-86 h-547z" />
<glyph unicode="G" horiz-adv-x="1409" d="M98 549q0 131 35 245.5t96.5 210t145 170t182 126.5t206.5 79t218 27q50 0 93.5 -4t87.5 -12.5t92.5 -22t107.5 -31.5l-64 -329h-139l6 188q2 23 -9 37.5t-30 19.5q-4 1 -17 8t-34.5 15t-51.5 14t-67 6q-77 0 -153.5 -25t-147 -72t-131 -115.5t-105 -155t-70 -190.5 t-25.5 -222q0 -83 19 -147.5t51 -113.5t73 -83t85 -55.5t88 -31t81 -9.5q31 0 62.5 4t59.5 10t50.5 12t34.5 9l80 417q3 17 -5 27t-36 12l-113 11v86h528v-86l-116 -11q-20 -2 -33.5 -10.5t-18.5 -28.5l-92 -481q-10 -3 -35 -9.5t-60 -15.5t-77.5 -18.5t-88.5 -18 t-92.5 -13.5t-88.5 -5q-117 0 -205.5 27t-153 72.5t-107.5 105t-69 124.5t-36.5 130.5t-10.5 122.5z" />
<glyph unicode="H" horiz-adv-x="1485" d="M-31 0v86l117 10q42 3 51 39l213 1102q3 17 -5 28t-36 13l-114 10v86h532v-86l-121 -10q-18 -2 -32 -11.5t-17 -29.5l-90 -467h639l90 467q3 17 -5 28t-36 13l-117 10v86h533v-86l-119 -10q-19 -2 -31.5 -11.5t-17.5 -29.5l-213 -1102q-3 -15 5 -26t36 -13l115 -10v-86 h-535v86l123 10q18 2 32 11.5t17 27.5l102 533h-639l-102 -533q-3 -15 5 -26t34 -13l119 -10v-86h-533z" />
<glyph unicode="I" horiz-adv-x="643" d="M-31 0v86l129 10q19 2 27.5 11.5t11.5 27.5l213 1102q3 17 -5 28t-34 13l-114 10v86h532v-86l-131 -10q-20 -2 -28 -11.5t-13 -29.5l-213 -1102q-3 -15 5 -26t36 -13l119 -10v-86h-535z" />
<glyph unicode="J" horiz-adv-x="958" d="M-41 29l68 350h135v-250q0 -26 25 -40.5t57 -14.5q65 0 111 29t78 84t54.5 135.5t40.5 183.5l136 731q3 17 -5 28t-34 13l-119 10v86h532v-86l-116 -10q-42 -3 -52 -41l-131 -713q-23 -127 -56 -230t-90 -175.5t-144.5 -112t-219.5 -39.5q-60 0 -107 8t-80.5 18.5t-54 21 t-28.5 14.5z" />
<glyph unicode="K" horiz-adv-x="1343" d="M-33 0v86l119 10q43 3 49 39l215 1102q3 17 -5 28t-34 13l-114 10v86h532v-86l-121 -10q-20 -2 -33 -11.5t-18 -29.5l-104 -537h34l545 537q13 12 10.5 25.5t-24.5 15.5l-131 10v86h530v-86l-172 -16l-536 -518l284 -551q19 -38 36.5 -61.5t36.5 -37t40.5 -18t48.5 -4.5 q19 0 40 1t46 3v-86q-48 -14 -100 -23.5t-92 -9.5q-45 0 -78.5 7t-61.5 24.5t-51 46.5t-47 74l-252 485h-125l-92 -469q-3 -15 6 -26t35 -13l119 -10v-86h-535z" />
<glyph unicode="L" horiz-adv-x="1061" d="M-31 0v86l119 10q43 3 49 39l213 1102q3 17 -5 28t-34 13l-114 10v86h532v-86l-121 -10q-23 -2 -35.5 -14t-15.5 -27l-217 -1135h403q20 0 32.5 11.5t19.5 29.5l73 236h121l-74 -379h-946z" />
<glyph unicode="M" horiz-adv-x="1765" d="M-29 0v86l117 10q42 3 51 39l211 1102q3 17 -5 28t-36 13l-114 10v86h458v-57l176 -991l547 981v67h473v-86l-116 -10q-42 -3 -52 -41l-211 -1102q-3 -15 5.5 -26t35.5 -13l115 -10v-86h-532v86l120 10q19 2 33 11.5t17 27.5l198 1039l-657 -1174h-123l-205 1163 l-190 -1028q-3 -15 5 -26t34 -13l114 -10v-86h-469z" />
<glyph unicode="N" horiz-adv-x="1456" d="M-29 0v86l117 10q42 3 51 39l211 1102q3 17 -5 28t-34 13l-114 10v86h395v-53l461 -977l174 893q3 17 -5 28t-34 13l-117 10v86h475v-86l-116 -10q-20 -2 -33.5 -11.5t-18.5 -29.5l-241 -1237h-148l-516 1087l-182 -952q-3 -15 5 -26t36 -13l114 -10v-86h-475z" />
<glyph unicode="O" horiz-adv-x="1454" d="M98 537q0 110 25 217t72.5 204t115 179t152 142t185 94t212.5 34q127 0 230 -43.5t175 -118.5t111 -176t39 -215q0 -108 -23 -215.5t-67 -206.5t-109 -183.5t-149.5 -147.5t-188 -98.5t-223.5 -35.5q-123 0 -225 40.5t-176 115.5t-115 180t-41 234zM330 520 q0 -104 26.5 -186.5t72 -140t107.5 -88.5t134 -31q75 0 142 33.5t124 91.5t102.5 134.5t77.5 163.5t49 178.5t17 178.5q0 102 -25.5 185t-71 142.5t-108 91.5t-135.5 32q-75 0 -142 -33t-124 -90t-102.5 -133.5t-77.5 -163.5t-49 -180.5t-17 -184.5z" />
<glyph unicode="P" horiz-adv-x="1159" d="M-35 0v86l119 10q40 3 49 39l215 1102q3 17 -5 28t-36 13l-114 10v86h509q126 0 214.5 -24.5t145 -68t82 -103.5t25.5 -131q0 -124 -47 -223t-130.5 -168.5t-198 -106.5t-248.5 -37q-16 0 -38 0.5t-42 1.5q-24 1 -49 2l-76 -381q-3 -15 5 -26t36 -13l117 -10v-86h-533z M434 623q33 -3 66 -3h24q46 2 90 9.5t85 22t77 36.5q39 23 72 54t57 71t37.5 89.5t13.5 109.5q0 59 -16.5 108t-54 84t-98 54.5t-148.5 19.5q-19 0 -40.5 -1t-37.5 -3z" />
<glyph unicode="Q" horiz-adv-x="1454" d="M94 530q0 106 25.5 212t73 203.5t115.5 182t153 146.5t186.5 97.5t214.5 35.5q125 0 227 -42t174 -116t111 -175t39 -218q0 -55 -7 -122t-25 -139.5t-50 -147.5t-82 -147.5t-120 -138.5t-164 -120q31 -57 59 -103t60 -79t70 -50.5t89 -17.5q30 0 61.5 6.5t62.5 16.5 t59.5 22t52.5 23v-86q-12 -6 -47 -23t-84 -34t-105 -30.5t-110 -13.5q-79 0 -138 23t-103.5 64t-78 96t-61.5 120q-23 -2 -50.5 -5t-52.5 -3q-113 0 -214 37.5t-176.5 109.5t-120 177t-44.5 239zM324 520q0 -96 24 -177.5t68.5 -140.5t108 -92.5t143.5 -33.5q73 0 139.5 33 t124 90t103.5 133.5t79 163t50.5 179t17.5 181.5q0 97 -24 179t-67.5 141.5t-104 93t-134.5 33.5q-76 0 -145 -31.5t-127.5 -86.5t-106 -130t-80.5 -162t-51 -182t-18 -191z" />
<glyph unicode="R" horiz-adv-x="1313" d="M-27 0v86l117 10q42 3 51 39l209 1102q3 17 -5 28t-34 13l-114 10v86h548q85 0 165.5 -14t142.5 -49t99.5 -93.5t37.5 -146.5q0 -83 -33 -150t-90 -119.5t-133 -90.5t-162 -62q63 -27 100.5 -60.5t60.5 -74.5t36 -91t28 -108q15 -57 33 -100.5t47.5 -72.5t73 -43.5 t109.5 -14.5v-84q-42 -19 -78.5 -26t-71.5 -7q-93 0 -149.5 30t-89 78t-48 106.5t-26.5 115.5q-12 57 -26.5 112.5t-41 99t-70.5 70.5t-116 27q-14 0 -32 -0.5t-35 -0.5q-19 -1 -40 -1l-88 -469q-3 -15 5 -26t34 -13l119 -10v-86h-533zM459 711h45q83 0 164 15t145.5 53 t104.5 101.5t40 161.5q0 75 -32.5 121t-83.5 71q-51 24 -113 32q-49 6 -96 6h-25q-8 0 -22 -1t-23 -1z" />
<glyph unicode="S" horiz-adv-x="1067" d="M-10 74l69 329h140l-23 -235q-1 -12 14 -24t39 -22.5t53 -19t55.5 -15t47 -10t27.5 -3.5q66 0 126 20.5t105.5 59t72.5 94t27 125.5q0 52 -30.5 92.5t-75 72.5t-94.5 56.5t-88 44.5q-54 28 -105 58.5t-90.5 68t-63.5 84.5t-24 108q0 102 40 185t111.5 141.5t169 90.5 t212.5 32q69 0 128 -9.5t104 -22.5t74.5 -25t39.5 -17l-66 -313h-121l8 207q0 10 -15 23.5t-40.5 26t-58.5 21.5t-70 9q-59 0 -114.5 -21t-98.5 -58.5t-68.5 -89t-25.5 -112.5q0 -55 30 -96.5t74 -73.5t94 -56t91 -44q54 -28 105.5 -59t91.5 -70t64.5 -89.5t24.5 -117.5 q0 -74 -30.5 -154t-98.5 -146.5t-176.5 -109.5t-265.5 -43q-79 0 -146.5 14.5t-119 33t-85 36t-44.5 23.5z" />
<glyph unicode="T" horiz-adv-x="1200" d="M135 1061l60 313h1134l-63 -313h-129l8 180v5q0 36 -39 36h-264l-213 -1147q-3 -15 5 -26t36 -13l116 -10v-86h-532v86l119 10q18 2 32 11.5t17 27.5l213 1147h-256q-39 0 -51 -41l-64 -180h-129z" />
<glyph unicode="U" horiz-adv-x="1448" d="M188 326q0 31 6.5 87t20.5 128l143 696q3 17 -5 28t-36 13l-114 10v86h532v-86l-121 -10q-18 -2 -32 -11.5t-17 -29.5l-141 -696q-12 -60 -17.5 -107.5t-5.5 -75.5q0 -65 20.5 -113t58 -80.5t91 -48.5t119.5 -16q100 0 167.5 33.5t112.5 89.5t71 130.5t42 156.5l144 727 q3 17 -5 28t-36 13l-115 10v86h463v-86l-119 -10q-18 -2 -32 -11.5t-17 -29.5l-158 -799q-21 -111 -67 -198.5t-117.5 -148t-168 -92.5t-218.5 -32q-95 0 -176.5 19.5t-142.5 62.5t-95.5 111t-34.5 166z" />
<glyph unicode="V" horiz-adv-x="1317" d="M170 1288v86h465v-86l-88 -4q-23 -2 -33.5 -10.5t-7.5 -30.5l153 -991l521 991q8 16 3 27.5t-34 13.5l-100 4v86h417v-86l-108 -12l-707 -1309h-155l-199 1276q-3 20 -16 29.5t-33 11.5z" />
<glyph unicode="W" horiz-adv-x="1898" d="M170 1288v86h473v-86l-90 -4q-23 -2 -32 -12t-9 -29l72 -889l481 1020h166l104 -1034l416 903q4 9 4 16q0 22 -43 25l-92 4v86h428v-86l-121 -12l-614 -1309h-131l-119 1094l-512 -1094h-143l-103 1276q-2 20 -12.5 29.5t-36.5 11.5z" />
<glyph unicode="X" horiz-adv-x="1296" d="M-90 0v86l98 8q17 2 30 12.5t19 18.5l510 571l-245 553q-8 19 -18 24t-21 7l-113 8v86h532v-86l-133 -8q-17 -2 -27 -13.5t-3 -27.5l168 -383l335 383q11 12 9.5 25.5t-27.5 15.5l-98 8v86h463v-86l-123 -8q-16 -2 -29.5 -12.5t-19.5 -18.5l-451 -512l268 -612 q10 -19 20 -24t21 -7l111 -8v-86h-529v86l131 8q17 2 27 14t2 27l-184 430l-387 -430q-13 -12 -10.5 -25.5t28.5 -15.5l123 -8v-86h-477z" />
<glyph unicode="Y" horiz-adv-x="1309" d="M172 1288v86h530v-86l-131 -8q-17 -2 -25.5 -13t-2.5 -28l168 -532l395 532q4 7 7 14t2 12.5t-6.5 9.5t-18.5 5l-127 8v86h493v-86l-115 -8q-15 -2 -30 -12.5t-23 -18.5l-520 -674l-86 -440q-5 -15 4 -26t35 -13l115 -10v-86h-533v86l119 10q18 2 31 11.5t18 27.5l84 422 l-229 692q-7 20 -17.5 24.5t-21.5 6.5z" />
<glyph unicode="Z" horiz-adv-x="1153" d="M-41 0l18 90l961 1178h-479q-22 0 -32.5 -9.5t-16.5 -29.5l-56 -180h-141l66 325h940l-19 -92l-964 -1173h557q40 0 51 41l61 229h139l-71 -379h-1014z" />
<glyph unicode="[" horiz-adv-x="862" d="M111 -270l344 1720h510v-96h-334l-305 -1528h313v-96h-528z" />
<glyph unicode="\" horiz-adv-x="1001" d="M0 1374h131l870 -1564h-131z" />
<glyph unicode="]" horiz-adv-x="862" d="M-84 -172h336l303 1528h-313v94h528l-344 -1720h-510v98z" />
<glyph unicode="^" horiz-adv-x="702" d="M119 1128l338 347h161l201 -347h-143l-168 189l-246 -189h-143z" />
<glyph unicode="_" horiz-adv-x="622" d="M-160 -315l29 135h619l-26 -135h-622z" />
<glyph unicode="`" horiz-adv-x="805" d="M182 1409q0 15 4.5 31t15 29t28 21.5t44.5 8.5q22 0 37.5 -4t27.5 -10.5t21.5 -16t18.5 -20.5l274 -320h-127l-297 195q-21 14 -34 34.5t-13 51.5z" />
<glyph unicode="a" horiz-adv-x="1067" d="M66 342q0 79 17 159.5t50.5 155t83.5 139.5t115.5 113t146 75.5t176.5 27.5q28 0 55.5 -6.5t51.5 -17t44 -23.5t34 -27l30 49h140q-5 -12 -11 -28.5t-12 -33.5t-10.5 -32t-5.5 -23q-7 -27 -20 -81.5t-27.5 -122.5t-30 -142.5t-27.5 -141t-20 -118t-8 -74.5q0 -54 23 -74 t65 -20q10 0 29.5 4.5t40.5 10.5t39 11t26 7v-74q-12 -5 -44 -18.5t-71.5 -27t-80 -24t-70.5 -10.5q-37 0 -62.5 9t-42 27t-25.5 44t-12 60q-23 -22 -54 -46.5t-68.5 -45.5t-80 -34.5t-88.5 -13.5q-60 0 -105.5 17t-78.5 45.5t-54.5 66t-34.5 78t-18 82t-5 78.5zM268 354 q0 -43 7 -86t24.5 -78t48 -57t78.5 -22q36 0 72 16t67 37t54 42t34 32l107 565q1 5 -7.5 23t-20.5 37.5t-25.5 34.5t-22.5 15q-78 0 -139.5 -25.5t-107.5 -69t-78.5 -100.5t-52.5 -119t-29 -125t-9 -120z" />
<glyph unicode="b" horiz-adv-x="1008" d="M37 70l242 1298l-183 18v62l320 61h80l-117 -620q28 25 61.5 47.5t69.5 39t74 26.5t75 10q79 0 133 -35t87.5 -90t48 -121.5t14.5 -130.5t-14 -137.5t-43.5 -146.5t-75.5 -141t-110 -120t-147 -83.5t-187 -31.5q-87 0 -171.5 24t-156.5 71zM242 152q10 -15 27 -29 t39 -25.5t48 -18.5t54 -7q47 0 89.5 24t79 65t66.5 96t50.5 116.5t32 127t11.5 126.5q0 69 -16 116.5t-39 77.5t-48.5 43t-43.5 13q-25 0 -55 -8t-61.5 -22.5t-62.5 -33.5t-57 -41z" />
<glyph unicode="c" horiz-adv-x="891" d="M66 356q0 92 21.5 176t59.5 157t90 132.5t113 102t129 65.5t137 23q55 0 95 -14t65 -35t37 -46.5t12 -48.5q0 -20 -6 -41t-23.5 -39t-48 -32.5t-79.5 -20.5l-117 158q-55 -3 -98 -30.5t-75.5 -70.5t-55 -97.5t-36.5 -110.5t-20 -109t-6 -94q0 -50 9.5 -98.5t31 -87 t56 -62.5t85.5 -24q41 0 83 14.5t84.5 40.5t85.5 62t87 79v-129q-32 -31 -73 -66t-91 -65t-109.5 -50t-127.5 -20q-73 0 -131.5 25.5t-99 74t-62.5 119.5t-22 162z" />
<glyph unicode="d" horiz-adv-x="1077" d="M66 342q0 81 17.5 162.5t52 156t84.5 138.5t114 111.5t142.5 74.5t168.5 27q23 0 45 -4.5t42 -10.5t37 -13t30 -11l69 395l-186 18v62l317 61h84l-233 -1333q-5 -29 3 -47t21.5 -28.5t28 -14.5t21.5 -4t28.5 5.5t45.5 12.5t45 13l28 8v-76q-12 -5 -44 -16.5t-71 -23.5 t-80.5 -21t-72.5 -9q-47 0 -77 11.5t-47 32t-23.5 48.5t-6.5 62q-27 -29 -59.5 -56.5t-69.5 -49t-78 -35t-84 -13.5q-86 0 -142.5 33t-89.5 86t-46.5 118t-13.5 130zM264 354q0 -66 13.5 -114t36 -79t51.5 -46t59 -15q28 0 60.5 14t65.5 37.5t65.5 54t60.5 62.5l94 539 q1 4 -11.5 22.5t-32 38.5t-42.5 36t-43 16q-75 0 -143 -43.5t-120 -119.5t-83 -179.5t-31 -223.5z" />
<glyph unicode="e" horiz-adv-x="889" d="M66 348q0 81 19.5 161.5t55 154t85.5 137t110 110t128.5 73t141.5 26.5q71 0 118.5 -23.5t76.5 -56.5t41 -68t12 -57q0 -56 -26 -103t-70.5 -85t-103 -67.5t-123 -50t-131.5 -33t-128 -15.5q-3 -20 -5.5 -48t-2.5 -47q0 -56 13.5 -103t39 -81.5t61.5 -54t81 -19.5 q69 0 152 50t196 149v-129q-29 -28 -71 -61.5t-95.5 -63t-116.5 -49t-133 -19.5q-31 0 -67.5 6t-72.5 21.5t-69.5 42.5t-59 68.5t-41 99t-15.5 135.5zM281 528q65 6 134.5 30t126.5 61.5t93.5 85.5t36.5 102q0 20 -8 39.5t-22 34.5t-35 24.5t-46 9.5q-34 0 -65 -18 t-59.5 -48t-53 -69t-44 -82t-34.5 -87t-24 -83z" />
<glyph unicode="f" horiz-adv-x="659" d="M-266 -367q0 39 15 60.5t38 38.5l209 -54q27 33 49.5 81t41 106t33.5 124.5t27 137.5q26 145 48 323.5t53 380.5l-158 -16l2 80l178 59q10 54 27.5 116.5t43.5 124t61.5 118.5t81.5 100.5t103.5 69.5t127.5 26q52 0 88 -13t58 -32.5t32 -41.5t10 -40q0 -49 -36 -75.5 t-93 -34.5l-160 129q-22 -18 -41 -52t-35 -77t-29.5 -91.5t-23.5 -94t-17 -85t-11 -65.5h250v-102h-269q-3 -23 -10.5 -80t-18.5 -132t-23.5 -160.5t-25 -165t-24.5 -146.5t-21 -105q-14 -57 -38.5 -117.5t-58 -117.5t-74 -108t-86 -89t-95 -60t-100.5 -22q-39 0 -64.5 13 t-39.5 30.5t-19.5 34t-5.5 24.5z" />
<glyph unicode="g" horiz-adv-x="901" d="M-63 -170q0 52 21.5 96t58.5 79t86.5 62t105.5 46q-5 24 -0.5 56.5t15 66t27.5 64.5t38 52q-41 18 -76 41.5t-60.5 54t-40 70t-14.5 88.5q0 75 28 147.5t81.5 130t130 93t174.5 35.5q37 0 69.5 -6.5t59 -15t46 -17.5t28.5 -15h278v-96h-188q9 -23 17.5 -59t8.5 -78 q0 -98 -36 -171t-97 -122t-141.5 -73.5t-169.5 -24.5q-7 -15 -12 -33t-8 -35.5t-4 -32t2 -22.5l274 -125q47 -21 85.5 -42.5t66 -47t42.5 -58t15 -77.5q0 -44 -20.5 -85.5t-56 -78t-85 -67.5t-107 -53t-121 -34t-128.5 -12q-101 0 -175 25t-122.5 66t-72 95t-23.5 113z M129 -135q0 -35 15 -77t46.5 -78t79.5 -60.5t113 -24.5q74 0 126 21t85 51t48 63.5t15 59.5q0 37 -22 68t-82 59l-256 116q-49 -12 -81.5 -33t-51.5 -47.5t-27 -56.5t-8 -61zM295 580q0 -37 8 -68.5t23.5 -54t37 -35t48.5 -12.5q51 0 92.5 32.5t70.5 81.5t44.5 106t15.5 105 q0 38 -7 72.5t-21.5 61t-37 42t-53.5 15.5q-37 0 -76 -27t-71.5 -74t-53 -110t-20.5 -135z" />
<glyph unicode="h" horiz-adv-x="1073" d="M37 0l282 1368l-182 18v62l320 61h82l-138 -661q31 34 73.5 64t91 52.5t101 35t103.5 12.5q56 0 99 -17.5t69 -52.5q26 -34 34 -86q2 -17 3 -37q0 -38 -10 -84l-113 -551q-6 -29 3 -48.5t24.5 -31t32.5 -16t26 -4.5q28 0 61 14t68 25l2 -72q-13 -5 -45.5 -17t-72.5 -25.5 t-82 -23.5t-74 -10q-19 0 -48 5.5t-54.5 20t-40.5 40.5q-10 17 -10 41q0 13 3 27l125 604q4 18 4 35q0 19 -6 36q-10 31 -29 51.5t-42 31t-40 10.5q-24 0 -58.5 -12t-73 -33t-77.5 -50.5t-73 -64.5l-150 -717h-188z" />
<glyph unicode="i" horiz-adv-x="545" d="M53 889v59l309 64h84l-155 -819q-4 -21 0.5 -40t15 -33.5t27 -23t37.5 -8.5q18 0 42.5 6.5t49 15t45.5 16.5t31 11v-78q-12 -5 -44 -19t-75 -28.5t-90.5 -25.5t-89.5 -11q-53 0 -84 18t-46 47t-17 65v16q0 28 5 55l131 694zM279 1313q0 20 8.5 40t25 36.5t40.5 27 t55 10.5q29 0 51.5 -10t38.5 -26t24 -36.5t8 -41.5q0 -23 -8.5 -43.5t-24 -36.5t-38.5 -25.5t-53 -9.5q-63 0 -95 33.5t-32 81.5z" />
<glyph unicode="j" horiz-adv-x="559" d="M-264 -360q0 19 6 34t15 26t18.5 19t17.5 13l205 -56q15 16 30.5 49t30.5 74.5t27 87.5t20 88l154 895l-172 19v59l309 64h76l-145 -848q-9 -51 -27 -118t-45.5 -137.5t-65 -138t-85.5 -121t-106 -86t-126 -32.5q-65 0 -101 31t-36 78zM291 1313q0 23 7.5 44t23.5 37.5 t40 26t56 9.5q31 0 54.5 -9.5t39.5 -26t24.5 -37.5t8.5 -44q0 -18 -9 -38.5t-26 -37.5t-40.5 -28t-51.5 -11q-56 0 -91.5 32.5t-35.5 82.5z" />
<glyph unicode="k" horiz-adv-x="1042" d="M27 0l272 1368l-180 18v62l317 61h82l-190 -952l331 342q29 30 53 51.5t46.5 35t45.5 20t50 6.5q34 0 59.5 -10t42 -26t24.5 -36t7 -39q0 -35 -32.5 -72.5t-104.5 -62.5l-70 74q-28 -22 -60.5 -49t-65.5 -55t-63 -55t-54 -48q13 -26 28.5 -65t33 -83.5t38 -91t43.5 -88.5 q23 -43 48.5 -82.5t52.5 -70t55 -48.5t55 -18q11 0 27 2.5t34 6.5t35.5 10t30.5 12v-70q-26 -13 -59.5 -26t-68.5 -23t-68.5 -16.5t-57.5 -6.5q-25 0 -49 8.5t-45.5 22t-39.5 31t-30 35.5q-14 21 -31.5 54.5t-37 73.5t-39.5 83.5t-38.5 84t-34 75.5t-26.5 57l-94 -84 l-84 -416h-188z" />
<glyph unicode="l" horiz-adv-x="543" d="M80 125q0 31 6 72l225 1171l-182 18v62l320 61h79l-249 -1306q-4 -21 2 -41.5t19 -36t32 -25.5t41 -10q15 0 39.5 5.5t49.5 12.5t46.5 14t30.5 9v-78q-12 -5 -45 -17.5t-74 -26t-85.5 -24t-80.5 -10.5q-47 0 -80 11t-54 31t-30.5 47.5t-9.5 60.5z" />
<glyph unicode="m" horiz-adv-x="1589" d="M37 0l176 870l-170 19v59l307 64h84l-39 -189q38 36 81 70.5t89 60.5t93 42t92 16q51 0 84.5 -19t54 -47.5t30 -61.5t13.5 -61q37 37 82 71t94 60.5t99.5 42t97.5 15.5q51 0 89.5 -18.5t62 -52.5t29.5 -82q2 -17 3 -35q0 -34 -8 -72l-115 -553q-5 -25 1 -45.5t18.5 -35.5 t30.5 -23.5t38 -8.5q25 0 58 12t71 25v-70q-26 -11 -58.5 -24.5t-67 -25.5t-68.5 -20t-64 -8q-42 0 -75.5 9.5t-56 27.5t-32 45t-2.5 62l113 547q8 39 8 71q0 9 -1 18q-3 38 -15.5 63t-31 37.5t-38.5 12.5q-47 0 -91.5 -21t-81.5 -49.5t-64 -58t-37 -47.5l-144 -692h-190 l137 668q7 31 7 64q0 39 -10 69q-10 29 -30 48t-53 19q-36 0 -76.5 -21t-78 -50t-68 -59.5t-45.5 -49.5l-144 -688h-188z" />
<glyph unicode="n" horiz-adv-x="1085" d="M47 0l178 870l-172 19v59l309 64h82l-38 -191q34 34 78 68.5t94 61.5t103.5 44t104.5 17q112 0 160 -62q32 -41 31 -116q0 -38 -8 -84l-109 -578q-5 -29 4.5 -46t25 -26t32.5 -11.5t26 -2.5q28 0 61 8t68 19l2 -72q-13 -5 -45.5 -15.5t-72.5 -22t-82 -20t-74 -8.5 q-18 0 -49.5 3.5t-60.5 16t-47 36.5q-12 16 -12 40q0 12 3 25l125 629q4 21 4 39q0 16 -4 29q-6 27 -20.5 43.5t-33.5 23t-36 6.5q-25 0 -61.5 -14.5t-77 -38.5t-81.5 -56.5t-75 -68.5l-141 -688h-191z" />
<glyph unicode="o" horiz-adv-x="1036" d="M63 362q0 83 18 163.5t51.5 152.5t81.5 133.5t108.5 106t132 69.5t151.5 25q74 0 140.5 -23t117 -72t80 -124t29.5 -179q0 -83 -18.5 -162.5t-53 -150.5t-83 -130.5t-109 -103t-131.5 -68t-150 -24.5q-84 0 -152 27t-115 77.5t-72.5 122t-25.5 160.5zM270 373 q0 -76 14 -133t39 -95.5t58 -57.5t72 -19q48 0 90.5 24.5t77 66t61.5 96.5t46 116.5t28.5 126.5t9.5 125q0 73 -14 129t-38 94t-57.5 58t-72.5 20q-67 0 -124.5 -48.5t-99.5 -127t-66 -177t-24 -198.5z" />
<glyph unicode="p" horiz-adv-x="1012" d="M-197 -369l107 11q43 3 49 41l231 1187l-172 19v59l310 64h80l-25 -127q26 17 59.5 39t71.5 41.5t79.5 33t84.5 13.5q78 0 129.5 -33.5t82 -87.5t43.5 -122t13 -136q0 -84 -20 -165.5t-57.5 -154.5t-90.5 -135t-118 -107t-141 -70.5t-159 -25.5q-46 0 -83 13t-62 24 l-65 -329q-4 -17 4.5 -27.5t35.5 -13.5l129 -11v-77h-516v77zM238 133q9 -5 25.5 -15.5t38.5 -20.5t47 -17.5t52 -7.5q56 0 103 25t85 67.5t67 98.5t48 117.5t29 124.5t10 120q0 45 -9.5 91.5t-29 84.5t-49.5 62t-71 24q-37 0 -74 -16.5t-67.5 -37t-52.5 -40t-30 -25.5z" />
<glyph unicode="q" horiz-adv-x="1069" d="M66 346q0 79 19 159t54 154t86 138.5t115 112t140 75t161 27.5q65 0 115 -19t78 -41l49 60h123l-263 -1329q-3 -17 5.5 -27.5t35.5 -13.5l127 -11v-77h-516v77l109 11q20 2 33 11.5t18 29.5l84 426q-71 -59 -145 -96.5t-146 -37.5q-62 0 -113.5 23.5t-89 70.5t-58.5 116 t-21 161zM264 354q0 -58 11.5 -105t33 -80t52.5 -51t69 -18q31 0 61.5 11.5t59 30.5t56.5 42t55 47l110 564q2 11 -9.5 31.5t-29 41t-36 35.5t-29.5 15q-84 0 -157.5 -43t-128.5 -119t-86.5 -179t-31.5 -223z" />
<glyph unicode="r" horiz-adv-x="766" d="M39 0l176 870l-172 19v59l309 64h82l-43 -207q63 97 143 152t173 55q37 0 62 -13.5t40.5 -34.5t22 -45t6.5 -45q0 -36 -13 -57.5t-37 -32.5t-57.5 -14.5t-75.5 -3.5l-49 98q-38 -16 -81.5 -55.5t-82.5 -90t-68 -104t-38 -98.5l-107 -516h-190z" />
<glyph unicode="s" horiz-adv-x="758" d="M-16 164q0 49 29.5 79.5t92.5 30.5q19 0 36 -5t31 -11.5t24.5 -14t15.5 -12.5l-39 -100q22 -31 54.5 -52.5t84.5 -21.5q31 0 60 12t51.5 34t35.5 53.5t13 70.5q0 31 -12.5 58.5t-35 53.5t-53 51.5t-67.5 53.5q-32 25 -61.5 54t-53 61.5t-37.5 68.5t-14 74q0 75 34 133 t87.5 97.5t119 59.5t128.5 20q58 0 97.5 -13.5t64 -33t35 -42t10.5 -40.5q0 -36 -16 -57.5t-39 -33.5t-48.5 -16.5t-44.5 -5.5l-92 125q-6 5 -19 10.5t-32 5.5q-34 0 -57 -14.5t-37.5 -36t-20.5 -46t-6 -44.5q0 -28 16 -56.5t42 -57t58.5 -56t65.5 -53.5q34 -27 65.5 -55.5 t56.5 -59t40 -64.5t15 -71q0 -63 -25.5 -121t-75 -103t-123 -71.5t-168.5 -26.5q-74 0 -128 16.5t-89 43t-52 60.5t-17 69z" />
<glyph unicode="t" horiz-adv-x="614" d="M90 152q0 20 1.5 41t6.5 43l125 622l-129 -12v67l154 68l100 205h125l-41 -234h283v-94h-301l-129 -643q-6 -27 2 -48.5t25.5 -36t41 -22.5t49.5 -8q29 0 60 5.5t59.5 13.5t53 16.5t40.5 14.5v-82q-13 -6 -50 -21t-85 -31t-101 -28.5t-97 -12.5q-56 0 -93 13.5t-59 37 t-31.5 56t-9.5 70.5z" />
<glyph unicode="u" horiz-adv-x="1079" d="M53 889v59l309 64h84l-163 -781q-6 -26 2.5 -49.5t25 -41t37.5 -28t41 -10.5q37 0 74.5 10.5t74.5 28.5t71 41.5t63 50.5l155 754h191l-164 -788q-7 -32 0 -53.5t21.5 -35.5t33 -20t35.5 -6q20 0 53 6t76 31v-72q-19 -11 -52.5 -24t-72.5 -24t-79.5 -18.5t-73.5 -7.5 q-58 0 -86 19.5t-38.5 45t-9.5 51.5t1 38q-81 -77 -169.5 -115.5t-191.5 -38.5q-71 0 -116 25t-68 63t-28 83q-2 17 -2 34q0 27 5 51l133 639z" />
<glyph unicode="v" horiz-adv-x="946" d="M4 885v59l219 68q84 -2 122 -37.5t46 -108.5l64 -630q52 68 96 129.5t80.5 119.5t66.5 115.5t54 118.5l-39 248q20 20 50 32.5t68 12.5q66 0 95.5 -33.5t29.5 -89.5q0 -26 -5 -49t-11.5 -43t-14 -36t-12.5 -26q-68 -126 -146 -241t-153 -212.5t-142 -176t-114 -130.5 h-118q21 45 32 83q9 33 9 62v11q0 3 -2 30.5t-5.5 71t-8.5 99.5t-11 116t-12.5 120.5t-14 113t-15 93t-15.5 61.5q-10 21 -20 31t-27 10z" />
<glyph unicode="w" horiz-adv-x="1438" d="M4 885v57l248 70l92 -6l45 -766q40 73 84 161t89 181.5t89 190t84 188.5l154 18l51 -780q95 122 167 251t134 271l-41 240q4 4 13.5 12.5t25.5 17t37 15t47 6.5q37 0 60.5 -14.5t37.5 -34t19.5 -40t5.5 -32.5q0 -43 -22 -103t-58 -129.5t-83 -144.5t-96.5 -148 t-98 -139.5t-88.5 -119.5t-67.5 -88t-35.5 -44h-127l-45 699q-45 -97 -94 -193.5t-98 -186.5t-96.5 -171.5t-90.5 -147.5h-151l20 48l-57 845z" />
<glyph unicode="x" horiz-adv-x="1081" d="M-37 88q0 50 32.5 80t94.5 41l86 -82q31 19 65.5 52t70 79.5t69 106.5t61.5 133q-5 20 -16 55t-26.5 74.5t-32.5 80.5t-33 74.5t-29 55t-20 22.5l-179 23v55q9 3 29 9.5t45.5 15t53 17t51.5 16t42 12t25 4.5q36 0 68 -26t60.5 -76t54 -122t49.5 -165q30 58 71.5 126 t91.5 126.5t108.5 97.5t123.5 39q56 0 90.5 -33.5t34.5 -87.5q0 -40 -26.5 -76.5t-86.5 -56.5l-90 80q-27 -11 -60 -39.5t-67.5 -73t-68.5 -103.5t-64 -130q6 -19 14.5 -47.5t19.5 -62t23.5 -69t26.5 -67.5q15 -33 31.5 -62t34.5 -51t36.5 -34.5t36.5 -12.5q23 0 49.5 4.5 t67.5 24.5v-74q-59 -31 -116.5 -48.5t-123.5 -17.5q-34 0 -63 18.5t-53.5 48.5t-45 69.5t-36.5 81.5t-28.5 84t-20.5 77q-29 -54 -66.5 -119.5t-85.5 -123.5t-106.5 -97t-129.5 -39q-63 0 -103 29.5t-40 83.5z" />
<glyph unicode="y" horiz-adv-x="1018" d="M-164 -334q0 23 10.5 44.5t29.5 38t45 26.5t56 12l119 -119q32 3 63 25.5t65.5 67.5t75.5 113t93 163q-2 12 -10 53.5t-19.5 101t-26 131.5t-30.5 146q-16 72 -33.5 144.5t-34 130.5t-29.5 95t-20 38l-186 14v51l28 9q20 7 44 14.5t51 16t51 15t43.5 11t28.5 4.5 q33 0 58 -15.5t44.5 -44.5t36 -69.5t31.5 -91.5q26 -91 54 -225.5t58 -299.5l312 746h59l170 -56v-47l-102 -63q-12 -12 -35 -44t-47.5 -72t-48 -82.5t-37.5 -74.5q-22 -49 -51.5 -119t-66 -150.5t-79.5 -167t-92 -169.5q-48 -81 -102.5 -159.5t-115.5 -140t-128.5 -99 t-140.5 -37.5q-56 0 -93 14t-59 34.5t-30.5 44t-8.5 42.5z" />
<glyph unicode="z" horiz-adv-x="911" d="M-33 23l695 813l-181 -39q-42 23 -87 41t-87 18q-13 0 -29 -4t-31 -11.5t-28.5 -18.5t-21.5 -25l108 -131q-4 -6 -14 -17.5t-24.5 -23t-33.5 -19.5t-40 -8q-29 0 -50.5 11.5t-35.5 29.5t-20.5 39.5t-6.5 40.5q0 47 19.5 98.5t57 95t91 71.5t121.5 28q46 0 88.5 -16 t80.5 -35.5t72.5 -35.5t65.5 -16q6 0 17 2.5t30 12.5l45 114l154 -80l-695 -813l172 45q21 -8 48 -19.5t55.5 -22.5t55.5 -19t48 -8q22 0 38.5 6.5t29 16.5t22.5 21.5t19 22.5l-113 125q10 18 24 32.5t29.5 24.5t31.5 15.5t30 5.5q28 0 49.5 -11.5t36.5 -29.5t23 -41t8 -45 q0 -62 -27.5 -115t-71 -91.5t-96 -60.5t-102.5 -22q-47 0 -89.5 13.5t-82 30t-77.5 30.5t-75 14q-8 0 -23.5 -3t-29.5 -17l-51 -96z" />
<glyph unicode="{" horiz-adv-x="995" d="M119 547l18 94q42 0 79.5 1t69.5 7t59.5 18.5t49.5 34.5q38 36 58.5 89.5t33 114.5t23.5 126.5t29.5 127.5t50.5 115.5t88 90.5q63 43 153.5 58.5t215.5 15.5l-15 -86q-83 0 -137 -20t-88 -52q-35 -33 -54.5 -78t-31.5 -96t-20.5 -106t-21.5 -108t-34.5 -101.5 t-60.5 -87.5q-34 -32 -85.5 -60.5t-129.5 -48.5q46 -16 80 -33.5t59 -40.5q32 -30 45.5 -69t14.5 -83t-6.5 -92t-17.5 -95.5t-19 -93.5t-11 -86t6.5 -73t34.5 -55q16 -14 37 -22t44.5 -12.5t49 -5.5t49.5 -1l-16 -86q-56 0 -108 2.5t-96.5 11.5t-81 25.5t-62.5 44.5 q-29 31 -40 72t-10.5 87t9 95.5t19 99.5t20 97.5t11 89.5t-8 77t-35.5 58q-18 17 -43 25t-53.5 11t-59.5 3h-61z" />
<glyph unicode="|" horiz-adv-x="724" d="M300 -528v2158h124v-2158h-124z" />
<glyph unicode="}" horiz-adv-x="995" d="M-31 -252l15 86q83 0 137.5 20t89.5 52q35 33 54 78t30.5 96.5t19.5 106.5t21 108t35 101.5t61 86.5q34 34 85.5 61.5t129.5 49.5q-92 27 -137 72q-43 40 -54 95.5t-5 117.5t21.5 127t24.5 123.5t4.5 106.5t-38.5 77q-17 14 -38.5 22t-45 12.5t-49 5.5t-49.5 1l18 86 q55 0 106 -2.5t95.5 -11.5t81.5 -25.5t63 -44.5q38 -42 46 -99.5t0 -122.5t-24 -132t-24.5 -128.5t-3 -112t40.5 -81.5q18 -17 43 -25t53.5 -11t59.5 -3h61l-18 -94q-42 0 -79.5 -1.5t-70 -7.5t-59.5 -18.5t-49 -34.5q-38 -36 -58 -89t-33 -114t-23.5 -127t-29 -127.5 t-50.5 -115t-87 -90.5q-65 -44 -155.5 -59t-215.5 -15z" />
<glyph unicode="~" horiz-adv-x="1706" d="M193 461v133q109 78 207 111.5t182 33.5q74 0 149 -21.5t148 -47t144 -47t138 -21.5q37 0 78.5 8t88.5 26.5t100.5 48.5t115.5 75v-133q-59 -41 -110 -68.5t-97.5 -44.5t-90 -24t-87.5 -7q-73 0 -145 21.5t-145 47.5t-148 47.5t-154 21.5q-78 0 -174.5 -42.5 t-199.5 -117.5z" />
<glyph unicode="&#xa2;" d="M113 352q0 73 15.5 146.5t46 142t75.5 130t104.5 110t132.5 82t160 45.5l41 204h125l-39 -200q50 -1 89 -5t72.5 -11t64 -17t63.5 -23l-43 -305h-123q1 8 2.5 27t2.5 43.5t0 50.5t-5.5 49t-13.5 39.5t-23 20.5q-6 3 -32.5 15t-71.5 17l-160 -837q45 5 76.5 12.5t36.5 9.5 q18 4 32.5 21.5t25 41t18 51.5t13 53t7.5 45l4 28h123l-43 -301q-31 -18 -64 -29.5t-71 -19t-81.5 -10.5t-94.5 -3l-39 -200h-127l41 207q-86 13 -150 49t-106 86.5t-63 111t-21 123.5zM319 379q0 -116 41 -187t115 -102l152 805q-67 -26 -123.5 -76.5t-97.5 -118 t-64 -149.5t-23 -172z" />
<glyph unicode="&#xa3;" d="M-8 0v123q97 18 155.5 67t92.5 117q20 39 33 78t22 78t16 78t15 77h-146v105h160q3 35 13 99t33.5 140t63.5 155t102.5 143.5t151 105.5t209.5 41q38 0 86 -7t90.5 -24t71.5 -46t29 -73q0 -39 -23 -65.5t-55 -44t-65.5 -26t-55.5 -11.5l-88 186q-68 -4 -118 -33.5 t-86.5 -76t-60.5 -105.5t-40.5 -121.5t-27 -124t-19.5 -112.5h373v-105h-398q-13 -72 -33 -135.5t-52.5 -120.5t-80.5 -108t-116 -98q43 5 78.5 7.5t60.5 2.5h600v-166h-991z" />
<glyph unicode="&#xa5;" d="M57 479v94h408l-66 199h-282v92h243l-122 385l-111 25v86h475v-90l-119 -10q-14 -2 -19.5 -12.5t-0.5 -24.5l160 -502l378 491q4 6 7.5 12t3 11t-5.5 9.5t-17 6.5l-90 21v88h410v-88l-125 -27l-291 -381h235v-92h-317l-149 -199h407v-94h-424l-63 -342q-1 -5 -1 -10.5 t2 -11t8 -10t17 -5.5l137 -10v-90h-555v90q29 2 61 1.5t58 2.5q12 1 24.5 4t23.5 7.5t18.5 12t9.5 19.5l64 342h-392z" />
<glyph unicode="&#xa8;" horiz-adv-x="649" d="M158 1311q0 22 9 42.5t24 36.5t35 25.5t42 9.5q23 0 43.5 -9t36 -24t24.5 -35.5t9 -43.5t-9 -44t-24.5 -37t-36 -25t-43.5 -9q-22 0 -42 9t-35 25t-24 36t-9 43zM582 1313q0 21 9.5 41.5t25 36t36 25t41.5 9.5q23 0 43.5 -9t35.5 -24t23.5 -35.5t8.5 -43.5t-8.5 -44 t-23.5 -37t-35.5 -25t-43.5 -9t-43.5 9t-35.5 25t-24 37t-9 44z" />
<glyph unicode="&#xa9;" horiz-adv-x="1714" d="M111 717q0 109 28 210t79.5 189t123 160.5t159 124t188.5 80t210 28.5q110 0 211 -29t188.5 -81t159 -124.5t122.5 -160.5t78.5 -188t27.5 -207q0 -109 -28 -210t-79.5 -189t-123.5 -161t-159.5 -124.5t-188.5 -80t-210 -28.5q-108 0 -208 28.5t-187.5 80t-159.5 124 t-123.5 160.5t-79.5 189t-28 209zM199 717q0 -97 25 -186.5t70.5 -168t109 -143t141 -110.5t167 -71.5t185.5 -25.5t185.5 25.5t167 71.5t141.5 110.5t110 143t71 168t25 186.5t-25 187t-70 168t-108.5 143t-141.5 111t-167 71.5t-186 25.5t-186.5 -25.5t-167 -71.5 t-141.5 -110.5t-109.5 -143t-70.5 -168.5t-25 -187zM428 717q0 106 36 194t102 152t159 99.5t207 35.5q80 0 150 -15.5t139 -35.5v-244h-93l-30 156q-23 15 -62.5 29t-83.5 14q-65 0 -126 -25.5t-107.5 -74.5t-74.5 -119.5t-28 -161.5q0 -94 27 -167t71 -123.5t101 -76.5 t117 -26q25 0 50 3.5t47 9.5t41 13t32 13l28 174h91v-258q-3 -1 -27.5 -9t-64 -17t-91 -16.5t-108.5 -7.5q-121 0 -214.5 39.5t-157.5 106t-97 154t-33 184.5z" />
<glyph unicode="&#xab;" horiz-adv-x="905" d="M25 412l28 159l426 297l-30 -161l-279 -213l195 -220l-31 -159zM428 412l31 159l426 297l-31 -161l-281 -213l195 -220l-31 -159z" />
<glyph unicode="&#xae;" horiz-adv-x="1714" d="M111 717q0 109 28 210t79.5 189t123 160.5t159 124t188.5 80t210 28.5q107 0 207.5 -28.5t188 -79.5t159.5 -123.5t123.5 -160.5t80 -189.5t28.5 -210.5t-28 -210t-79.5 -189t-123.5 -160t-160 -123.5t-189.5 -80t-210.5 -28.5q-108 0 -207.5 28.5t-186.5 80t-159 123.5 t-123.5 160t-79.5 189t-28 210zM199 713q0 -96 25 -185t70 -167t108.5 -142t141.5 -110t167 -71.5t186 -25.5t186.5 25.5t167 71.5t141.5 111t109.5 143t70.5 168t25 186q0 98 -25 188t-70.5 168.5t-109 143t-141 110.5t-167 71t-185.5 25t-185 -25t-166.5 -70.5t-142 -110 t-110 -143t-71 -170t-25.5 -191.5zM483 291v57l78 6q16 2 23.5 11t7.5 18v713q0 9 -7.5 17.5t-23.5 10.5l-78 6v58h381q84 0 150.5 -12.5t113 -40.5t71 -73.5t24.5 -111.5q0 -52 -20 -89.5t-53 -64t-76.5 -43t-90.5 -26.5q61 -14 96.5 -37.5t55.5 -52.5t29.5 -62t17 -65.5 t18.5 -62t34.5 -52t64 -36t108.5 -13.5v-55q-5 -1 -18 -2.5t-30 -3t-36 -3t-35 -1.5q-68 0 -110.5 17.5t-68 46.5t-39.5 65.5t-25 75t-25 75t-39 65.5t-67 46.5t-109 17.5q-23 0 -44 -1t-24 -1v-305q0 -9 7 -18t24 -11l78 -6v-57h-363zM737 756q1 0 10 -0.5t21 -0.5 t24.5 -0.5t20.5 -0.5q61 0 107.5 9.5t78 32t48 58.5t16.5 90q0 42 -14 75.5t-45 57t-79.5 35.5t-117.5 12h-70v-368z" />
<glyph unicode="&#xb4;" horiz-adv-x="598" d="M274 1128l279 320q10 12 21 21t24.5 16t31 10.5t40.5 3.5q27 0 46.5 -8t32 -20.5t19 -28.5t6.5 -31q0 -29 -13 -48.5t-36 -35.5l-307 -199h-144z" />
<glyph unicode="&#xb8;" horiz-adv-x="487" d="M-117 -432l19 82q23 -6 61 -14.5t72 -8.5q14 0 37 4t44.5 14.5t37.5 29.5t16 49q0 15 -6.5 25.5t-16 17t-21.5 9.5t-24 3q-9 0 -21 -5.5t-44 -21.5l47 248h106l-22 -125q8 2 15.5 3t15.5 1q137 0 137 -108q0 -53 -23 -95.5t-63 -72t-92.5 -45t-110.5 -15.5q-23 0 -47.5 3 t-46.5 6.5t-40.5 8t-29.5 7.5z" />
<glyph unicode="&#xbb;" horiz-adv-x="905" d="M10 115l31 159l281 220l-195 213l27 161l315 -297l-33 -159zM412 115l34 159l279 220l-195 213l29 161l311 -297l-30 -159z" />
<glyph unicode="&#x2c6;" horiz-adv-x="702" d="M119 1128l338 347h161l201 -347h-143l-168 189l-246 -189h-143z" />
<glyph unicode="&#x2da;" horiz-adv-x="479" d="M168 1323q0 56 23.5 107.5t63 91t91 63t107.5 23.5q43 0 79.5 -14.5t63.5 -41t42 -62.5t15 -79q0 -57 -23.5 -108t-63.5 -90t-91.5 -62t-107.5 -23q-43 0 -79.5 14.5t-63 40.5t-41.5 62t-15 78zM272 1341q0 -48 32.5 -77t78.5 -29q31 0 61 13.5t52.5 36t36.5 51.5t14 61 q0 48 -31 76t-78 28q-32 0 -61.5 -13t-53 -35t-37.5 -51t-14 -61z" />
<glyph unicode="&#x2dc;" horiz-adv-x="739" d="M131 1198q21 45 49.5 84.5t64.5 69t81 46.5t100 17q42 0 73.5 -13.5t63.5 -35.5q26 -15 55 -30t76 -15q14 0 30.5 7t32.5 19.5t29.5 29.5t22.5 38h109q-22 -45 -50.5 -84.5t-65 -69t-81.5 -46.5t-100 -17q-42 0 -73 13.5t-63 33.5q-13 9 -26 17t-28.5 15t-34 11t-42.5 4 q-13 0 -29.5 -7t-32.5 -19.5t-30 -29.5t-22 -38h-109z" />
<glyph unicode="&#x400;" horiz-adv-x="1143" d="M-31 0v86l119 10q43 3 49 39l213 1102q3 17 -5 28t-34 13l-114 10v86h991l-62 -307h-131v166q0 22 -8 30.5t-31 8.5h-393l-94 -504h274q22 0 33.5 8.5t18.5 30.5l39 137h114l-90 -469h-117l21 146q6 41 -39 41h-277l-106 -560h481q22 0 33.5 11.5t17.5 29.5l64 197h125 l-68 -340h-1024zM471 1809q0 15 4.5 31t15 29t28 21.5t44.5 8.5q22 0 37.5 -4t27.5 -10.5t21.5 -16t18.5 -20.5l274 -320h-127l-297 195q-21 14 -34 34.5t-13 51.5z" />
<glyph unicode="&#x401;" horiz-adv-x="1143" d="M-31 0v86l119 10q43 3 49 39l213 1102q3 17 -5 28t-34 13l-114 10v86h991l-62 -307h-131v166q0 22 -8 30.5t-31 8.5h-393l-94 -504h274q22 0 33.5 8.5t18.5 30.5l39 137h114l-90 -469h-117l21 146q6 41 -39 41h-277l-106 -560h481q22 0 33.5 11.5t17.5 29.5l64 197h125 l-68 -340h-1024zM453 1711q0 22 9 42.5t24 36.5t35 25.5t42 9.5q23 0 43.5 -9t36 -24t24.5 -35.5t9 -43.5t-9 -44t-24.5 -37t-36 -25t-43.5 -9q-22 0 -42 9t-35 25t-24 36t-9 43zM877 1713q0 21 9.5 41.5t25 36t36 25t41.5 9.5q23 0 43.5 -9t35.5 -24t23.5 -35.5t8.5 -43.5 t-8.5 -44t-23.5 -37t-35.5 -25t-43.5 -9t-43.5 9t-35.5 25t-24 37t-9 44z" />
<glyph unicode="&#x402;" horiz-adv-x="1438" d="M90 1049l66 325h954l-63 -325h-113l8 184q0 15 -7.5 26t-21.5 11h-198l-92 -471q41 22 90 44.5t98.5 40.5t95 29t80.5 11q69 0 134.5 -25t116 -73t81.5 -117.5t31 -157.5q0 -123 -37.5 -229.5t-107.5 -185.5t-171.5 -124t-228.5 -45l18 88q83 7 143 51.5t99 110t57.5 143 t18.5 150.5q0 56 -18.5 101.5t-54.5 78t-90 50.5t-124 18q-27 0 -58.5 -7.5t-64.5 -20t-67.5 -28.5t-67.5 -32l-104 -531q-4 -17 6 -29t28 -14l101 -8v-88h-512v88l118 8q19 2 34 14t18 29l223 1131h-199q-14 0 -25.5 -11t-17.5 -26l-61 -184h-115z" />
<glyph unicode="&#x403;" horiz-adv-x="1081" d="M-51 0v88l139 8q22 2 35.5 16.5t15.5 26.5l217 1096q3 12 -5 26t-29 17l-119 8v88h997l-74 -377h-106l12 240q1 13 -12.5 23t-26.5 10h-424l-223 -1131q-2 -12 5.5 -26.5t29.5 -16.5l111 -8v-88h-543zM541 1528l279 320q10 12 21 21t24.5 16t31 10.5t40.5 3.5 q27 0 46.5 -8t32 -20.5t19 -28.5t6.5 -31q0 -29 -13 -48.5t-36 -35.5l-307 -199h-144z" />
<glyph unicode="&#x404;" horiz-adv-x="1276" d="M98 547q0 109 27 215t78 201.5t124 177t164.5 140.5t200 92.5t230.5 33.5q50 0 96 -5.5t93 -16t98 -26t110 -34.5l-55 -319h-121v190q0 16 -11.5 33t-25.5 22q-4 2 -18 10.5t-36.5 17.5t-52.5 16.5t-67 7.5q-98 0 -191.5 -37t-172.5 -106.5t-138 -171t-88 -230.5h563 l-20 -105h-561q-4 -31 -6.5 -63t-2.5 -66q0 -116 33.5 -201t90.5 -141t133.5 -83t162.5 -27q33 0 60 4.5t46.5 10.5t31.5 11.5t16 7.5q12 2 26.5 14.5t20.5 26.5l88 234h121l-55 -332q-12 -4 -51.5 -17t-97 -27.5t-128.5 -26t-145 -11.5q-102 0 -184 23t-145 63t-109 95 t-75 119.5t-43 135.5t-14 144z" />
<glyph unicode="&#x405;" horiz-adv-x="1067" d="M-10 74l69 329h140l-23 -235q0 -3 3.5 -8t8.5 -10t10 -9.5t9 -5.5q3 -2 20.5 -11.5t45.5 -20.5t64 -20t75 -9q66 0 126 20.5t105.5 59t72.5 94t27 125.5q0 52 -30.5 92.5t-75 72.5t-94.5 56.5t-88 44.5q-54 28 -105 58.5t-90.5 68t-63.5 84.5t-24 108q0 102 40 185 t111.5 141.5t169 90.5t212.5 32q69 0 128 -9.5t104 -22.5t74.5 -25t39.5 -17l-66 -313h-121l8 207q0 8 -7.5 16t-16.5 14q-18 14 -43 25q-21 9 -50.5 17t-66.5 8q-59 0 -114.5 -21t-98.5 -58.5t-68.5 -89t-25.5 -112.5q0 -55 30 -96.5t74 -73.5t94 -56t91 -44 q54 -28 105.5 -59t91.5 -70t64.5 -89.5t24.5 -117.5q0 -74 -30.5 -154t-98.5 -146.5t-176.5 -109.5t-265.5 -43q-79 0 -146.5 14.5t-119 33t-85 36t-44.5 23.5z" />
<glyph unicode="&#x406;" horiz-adv-x="643" d="M-31 0v86l129 10q19 2 27.5 11.5t11.5 27.5l213 1102q3 17 -5 28t-34 13l-114 10v86h532v-86l-131 -10q-20 -2 -28 -11.5t-13 -29.5l-213 -1102q-3 -15 5 -26t36 -13l119 -10v-86h-535z" />
<glyph unicode="&#x407;" horiz-adv-x="643" d="M-31 0v86l129 10q19 2 27.5 11.5t11.5 27.5l213 1102q3 17 -5 28t-34 13l-114 10v86h532v-86l-131 -10q-20 -2 -28 -11.5t-13 -29.5l-213 -1102q-3 -15 5 -26t36 -13l119 -10v-86h-535zM207 1711q0 22 9 42.5t24 36.5t35 25.5t42 9.5q23 0 43.5 -9t36 -24t24.5 -35.5 t9 -43.5t-9 -44t-24.5 -37t-36 -25t-43.5 -9q-22 0 -42 9t-35 25t-24 36t-9 43zM631 1713q0 21 9.5 41.5t25 36t36 25t41.5 9.5q23 0 43.5 -9t35.5 -24t23.5 -35.5t8.5 -43.5t-8.5 -44t-23.5 -37t-35.5 -25t-43.5 -9t-43.5 9t-35.5 25t-24 37t-9 44z" />
<glyph unicode="&#x408;" horiz-adv-x="958" d="M-41 29l68 350h135v-250q0 -26 25 -40.5t57 -14.5q65 0 111 29t78 84t54.5 135.5t40.5 183.5l136 731q3 17 -5 28t-34 13l-119 10v86h532v-86l-116 -10q-42 -3 -52 -41l-131 -713q-23 -127 -56 -230t-90 -175.5t-144.5 -112t-219.5 -39.5q-60 0 -107 8t-80.5 18.5t-54 21 t-28.5 14.5z" />
<glyph unicode="&#x409;" horiz-adv-x="1876" d="M-129 92q0 23 11 43.5t28.5 35.5t40 23.5t45.5 8.5l174 -68q15 0 34 14.5t39 37t39.5 49t34.5 51.5q20 34 44 91.5t49.5 132t51 162t50 181.5t46.5 191t40 190q3 12 -6 26.5t-31 16.5t-45 4q-20 2 -43 3t-43 1v88h1051v-88l-142 -8q-21 -2 -34.5 -16.5t-16.5 -26.5 l-76 -387q23 2 48 5q21 2 46 3.5t48 1.5q99 0 180 -22t138 -65.5t88.5 -107t31.5 -147.5q0 -144 -52 -243t-140.5 -159.5t-205 -87t-245.5 -26.5h-469v88l133 8q22 2 35.5 16.5t15.5 26.5l223 1131h-360q-40 -204 -81 -374t-81.5 -303t-79.5 -227t-73 -145 q-48 -73 -99 -121.5t-104 -78t-109 -42t-116 -12.5q-53 0 -83 35.5t-30 89.5zM1065 102q12 -1 27 -2q13 -1 29 -1.5t36 -0.5q100 0 176 30t126.5 85t76 132.5t25.5 172.5q0 62 -18 107.5t-50 75.5t-77.5 44.5t-100.5 14.5q-17 0 -38 -1.5t-40 -3.5q-22 -3 -45 -5z" />
<glyph unicode="&#x40a;" horiz-adv-x="1890" d="M-31 0v88l115 8q22 2 36 16t17 29l217 1092q3 15 -6 28t-31 15l-104 8v90h518v-90l-119 -8q-21 -2 -34.5 -15t-16.5 -28l-88 -440h526l88 440q4 15 -4.5 28t-29.5 15l-107 8v90h539v-90l-139 -8q-22 -2 -35.5 -15.5t-16.5 -27.5l-80 -406q27 2 54 5q23 2 49 4t49 2 q100 0 181 -19.5t138.5 -59.5t89 -101t31.5 -144q0 -144 -52 -242t-139.5 -158.5t-204 -87t-245.5 -26.5h-473v88l127 8q22 2 35 16t16 29l111 549h-526l-111 -549q-3 -15 5 -29t30 -16l108 -8v-88h-518zM1069 102q15 -1 33 -2q15 -1 33.5 -1.5t38.5 -0.5q105 0 181.5 33 t127 92t74.5 140t24 178q0 107 -60.5 152.5t-193.5 45.5q-17 0 -39.5 -1.5t-43.5 -3.5q-25 -3 -50 -5z" />
<glyph unicode="&#x40b;" horiz-adv-x="1423" d="M90 1049l66 325h1013l-63 -325h-113l8 184q2 15 -6 26t-22 11h-228l-104 -520q42 22 90 44t95 39t91.5 28t79.5 11q52 0 105 -14.5t92 -49.5t57 -93t0 -146l-84 -430q-3 -17 6 -29t27 -14l103 -8v-88h-494v88l98 8q20 2 34.5 14t19.5 29l75 393q10 49 6.5 82.5t-23.5 54 t-58.5 29.5t-98.5 9q-26 0 -55 -7.5t-60.5 -20.5t-64.5 -29l-66 -32l-94 -479q-3 -17 6.5 -29t26.5 -14l113 -8v-88h-525v88l119 8q20 2 34 14t19 29l224 1131h-230q-14 0 -25.5 -11t-17.5 -26l-61 -184h-115z" />
<glyph unicode="&#x40c;" horiz-adv-x="1309" d="M-31 0v88l117 10q22 2 35 15.5t16 27.5l215 1092q3 14 -4 27.5t-29 15.5l-110 10v88h539v-88l-136 -10q-21 -2 -35.5 -15.5t-17.5 -27.5l-100 -516q100 0 179 39t132 102q48 56 79 117.5t62 124t70.5 123t105.5 114.5q45 37 97 53.5t104 16.5q72 0 110 -34.5t38 -84.5 q0 -35 -30.5 -69.5t-72.5 -63.5l-194 88q-49 -41 -81.5 -87.5t-58 -97t-50 -103t-58.5 -103.5q-45 -68 -96.5 -116.5t-104.5 -69.5q54 -14 82 -37t43 -54l242 -477l139 -10v-88h-336v66l-242 475q-8 18 -28.5 30.5t-46.5 21t-54.5 13t-52.5 6.5l-92 -471q-3 -14 5 -27.5 t30 -15.5l123 -10v-88h-533zM678 1528l279 320q10 12 21 21t24.5 16t31 10.5t40.5 3.5q27 0 46.5 -8t32 -20.5t19 -28.5t6.5 -31q0 -29 -13 -48.5t-36 -35.5l-307 -199h-144z" />
<glyph unicode="&#x40d;" horiz-adv-x="1458" d="M-41 0v88l127 8q22 2 35.5 16.5t15.5 26.5l217 1096q3 12 -5 26t-30 17l-106 8v88h532v-88l-131 -8q-23 -2 -36.5 -16.5t-16.5 -26.5l-160 -809l758 743l12 66q4 12 -3.5 26t-28.5 17l-117 8v88h520v-88l-110 -8q-23 -3 -37 -17t-17 -26l-215 -1096q-3 -12 5 -26.5 t28 -16.5l121 -8v-88h-531v88l117 8q23 2 36.5 16.5t16.5 26.5l166 844l-757 -741l-21 -103q-2 -12 6.5 -26.5t30.5 -16.5l119 -8v-88h-541zM635 1809q0 15 4.5 31t15 29t28 21.5t44.5 8.5q22 0 37.5 -4t27.5 -10.5t21.5 -16t18.5 -20.5l274 -320h-127l-297 195 q-21 14 -34 34.5t-13 51.5z" />
<glyph unicode="&#x40e;" horiz-adv-x="1425" d="M129 96q0 15 10.5 32.5t28 35t40.5 35t48 32.5l203 -88q44 29 86 80t84 105l-316 946l-155 12v88h598v-88l-140 -6q-23 -2 -38 -15t-9 -30l215 -668l451 668q9 15 0 29t-31 16l-123 6v88h482v-88l-154 -14l-713 -1039q-38 -54 -81.5 -102.5t-94.5 -85t-109 -57.5 t-124 -21q-48 0 -78.5 12.5t-48 32t-24.5 42t-7 42.5zM687 1708q0 21 7.5 43t21.5 40t33.5 29t43.5 11q7 0 19 -1.5t25 -4.5t24 -6.5t16 -6.5l37 -161q16 -14 42 -21.5t54 -7.5q45 0 81.5 18.5t64.5 44.5t46.5 55.5t28.5 51.5h78q-24 -57 -57.5 -106t-77.5 -85t-99.5 -56.5 t-125.5 -20.5q-47 0 -93.5 11t-84 34t-61 57.5t-23.5 81.5z" />
<glyph unicode="&#x40f;" horiz-adv-x="1487" d="M-43 0v88l129 8q22 2 35 16.5t16 26.5l215 1096q3 12 -4 26t-29 17l-106 8v88h530v-88l-131 -8q-21 -2 -35.5 -16.5t-17.5 -26.5l-215 -1088q-2 -14 5.5 -28.5t29.5 -14.5h553q22 0 35.5 14.5t15.5 28.5l215 1088q3 12 -4 26t-29 17l-116 8v88h540v-88l-131 -8 q-21 -2 -35 -16.5t-16 -26.5l-217 -1096q-3 -12 5 -26t30 -17l106 -8v-88h-370q-85 0 -140 -24.5t-91.5 -76t-60 -131t-44.5 -188.5h-144q22 109 30 188.5t-8.5 131t-61.5 76t-130 24.5h-354z" />
<glyph unicode="&#x410;" horiz-adv-x="1378" d="M-109 0v86l115 12l756 1309h164l221 -1272q3 -20 11 -28.5t30 -10.5l94 -10v-86h-481v86l94 10q45 6 39 39l-62 391h-464l-209 -391q-11 -20 -0.5 -28t39.5 -11l94 -10v-86h-441zM463 623h391l-88 532z" />
<glyph unicode="&#x411;" horiz-adv-x="1218" d="M-57 0v88l143 8q22 2 35.5 16.5t15.5 26.5l217 1096q3 17 -6.5 29t-28.5 14l-106 8v88h938l-64 -319h-112l8 184q2 14 -4.5 26.5t-22.5 12.5h-344q-21 0 -34.5 -15.5t-16.5 -27.5l-76 -387q27 2 54 5q23 2 49 3.5t49 1.5q100 0 184 -22.5t145 -66.5t94.5 -109t33.5 -150 q0 -101 -24.5 -178t-69 -133.5t-106 -95t-135 -61.5t-157 -32.5t-170.5 -9.5h-489zM336 98q15 -1 32 -2q14 -1 32 -1.5t38 -0.5q221 0 334 106t113 320q0 125 -73.5 182.5t-213.5 57.5q-17 0 -39.5 -1.5t-43.5 -3.5q-25 -3 -50 -5z" />
<glyph unicode="&#x412;" horiz-adv-x="1243" d="M-31 0v86l129 10q19 2 27.5 11.5t11.5 27.5l213 1102q3 17 -5 28t-36 13l-114 10v86h575q111 0 188.5 -18.5t126 -53t70 -83t21.5 -107.5q0 -79 -27 -140t-73.5 -106.5t-109 -78.5t-132.5 -56q67 -9 122 -27.5t95 -50.5t62 -79.5t22 -114.5q0 -126 -46 -213.5 t-127.5 -142t-192 -79t-239.5 -24.5h-561zM336 98q12 -1 28.5 -2t34 -2t34.5 -1.5t30 -0.5q220 0 334 91.5t114 254.5q0 63 -22 106.5t-62.5 70.5t-98.5 39t-130 12q-38 0 -79 -3t-75 -8zM465 760q12 -1 25 -2l27 -1q14 0 25.5 -0.5t18.5 -0.5q96 0 168.5 27.5t121 74 t73 109t24.5 131.5q0 97 -73.5 142.5t-204.5 45.5q-32 0 -60 -2t-45 -4z" />
<glyph unicode="&#x413;" horiz-adv-x="1081" d="M-51 0v88l139 8q22 2 35.5 16.5t15.5 26.5l217 1096q3 12 -5 26t-29 17l-119 8v88h997l-74 -377h-106l12 240q1 13 -12.5 23t-26.5 10h-424l-223 -1131q-2 -12 5.5 -26.5t29.5 -16.5l111 -8v-88h-543z" />
<glyph unicode="&#x414;" horiz-adv-x="1452" d="M-180 -420l84 420q72 28 142 70q30 18 62.5 41t65.5 52t65 63t60 75q22 33 51 89t60.5 129t64.5 159t63 179t56 189t45 189q2 12 -7.5 26.5t-31.5 16.5t-45 4q-20 2 -43 3t-43 1v88h1082v-84l-126 -10q-21 0 -34.5 -14.5t-16.5 -28.5l-229 -1155q-2 -7 3.5 -19t14 -23.5 t19.5 -21t22 -10.5l86 -8l-82 -420h-104q14 73 8 132.5t-25 106t-47 80.5t-57.5 56.5t-57 33.5t-45.5 11h-567q-17 0 -48.5 -11t-70 -33.5t-80 -56.5t-79 -80.5t-67.5 -106t-44 -132.5h-104zM262 104h680l232 1166h-408q-40 -204 -89 -370t-99.5 -294.5t-98 -218.5 t-84.5 -141q-18 -26 -41 -51.5t-43 -45.5q-24 -24 -49 -45z" />
<glyph unicode="&#x415;" horiz-adv-x="1143" d="M-31 0v86l119 10q43 3 49 39l213 1102q3 17 -5 28t-34 13l-114 10v86h991l-62 -307h-131v166q0 22 -8 30.5t-31 8.5h-393l-94 -504h274q22 0 33.5 8.5t18.5 30.5l39 137h114l-90 -469h-117l21 146q6 41 -39 41h-277l-106 -560h481q22 0 33.5 11.5t17.5 29.5l64 197h125 l-68 -340h-1024z" />
<glyph unicode="&#x416;" horiz-adv-x="1825" d="M-88 0v88l168 10l375 457q34 42 83 71t111 40q-38 31 -62.5 74.5t-41.5 111.5q-14 51 -16.5 103.5t-6.5 103t-16 97t-45 87.5l-230 -88q-29 29 -40 63.5t-11 69.5q0 24 17 45.5t44.5 38t62.5 26t71 9.5q52 0 98.5 -16.5t75.5 -53.5q30 -36 45.5 -75.5t22.5 -80t9.5 -82 t5.5 -83t10 -81.5t24 -77q15 -32 25.5 -57.5t28 -44.5t46 -29t78.5 -10l102 516q3 14 -5 27.5t-30 15.5l-110 10v88h528v-88l-125 -10q-21 -2 -34.5 -15.5t-16.5 -27.5l-102 -516q51 0 83.5 10t57 29t45.5 44.5t47 57.5q48 56 77.5 117.5t58.5 124t67 123t104 114.5 q45 37 96.5 53.5t104.5 16.5q36 0 63.5 -9.5t46 -26t28 -38t9.5 -45.5q0 -18 -8 -35.5t-22 -34t-32.5 -32.5t-39.5 -31l-195 88q-49 -41 -79.5 -87.5t-54.5 -97t-46.5 -103t-56.5 -103.5q-45 -68 -89.5 -115t-90.5 -71q52 -14 93 -43.5t58 -67.5l195 -457l139 -10v-88h-344 v66l-213 475q-17 35 -46.5 51.5t-76.5 19.5l-92 -471q-3 -14 4 -27.5t29 -15.5l104 -10v-88h-528v88l131 10q22 2 35.5 15.5t15.5 27.5l94 471q-48 -3 -84 -19.5t-65 -51.5l-402 -475v-66h-360z" />
<glyph unicode="&#x417;" horiz-adv-x="1118" d="M-18 39l61 321h125l-8 -186q-1 -19 13 -34t36 -27.5t49.5 -22t53.5 -15.5t48.5 -9t34.5 -3q79 0 154.5 29t134 80.5t94 121.5t35.5 152q0 58 -24 97.5t-62 64t-86.5 35t-97.5 10.5q-28 0 -61.5 -1t-59.5 -7l22 121l62 -2q71 -2 139 20t121.5 64.5t86 105t32.5 140.5 q0 51 -20.5 90.5t-54 65.5t-77.5 39.5t-92 13.5q-26 0 -66 -9t-79.5 -25t-72 -39t-42.5 -50l-68 -187h-123l62 312q58 26 113 45t110.5 32t113 19t120.5 6q65 0 133.5 -15.5t125 -50t92.5 -88.5t36 -131q0 -81 -38 -146.5t-98 -115t-132.5 -84t-141.5 -53.5q61 -4 119.5 -22 t105 -52t75 -84.5t28.5 -118.5q0 -88 -27 -157.5t-73.5 -123t-109 -91t-134 -61.5t-147.5 -35t-150 -11q-53 0 -102 5t-96.5 14.5t-95 23t-97.5 29.5z" />
<glyph unicode="&#x418;" horiz-adv-x="1458" d="M-41 0v88l127 8q22 2 35.5 16.5t15.5 26.5l217 1096q3 12 -5 26t-30 17l-106 8v88h532v-88l-131 -8q-23 -2 -36.5 -16.5t-16.5 -26.5l-160 -809l758 743l12 66q4 12 -3.5 26t-28.5 17l-117 8v88h520v-88l-110 -8q-23 -3 -37 -17t-17 -26l-215 -1096q-3 -12 5 -26.5 t28 -16.5l121 -8v-88h-531v88l117 8q23 2 36.5 16.5t16.5 26.5l166 844l-757 -741l-21 -103q-2 -12 6.5 -26.5t30.5 -16.5l119 -8v-88h-541z" />
<glyph unicode="&#x419;" horiz-adv-x="1458" d="M-41 0v88l127 8q22 2 35.5 16.5t15.5 26.5l217 1096q3 12 -5 26t-30 17l-106 8v88h532v-88l-131 -8q-23 -2 -36.5 -16.5t-16.5 -26.5l-160 -809l758 743l12 66q4 12 -3.5 26t-28.5 17l-117 8v88h520v-88l-110 -8q-23 -3 -37 -17t-17 -26l-215 -1096q-3 -12 5 -26.5 t28 -16.5l121 -8v-88h-531v88l117 8q23 2 36.5 16.5t16.5 26.5l166 844l-757 -741l-21 -103q-2 -12 6.5 -26.5t30.5 -16.5l119 -8v-88h-541zM662 1708q0 21 7.5 43t21.5 40t33.5 29t43.5 11q7 0 19 -1.5t25 -4.5t24 -6.5t16 -6.5l37 -161q16 -14 42 -21.5t54 -7.5 q45 0 81.5 18.5t64.5 44.5t46.5 55.5t28.5 51.5h78q-24 -57 -57.5 -106t-77.5 -85t-99.5 -56.5t-125.5 -20.5q-47 0 -93.5 11t-84 34t-61 57.5t-23.5 81.5z" />
<glyph unicode="&#x41a;" horiz-adv-x="1309" d="M-31 0v88l117 10q22 2 35 15.5t16 27.5l215 1092q3 14 -4 27.5t-29 15.5l-110 10v88h539v-88l-136 -10q-21 -2 -35.5 -15.5t-17.5 -27.5l-100 -516q100 0 179 39t132 102q48 56 79 117.5t62 124t70.5 123t105.5 114.5q45 37 97 53.5t104 16.5q72 0 110 -34.5t38 -84.5 q0 -35 -30.5 -69.5t-72.5 -63.5l-194 88q-49 -41 -81.5 -87.5t-58 -97t-50 -103t-58.5 -103.5q-45 -68 -96.5 -116.5t-104.5 -69.5q54 -14 82 -37t43 -54l242 -477l139 -10v-88h-336v66l-242 475q-8 18 -28.5 30.5t-46.5 21t-54.5 13t-52.5 6.5l-92 -471q-3 -14 5 -27.5 t30 -15.5l123 -10v-88h-533z" />
<glyph unicode="&#x41b;" horiz-adv-x="1427" d="M-129 92q0 24 11 44.5t28.5 35t40 23t45.5 8.5l174 -68q15 0 34 14.5t39 37t39.5 49t34.5 51.5q20 34 44 91.5t49.5 132t51 162t50 181.5t46.5 191t40 190q3 12 -6 26.5t-31 16.5t-45 4q-20 2 -43 3t-43 1v88h1092v-88l-136 -8q-21 -2 -35.5 -16.5t-17.5 -26.5 l-215 -1096q-3 -12 5 -26.5t28 -16.5l125 -8v-88h-559v88l141 8q23 2 36.5 16.5t16.5 26.5l224 1131h-408q-40 -204 -81 -374t-81.5 -303t-79.5 -227t-73 -145q-48 -73 -99 -121.5t-104 -78t-109 -42t-116 -12.5q-53 0 -83 36.5t-30 88.5z" />
<glyph unicode="&#x41c;" horiz-adv-x="1765" d="M-29 0v86l117 10q42 3 51 39l211 1102q3 17 -5 28t-36 13l-114 10v86h458v-57l176 -991l547 981v67h473v-86l-116 -10q-42 -3 -52 -41l-211 -1102q-3 -15 5.5 -26t35.5 -13l115 -10v-86h-532v86l120 10q19 2 33 11.5t17 27.5l198 1039l-657 -1174h-123l-205 1163 l-190 -1028q-3 -15 5 -26t34 -13l114 -10v-86h-469z" />
<glyph unicode="&#x41d;" horiz-adv-x="1485" d="M-31 0v86l117 10q42 3 51 39l213 1102q3 17 -5 28t-36 13l-114 10v86h532v-86l-121 -10q-18 -2 -32 -11.5t-17 -29.5l-90 -467h639l90 467q3 17 -5 28t-36 13l-117 10v86h533v-86l-119 -10q-19 -2 -31.5 -11.5t-17.5 -29.5l-213 -1102q-3 -15 5 -26t36 -13l115 -10v-86 h-535v86l123 10q18 2 32 11.5t17 27.5l102 533h-639l-102 -533q-3 -15 5 -26t34 -13l119 -10v-86h-533z" />
<glyph unicode="&#x41e;" horiz-adv-x="1454" d="M98 537q0 110 25 217t72.5 204t115 179t152 142t185 94t212.5 34q127 0 230 -43.5t175 -118.5t111 -176t39 -215q0 -108 -23 -215.5t-67 -206.5t-109 -183.5t-149.5 -147.5t-188 -98.5t-223.5 -35.5q-123 0 -225 40.5t-176 115.5t-115 180t-41 234zM330 520 q0 -104 26.5 -186.5t72 -140t107.5 -88.5t134 -31q75 0 142 33.5t124 91t102.5 134.5t77.5 163.5t49 178.5t17 179q0 102 -25.5 185t-71 142.5t-108 91.5t-135.5 32q-75 0 -142 -33t-124 -90t-102.5 -133.5t-77.5 -163.5t-49 -180.5t-17 -184.5z" />
<glyph unicode="&#x41f;" horiz-adv-x="1487" d="M-43 0v88l129 8q22 2 35 16.5t16 26.5l215 1096q3 12 -4 26t-29 17l-106 8v88h1366v-88l-121 -8q-21 -3 -35 -17t-16 -26l-217 -1096q-3 -12 5 -26t30 -17l98 -8v-88h-530v88l139 8q22 2 35 16.5t16 26.5l215 1088q3 14 -5 28.5t-30 14.5h-553q-21 0 -34.5 -14.5 t-16.5 -28.5l-215 -1088q-3 -12 5 -26.5t30 -16.5l108 -8v-88h-530z" />
<glyph unicode="&#x420;" horiz-adv-x="1159" d="M-35 0v86l119 10q40 3 49 39l215 1102q3 17 -5 28t-36 13l-114 10v86h509q126 0 214.5 -24.5t145 -68t82 -103.5t25.5 -131q0 -124 -47 -223t-130.5 -168.5t-198 -106.5t-248.5 -37q-16 0 -38 0.5t-42 1.5q-24 1 -49 2l-76 -381q-3 -15 5 -26t36 -13l117 -10v-86h-533z M434 623q45 -4 90.5 -2.5t89.5 9t85 22t77 36.5q39 23 72 54t57 71t37.5 89.5t13.5 109.5q0 59 -16.5 108t-54 84t-98 54.5t-148.5 19.5q-19 0 -40.5 -1t-37.5 -3z" />
<glyph unicode="&#x421;" horiz-adv-x="1290" d="M98 547q0 109 27 215t78 201.5t124 177t164.5 140.5t200 92.5t230.5 33.5q50 0 96 -5.5t93 -16t98 -26t110 -34.5l-55 -319h-121v190q0 16 -11.5 33t-25.5 22q-4 2 -18 10.5t-36.5 17.5t-52.5 16.5t-67 7.5q-79 0 -155 -25t-144.5 -72t-126.5 -115t-100.5 -154.5 t-66.5 -190.5t-24 -222q0 -116 33.5 -201t90.5 -141t133.5 -83t162.5 -27q33 0 60 4.5t46.5 10.5t31.5 11.5t16 7.5q12 2 26.5 14.5t20.5 26.5l88 234h121l-55 -332q-12 -4 -51.5 -17t-97 -27.5t-128.5 -26t-145 -11.5q-102 0 -184 23t-145 63t-109 95t-75 119.5t-43 135.5 t-14 144z" />
<glyph unicode="&#x422;" horiz-adv-x="1200" d="M135 1061l60 313h1134l-63 -313h-129l8 180q3 41 -39 41h-264l-213 -1147q-3 -15 5 -26t36 -13l116 -10v-86h-532v86l119 10q18 2 32 11.5t17 27.5l213 1147h-256q-39 0 -51 -41l-64 -180h-129z" />
<glyph unicode="&#x423;" horiz-adv-x="1425" d="M129 96q0 15 10.5 32.5t28 35t40.5 35t48 32.5l203 -88q44 29 86 80t84 105l-316 946l-155 12v88h598v-88l-140 -6q-23 -2 -38 -15t-9 -30l215 -668l451 668q9 15 0 29t-31 16l-123 6v88h482v-88l-154 -14l-713 -1039q-38 -54 -81.5 -102.5t-94.5 -85t-109 -57.5 t-124 -21q-48 0 -78.5 12.5t-48 32t-24.5 42t-7 42.5z" />
<glyph unicode="&#x424;" horiz-adv-x="1673" d="M98 586q0 76 21 149.5t59.5 140t91.5 123t117 97.5t137 64.5t150 23.5q28 0 51.5 -3.5t45 -9.5t42 -13.5t41.5 -14.5l16 92q3 17 -6 29t-26 14l-121 8v88h549v-88l-136 -8q-21 -2 -35.5 -16.5t-17.5 -26.5l-16 -92q49 15 94 28t100 13q72 0 140.5 -24.5t122 -73.5 t86 -121t32.5 -166q0 -75 -21.5 -149t-60 -141.5t-92 -126t-117.5 -101t-136.5 -67t-149.5 -24.5q-28 0 -51.5 4t-45 10t-41.5 13l-40 14l-19 -92q-3 -17 6.5 -29t26.5 -14l135 -8v-88h-569v88l141 8q23 2 36.5 16.5t16.5 26.5l19 92q-48 -14 -94 -27.5t-103 -13.5 q-71 0 -139.5 27.5t-121.5 79t-85.5 124.5t-32.5 165zM322 528q0 -120 48 -187t144 -67q30 0 53 3.5t43 10.5t39.5 17t42.5 23l142 719q-18 13 -33.5 22.5t-32.5 16.5t-38.5 10.5t-51.5 3.5q-57 0 -106 -28.5t-88.5 -75.5t-69.5 -107.5t-50.5 -124t-31 -125t-10.5 -111.5z M899 328q18 -13 33.5 -23t33 -17t39 -10.5t50.5 -3.5q59 0 108 25.5t88.5 67.5t68.5 97t48.5 114t29 118t9.5 109q0 57 -11 110t-34 94t-58.5 66t-84.5 25q-29 0 -52 -3.5t-43 -10.5t-40 -16.5t-44 -22.5z" />
<glyph unicode="&#x425;" horiz-adv-x="1296" d="M-90 0v86l98 8q17 2 30 12.5t19 18.5l510 571l-245 553q-8 19 -18 24t-21 7l-113 8v86h532v-86l-133 -8q-17 -2 -27 -13.5t-3 -27.5l168 -383l335 383q11 12 9.5 25.5t-27.5 15.5l-98 8v86h463v-86l-123 -8q-16 -2 -29.5 -12.5t-19.5 -18.5l-451 -512l268 -612 q10 -19 20 -24t21 -7l111 -8v-86h-529v86l131 8q17 2 27 14t2 27l-184 430l-387 -430q-13 -12 -10.5 -25.5t28.5 -15.5l123 -8v-86h-477z" />
<glyph unicode="&#x426;" horiz-adv-x="1487" d="M-43 0v88l129 8q22 2 35 16.5t16 26.5l215 1096q3 12 -4 26t-29 17l-106 8v88h530v-88l-131 -8q-21 -2 -35.5 -16.5t-17.5 -26.5l-215 -1088q-2 -14 5.5 -28.5t29.5 -14.5h553q22 0 35.5 14.5t15.5 28.5l215 1088q3 12 -4 26t-29 17l-116 8v88h540v-88l-131 -8 q-21 -2 -35 -16.5t-16 -26.5l-217 -1096q-3 -12 5 -26t30 -17l106 -8l-100 -508h-105q22 109 9.5 188.5t-52.5 131t-105.5 76t-150.5 24.5h-870z" />
<glyph unicode="&#x427;" horiz-adv-x="1320" d="M209 1286v88h512v-88l-113 -8q-18 -2 -33 -14t-18 -29l-78 -393q-9 -48 -5.5 -81.5t21 -54t49 -29.5t79.5 -9q34 0 74.5 7.5t81 20t79.5 28.5t71 32l96 479q3 17 -6.5 28.5t-27.5 14.5l-99 8v88h514v-88l-123 -8q-18 -2 -33 -14t-18 -29l-217 -1096q-3 -17 6.5 -29 t28.5 -14l110 -8v-88h-512v88l109 8q19 2 33.5 14t17.5 29l96 486q-41 -23 -92 -45t-104.5 -39t-105 -28t-94.5 -11q-51 0 -102 14.5t-88 49.5t-54 93t0 146l86 430q3 17 -6.5 29t-28.5 14z" />
<glyph unicode="&#x428;" horiz-adv-x="1985" d="M-43 0v88l129 8q22 2 35 16.5t16 26.5l215 1096q3 12 -4 26t-29 17l-106 8v88h530v-88l-131 -8q-21 -2 -35.5 -16.5t-17.5 -26.5l-215 -1085q-2 -14 5.5 -30t29.5 -16h379q21 0 35.5 16t17.5 30l213 1085q3 12 -4 26t-29 17l-117 8v88h531v-88l-121 -8q-22 -3 -35.5 -17 t-15.5 -26l-215 -1085q-3 -14 4 -30t29 -16h379q21 0 35.5 14.5t17.5 28.5l215 1088q2 12 -5.5 26t-29.5 17l-117 8v88h531v-88l-121 -8q-22 -3 -35.5 -17t-15.5 -26l-217 -1098q-4 -12 4.5 -26t29.5 -17l111 -8v-86h-1876z" />
<glyph unicode="&#x429;" horiz-adv-x="1982" d="M-43 0v86l129 10q22 2 34.5 15.5t14.5 27.5l217 1096q3 12 -4 26t-29 17l-106 8v88h530v-88l-131 -8q-21 -2 -35.5 -16.5t-17.5 -26.5l-215 -1085q-2 -14 5.5 -30t29.5 -16h379q21 0 35.5 16t17.5 30l213 1085q3 12 -4 26t-29 17l-117 8v88h531v-88l-121 -8 q-22 -3 -35.5 -17t-15.5 -26l-215 -1085q-3 -14 4 -30t29 -16h379q21 0 35.5 14.5t17.5 28.5l215 1088q2 12 -5.5 26t-29.5 17l-117 8v88h531v-88l-121 -8q-22 -3 -35.5 -17t-15.5 -26l-217 -1096q-4 -12 4.5 -26t29.5 -17l107 -8l-100 -508h-105q21 109 9 188.5t-52.5 131 t-106 76t-149.5 24.5h-1368z" />
<glyph unicode="&#x42a;" horiz-adv-x="1370" d="M111 1049l63 325h793v-88l-152 -8q-22 -2 -35 -16.5t-16 -26.5l-76 -387q26 2 53 5q23 2 49.5 3.5t49.5 1.5q100 0 181 -22t138 -65.5t88 -107t31 -147.5q0 -100 -22.5 -177.5t-64 -134.5t-99.5 -96t-129.5 -63t-154.5 -34.5t-173 -10.5h-490v88l144 8q21 2 35.5 16.5 t17.5 26.5l213 1088q3 14 -4.5 28.5t-30.5 14.5h-190q-14 0 -25.5 -11t-17.5 -26l-64 -184h-112zM541 102q15 -1 32 -2q14 -1 32 -1.5t38 -0.5q116 0 194 31t125.5 89.5t68 142t20.5 188.5q0 109 -59 160t-191 51q-17 0 -39.5 -1.5t-43.5 -3.5q-25 -3 -50 -5z" />
<glyph unicode="&#x42b;" horiz-adv-x="1710" d="M-45 0v88l133 8q22 2 35.5 16.5t15.5 26.5l217 1096q3 12 -5 26t-29 17l-107 8v88h541v-88l-142 -8q-21 -2 -34.5 -16.5t-16.5 -26.5l-76 -387q27 2 54 5q23 2 49 3.5t49 1.5q100 0 180.5 -22t137.5 -65.5t88 -108t30 -148.5q0 -23 -2.5 -47.5t-7.5 -52.5 q-21 -108 -64 -186t-117 -128.5t-184 -75t-266 -24.5h-479zM340 102q15 -1 32 -2q14 -1 32 -1.5t38 -0.5q108 0 177.5 21t112.5 61.5t66 99.5t38 134q8 40 11 74t3 65q-2 106 -60.5 156.5t-189.5 50.5q-17 0 -39.5 -1.5t-43.5 -3.5q-25 -3 -50 -5zM1024 0v88l129 8 q23 2 36.5 16t16.5 29l215 1092q3 15 -4 28t-28 15l-121 8v90h549v-90l-136 -8q-21 -2 -35.5 -15t-17.5 -28l-215 -1092q-3 -15 5 -29t30 -16l115 -8v-88h-539z" />
<glyph unicode="&#x42c;" horiz-adv-x="1163" d="M-55 0v88l143 8q22 2 35.5 16.5t15.5 26.5l217 1096q3 17 -6.5 29t-27.5 14l-107 8v88h541v-88l-142 -8q-21 -2 -34.5 -16.5t-16.5 -26.5l-76 -387q27 2 54 5q23 2 49 3.5t49 1.5q100 0 184 -22.5t145 -66.5t94.5 -109t33.5 -150q0 -101 -24.5 -178t-69 -133.5t-106 -95 t-135 -61.5t-156.5 -32.5t-171 -9.5h-489zM340 102q15 -1 32 -2q14 -1 32 -1.5t38 -0.5q113 0 193.5 28t132.5 83t76 136t24 187q0 118 -65.5 173t-202.5 55q-17 0 -39.5 -1.5t-43.5 -3.5q-25 -3 -50 -5z" />
<glyph unicode="&#x42d;" horiz-adv-x="1290" d="M29 47l55 322h121v-191q0 -17 11.5 -33.5t25.5 -21.5q4 -2 17.5 -10.5t36 -17.5t53 -16t67.5 -7q100 0 196.5 40.5t177 116t139.5 183t85 241.5h-578l19 95h571q3 24 3.5 50t0.5 52q0 115 -33 200t-90 141.5t-133 84t-162 27.5q-33 0 -59.5 -5t-46 -11t-31.5 -12t-16 -7 q-13 -2 -27 -14.5t-20 -26.5l-90 -234h-119l55 332q11 4 50 17t97 27.5t129 26t146 11.5q152 0 260 -49.5t176.5 -131t100.5 -186t32 -213.5t-27 -215t-78 -201.5t-124 -177t-164.5 -140.5t-199.5 -92.5t-230 -33.5q-50 0 -96.5 5.5t-94 16t-98 25.5t-108.5 33z" />
<glyph unicode="&#x42e;" horiz-adv-x="1982" d="M-31 0v88l142 8q21 2 35.5 16.5t17.5 26.5l215 1096q3 12 -5 26.5t-30 16.5l-121 8v88h549v-88l-133 -8q-23 -2 -36.5 -16.5t-16.5 -26.5l-94 -481h264q34 132 96.5 250.5t152 208t207 142t263.5 52.5q120 0 208.5 -38t146.5 -107t86 -165t28 -212q0 -111 -22.5 -222 t-66 -213t-108 -190t-148.5 -153.5t-186.5 -102.5t-222.5 -37q-122 0 -210 38t-146 107t-85.5 165t-27.5 212q0 78 12 152h-264l-98 -502q-3 -12 4.5 -26.5t27.5 -16.5l125 -8v-88h-559zM942 420q0 -74 11.5 -137t41.5 -109t82 -72t133 -26q101 0 178 43t133.5 114.5 t95 163.5t61.5 189.5t32.5 193t9.5 174.5q0 74 -11.5 136.5t-41.5 108.5t-82 71.5t-133 25.5q-101 0 -178 -43t-133.5 -114t-94.5 -162.5t-61 -188.5t-33 -193t-10 -175z" />
<glyph unicode="&#x42f;" horiz-adv-x="1243" d="M-86 2v86q30 -3 61 0q26 2 56 11t55 30q45 39 71.5 89t47 103t41.5 106.5t56 100t90.5 83t144.5 55.5q-60 15 -113.5 37t-93 54t-63 75.5t-23.5 101.5q0 87 25.5 153.5t69.5 115.5t104 81.5t128 52.5t142 28.5t147 8.5h506v-88l-111 -8q-21 -3 -34.5 -17t-16.5 -26 l-217 -1096q-2 -12 5.5 -26t29.5 -17l108 -8v-88h-530v88l129 8q22 2 35.5 16.5t15.5 26.5l94 471q-15 1 -32 2q-14 1 -33.5 1.5t-40.5 0.5q-94 0 -154.5 -27t-100 -71.5t-66.5 -103t-54.5 -121t-62.5 -125t-92 -115.5q-26 -25 -60.5 -38.5t-67 -20t-58 -7.5t-34.5 -1 q-23 0 -42 2.5t-33 6.5q-16 4 -29 9zM465 899q0 -101 80.5 -141.5t234.5 -40.5h36q21 0 38 1q20 0 41 1l111 557h-105q-98 0 -178 -20t-137.5 -65t-89 -117t-31.5 -175z" />
<glyph unicode="&#x430;" horiz-adv-x="1067" d="M66 342q0 79 17 159.5t50.5 155t83.5 139.5t115.5 113t146 75.5t176.5 27.5q28 0 55.5 -6.5t51.5 -17t44 -23.5t34 -27l30 49h140q-5 -12 -11 -28.5t-12 -33.5t-10.5 -32t-5.5 -23q-7 -27 -20 -81.5t-27.5 -122.5t-30 -142.5t-27.5 -141t-20 -118t-8 -74.5q0 -54 23 -74 t65 -20q10 0 29.5 4.5t40.5 10.5t39 11t26 7v-74q-12 -5 -44 -18.5t-71.5 -27t-80 -24t-70.5 -10.5q-37 0 -62.5 9t-42 27t-25.5 44t-12 60q-23 -22 -54 -46.5t-68.5 -45.5t-80 -34.5t-88.5 -13.5q-60 0 -105.5 17t-78.5 45.5t-54.5 66t-34.5 78t-18 82t-5 78.5zM268 354 q0 -43 7 -86t24.5 -78t48 -57t78.5 -22q36 0 72 16t67 37t54 42t34 32l107 565q1 5 -7.5 23t-20.5 37.5t-25.5 34.5t-22.5 15q-78 0 -139.5 -25.5t-107.5 -69t-78.5 -100.5t-52.5 -119t-29 -125t-9 -120z" />
<glyph unicode="&#x431;" horiz-adv-x="1094" d="M49 383q0 68 14.5 135t28.5 133q30 147 74 258.5t100 192.5t123.5 135t144 86t160.5 45.5t174 13.5q85 0 136 10t79 22q33 14 45 32h31q-18 -44 -42.5 -87.5t-68 -78.5t-111.5 -56.5t-171 -21.5q-102 0 -178.5 -17t-133.5 -46.5t-96.5 -69.5t-68.5 -86t-49 -96.5 t-37 -100.5q28 39 71 79.5t98.5 73t122.5 53t144 20.5q94 0 166.5 -30t121.5 -83t74 -125.5t25 -157.5q0 -81 -20 -160t-57.5 -150t-91 -131.5t-119 -105t-142.5 -69.5t-162 -25q-95 0 -167 33t-120.5 89t-73 130t-24.5 156zM238 352q0 -63 13 -116t39.5 -91.5t67 -60 t95.5 -21.5q64 0 117.5 27t96.5 72.5t74.5 104.5t52.5 122.5t31.5 127t10.5 118.5q0 62 -13 115t-39 91.5t-66.5 60.5t-94.5 22q-65 0 -118.5 -27t-96 -72.5t-74.5 -104.5t-53.5 -122.5t-32 -127t-10.5 -118.5z" />
<glyph unicode="&#x432;" horiz-adv-x="1051" d="M63 358q0 70 21.5 146t62 148.5t98 138t130 114.5t158.5 78t182 29q84 0 138.5 -15.5t87 -41t45.5 -58.5t13 -68q0 -62 -23 -109t-61 -81.5t-86.5 -57.5t-99.5 -38q45 -6 86 -21t73 -40t51 -60.5t19 -81.5q0 -65 -22 -117t-59.5 -92.5t-86.5 -70t-103.5 -48.5t-111 -28 t-108.5 -9q-105 0 -181 32.5t-125.5 86t-73.5 122.5t-24 142zM285 344q0 -63 13 -115.5t36.5 -90t55 -58.5t67.5 -21q62 0 119.5 17.5t101.5 51.5t70 84.5t26 117.5q0 71 -56 112t-167 41q-11 0 -34 -1t-47 -2q-28 -2 -60 -3l39 82q64 0 129.5 12.5t118 42t85.5 79t33 124.5 q0 21 -7 42t-24.5 37t-47 26t-74.5 10q-58 0 -108 -29.5t-92 -77.5t-75 -110t-55.5 -127.5t-34.5 -129t-12 -114.5z" />
<glyph unicode="&#x433;" horiz-adv-x="891" d="M25 227q0 48 28 95t74 89.5t105.5 78t121.5 61.5q75 29 134 60t100.5 64t63.5 67t22 69q0 18 -5 36t-17.5 32.5t-34 23t-54.5 8.5q-29 0 -55 -6.5t-51 -20.5t-51.5 -36t-57.5 -53l-67 61q66 86 150 121t187 35q57 0 102.5 -17t77.5 -44.5t49 -64t17 -75.5 q0 -52 -29.5 -94.5t-85.5 -81t-137 -75.5t-184 -79q-44 -18 -82.5 -46.5t-67 -62.5t-45 -71.5t-16.5 -73.5q0 -26 9 -53t26 -49.5t41 -36.5t55 -14q82 0 152.5 41.5t148.5 126.5l96 -43q-87 -104 -192.5 -164t-239.5 -60q-58 0 -110.5 15.5t-92 47t-62.5 78.5t-23 111z" />
<glyph unicode="&#x434;" horiz-adv-x="1022" d="M63 367q0 84 17.5 165t51 152.5t80.5 131.5t105.5 103.5t128 68t146.5 24.5q25 0 49 -8.5t47 -22.5q-38 105 -93.5 204t-121.5 183l-160 41l9 61l268 39q37 -47 78.5 -107.5t82.5 -131.5t78 -151t65 -165t45 -174t17 -178q0 -61 -11.5 -131t-37.5 -140t-67 -134 t-99 -113.5t-135.5 -79t-175.5 -29.5q-81 0 -148 27t-116 77.5t-76 123t-27 164.5zM270 375q0 -80 16 -137.5t42.5 -95t59.5 -55t67 -17.5q49 0 90.5 22t75 60.5t58.5 90t42.5 110t26 121t8.5 122.5q0 48 -3 88.5t-8 76t-12.5 67t-17.5 63.5q-16 14 -41.5 23.5t-59.5 9.5 q-61 0 -110 -24.5t-87 -66t-66 -96.5t-46 -116t-26.5 -124.5t-8.5 -121.5z" />
<glyph unicode="&#x435;" horiz-adv-x="889" d="M66 348q0 81 19.5 161.5t55 154t85.5 137t110 110t128.5 73t141.5 26.5q71 0 118.5 -23.5t76.5 -56.5t41 -68t12 -57q0 -56 -26 -103t-70.5 -85t-103 -67.5t-123 -50t-131.5 -33t-128 -15.5q-3 -20 -5.5 -48t-2.5 -47q0 -56 13.5 -103t39 -81.5t61.5 -54t81 -19.5 q69 0 152 50t196 149v-129q-29 -28 -71 -61.5t-95.5 -63t-116.5 -49t-133 -19.5q-31 0 -67.5 6t-72.5 21.5t-69.5 42.5t-59 68.5t-41 99t-15.5 135.5zM281 528q65 6 134.5 30t126.5 61.5t93.5 85.5t36.5 102q0 20 -8 39.5t-22 34.5t-35 24.5t-46 9.5q-34 0 -65 -18 t-59.5 -48t-53 -69t-44 -82t-34.5 -87t-24 -83z" />
<glyph unicode="&#x436;" horiz-adv-x="1880" d="M66 119q0 20 6 41t23.5 39.5t48 32.5t79.5 20l99 -158q46 0 83.5 26.5t67.5 69.5t52 98t36.5 111.5t21.5 110.5t7 96q0 50 -10.5 99t-31.5 87.5t-51 62.5t-69 24q-41 0 -79.5 -14.5t-77.5 -41t-79 -62.5t-83 -79v129q31 31 69 66t84.5 65t102.5 50t124 20q61 0 115 -25.5 t94.5 -74t64 -119.5t23.5 -162q0 -20 -1 -38.5t-3 -37.5h74l86 432h191l-86 -432h75q30 100 84.5 183.5t121.5 144.5t139.5 95t138.5 34q55 0 94.5 -14t65 -35t37.5 -46.5t12 -48.5q0 -20 -6.5 -41t-23.5 -39t-48 -32.5t-80 -20.5l-98 158q-46 0 -84 -26.5t-68 -70t-52 -98 t-36.5 -111.5t-21.5 -111t-7 -95q0 -50 10.5 -98.5t31.5 -87t51 -62.5t69 -24q41 0 79.5 14.5t77.5 40.5t79 62t84 79v-129q-32 -31 -69.5 -66t-84 -65t-103 -50t-124.5 -20q-61 0 -115 25.5t-94.5 74t-64 119.5t-23.5 162q0 25 1.5 49.5t6.5 47.5h-78l-90 -453h-191l93 453 h-74q-28 -104 -82 -191.5t-121.5 -151.5t-142 -99.5t-142.5 -35.5q-55 0 -94.5 14t-64.5 35t-37 46.5t-12 48.5z" />
<glyph unicode="&#x437;" horiz-adv-x="907" d="M-33 27l47 231h99v-115q0 -13 11.5 -23.5t30 -19t40.5 -15t43 -11t38.5 -6.5t26.5 -2q59 0 112.5 16.5t94 49t64.5 80.5t24 112q0 39 -17 65.5t-44.5 42t-62 22.5t-68.5 7q-25 0 -47.5 -1.5t-41.5 -6.5l21 106l41 -2q54 -2 102 11.5t84.5 43t58 73.5t21.5 103 q0 39 -14.5 64.5t-38.5 41t-55 22t-64 6.5q-18 0 -49.5 -6t-63.5 -17.5t-58.5 -27.5t-35.5 -37l-47 -119h-98l45 223q91 37 177.5 55.5t184.5 18.5q48 0 103 -11t102.5 -35.5t79 -64.5t31.5 -98q0 -60 -24.5 -107t-64.5 -82.5t-91 -59t-103 -36.5q44 -2 85 -13.5t72.5 -34.5 t50.5 -58t19 -84q0 -69 -22 -122t-59.5 -92t-87.5 -65.5t-106 -43t-115 -23.5t-115 -7q-82 0 -159.5 14.5t-156.5 37.5z" />
<glyph unicode="&#x438;" horiz-adv-x="1079" d="M53 889v59l309 64h84l-163 -781q-6 -26 2.5 -49.5t25 -41t37.5 -28t41 -10.5q37 0 74.5 10.5t74.5 28.5t71 41.5t63 50.5l155 754h191l-164 -788q-7 -32 0 -53.5t21.5 -35.5t33 -20t35.5 -6q20 0 53 6t76 31v-72q-19 -11 -52.5 -24t-72.5 -24t-79.5 -18.5t-73.5 -7.5 q-58 0 -86 19.5t-38.5 45t-9.5 51.5t1 38q-81 -77 -169.5 -115.5t-191.5 -38.5q-71 0 -116 25t-68 63t-28 83t3 85l133 639z" />
<glyph unicode="&#x439;" horiz-adv-x="1079" d="M53 889v59l309 64h84l-163 -781q-6 -26 2.5 -49.5t25 -41t37.5 -28t41 -10.5q37 0 74.5 10.5t74.5 28.5t71 41.5t63 50.5l155 754h191l-164 -788q-7 -32 0 -53.5t21.5 -35.5t33 -20t35.5 -6q20 0 53 6t76 31v-72q-19 -11 -52.5 -24t-72.5 -24t-79.5 -18.5t-73.5 -7.5 q-58 0 -86 19.5t-38.5 45t-9.5 51.5t1 38q-81 -77 -169.5 -115.5t-191.5 -38.5q-71 0 -116 25t-68 63t-28 83t3 85l133 639zM452 1296q0 19 7 39t19.5 36t30.5 26t39 10q7 0 18 -1.5t23 -3.5t22 -5t15 -6l33 -148q14 -12 38.5 -19t49.5 -7q41 0 74 16.5t58 40.5t42 50.5 t26 47.5h70q-22 -51 -52 -95.5t-70 -77.5t-91 -52t-115 -19q-42 0 -84.5 10t-76 31t-55 52.5t-21.5 74.5z" />
<glyph unicode="&#x43a;" horiz-adv-x="1020" d="M37 0l168 864l-160 29v53l317 66h62l-94 -486q50 0 87 13t66.5 36.5t52.5 57t46 74.5q19 36 35 70t34 65.5t41.5 61.5t57.5 59q32 27 70.5 39t76.5 12q56 0 87.5 -28.5t31.5 -70.5q0 -32 -26 -59.5t-60 -50.5l-154 69q-29 -26 -49.5 -57.5t-37.5 -66t-33.5 -69.5 t-37.5 -67q-24 -37 -52.5 -66.5t-57.5 -47.5q22 -11 46 -31t34 -39l129 -254q9 -20 25 -33.5t34 -13.5q20 0 47.5 16t54.5 37.5t50 44.5t35 37l30 -53q-8 -10 -25 -31.5t-40.5 -48t-52.5 -54t-60 -50.5t-63 -37.5t-62 -14.5q-32 0 -55.5 22.5t-38.5 53.5l-174 340 q-6 12 -14 20t-20.5 12.5t-31 6.5t-45.5 2l-86 -432h-188z" />
<glyph unicode="&#x43b;" horiz-adv-x="1204" d="M-121 78q0 22 9.5 43t27 37.5t40.5 26.5t50 10l137 -74q11 0 22.5 8.5t22 21t20 27.5t17.5 27q25 36 52 107.5t54 162t51.5 193.5t43.5 202q3 10 -3.5 19.5t-23.5 11.5l-98 6v80h893v-80l-109 -6q-18 -2 -28.5 -11.5t-12.5 -19.5l-139 -704q-4 -21 3 -37.5t21.5 -27 t34 -16t40.5 -5.5q23 0 49.5 4.5t49.5 10.5q26 7 52 16v-64q-49 -20 -98 -36q-42 -14 -91.5 -25t-91.5 -11q-29 0 -61.5 8t-58 25t-40 43t-7.5 62l151 774h-321q-59 -294 -123 -485.5t-127 -272.5q-39 -51 -83 -81.5t-86.5 -46.5t-81 -21t-67.5 -5q-42 0 -66 22t-24 81z" />
<glyph unicode="&#x43c;" horiz-adv-x="1464" d="M-104 80q0 41 15.5 61.5t37.5 34.5l205 -53q16 22 33.5 66.5t35 102.5t33.5 124.5t31 132.5q34 155 67 336q3 11 -1 18.5t-15 9.5l-102 7v67h380l111 -719l395 719h242l-150 -821q-4 -21 3 -35.5t19.5 -23.5t28.5 -13t31 -4q20 0 44.5 4.5t47.5 11t42 13t30 10.5v-76 q-48 -22 -98 -39q-43 -15 -94 -27t-97 -12t-75 12t-45.5 31.5t-22.5 45.5t-6 55q0 15 7 62.5t18.5 113t26 143t29 153.5t28 143t22.5 112l-469 -852h-94l-131 840l-97 -461q-19 -93 -43.5 -167t-63.5 -125t-96 -78.5t-141 -27.5q-38 0 -61.5 13.5t-37 31t-18.5 35t-5 25.5z " />
<glyph unicode="&#x43d;" horiz-adv-x="1137" d="M39 889v59l309 64h82l-86 -461h418l84 436h188l-149 -794q-5 -21 -1 -40t15 -33.5t28 -23t38 -8.5q18 0 42.5 6.5t49 15t45.5 16.5t31 11v-78q-12 -5 -45 -19t-76 -28.5t-91 -25.5t-90 -11q-52 0 -83 18t-46 47t-16.5 65t4.5 71l53 277h-417l-86 -453h-191l164 870z" />
<glyph unicode="&#x43e;" horiz-adv-x="1036" d="M63 362q0 83 18 163.5t51.5 152.5t81.5 133.5t108.5 106t132 69.5t151.5 25q74 0 140.5 -23t117 -72t80 -124t29.5 -179q0 -83 -18.5 -162.5t-53 -150.5t-83 -130.5t-109 -103t-131.5 -68t-150 -24.5q-84 0 -152 27t-115 77.5t-72.5 122t-25.5 160.5zM270 373 q0 -76 14 -133t39 -95.5t58 -57.5t72 -19q48 0 90.5 24.5t77 66t61.5 96.5t46 116.5t28.5 126.5t9.5 125q0 73 -14 129t-38 94t-57.5 58t-72.5 20q-67 0 -124.5 -48.5t-99.5 -127t-66 -177t-24 -198.5z" />
<glyph unicode="&#x43f;" horiz-adv-x="1085" d="M47 0l178 870l-172 19v59l309 64h82l-38 -191q34 34 78 68.5t94 61.5t103.5 44t104.5 17q112 0 159.5 -62t23.5 -200l-109 -578q-5 -29 4.5 -46t25 -26t32.5 -11.5t26 -2.5q28 0 61 8t68 19l2 -72q-13 -5 -45.5 -15.5t-72.5 -22t-82 -20t-74 -8.5q-18 0 -49.5 3.5 t-60.5 16t-47 36.5t-9 65l125 629q7 41 0.5 68t-21 43.5t-33.5 23t-36 6.5q-25 0 -61.5 -14.5t-77 -38.5t-81.5 -56.5t-75 -68.5l-141 -688h-191z" />
<glyph unicode="&#x440;" horiz-adv-x="1012" d="M-197 -369l107 11q43 3 49 41l231 1187l-172 19v59l310 64h80l-25 -127q26 17 59.5 39t71.5 41.5t79.5 33t84.5 13.5q78 0 129.5 -33.5t82 -87.5t43.5 -122t13 -136q0 -84 -20 -165.5t-57.5 -154.5t-90.5 -135t-118 -107t-141 -70.5t-159 -25.5q-46 0 -83 13t-62 24 l-65 -329q-4 -17 4.5 -27.5t35.5 -13.5l129 -11v-77h-516v77zM238 133q9 -5 25.5 -15.5t38.5 -20.5t47 -17.5t52 -7.5q56 0 103 25t85 67.5t67 98.5t48 117.5t29 124.5t10 120q0 45 -9.5 91.5t-29 84.5t-49.5 62t-71 24q-37 0 -74 -16.5t-67.5 -37t-52.5 -40t-30 -25.5z" />
<glyph unicode="&#x441;" horiz-adv-x="891" d="M66 356q0 92 21.5 176t59.5 157t90 132.5t113 102t129 65.5t137 23q55 0 95 -14t65 -35t37 -46.5t12 -48.5q0 -20 -6 -41t-23.5 -39t-48 -32.5t-79.5 -20.5l-117 158q-55 -3 -98 -30t-75.5 -70t-55 -97.5t-36.5 -110.5t-20 -109t-6 -95q0 -50 9.5 -98.5t31 -87t56 -62.5 t85.5 -24q41 0 83 14.5t84.5 40.5t85.5 62t87 79v-129q-32 -31 -73 -66t-91 -65t-109.5 -50t-127.5 -20q-73 0 -131.5 25.5t-99 74t-62.5 119.5t-22 162z" />
<glyph unicode="&#x442;" horiz-adv-x="1589" d="M37 0l176 870l-170 19v59l307 64h84l-39 -189q38 36 81 70.5t89 60.5t93 42t92 16q51 0 84.5 -19t54 -47.5t30 -61.5t13.5 -61q37 37 82 71t94 60.5t99.5 42t97.5 15.5q51 0 89.5 -18.5t62 -52.5t30 -82t-5.5 -107l-115 -553q-5 -25 1 -45.5t18.5 -35.5t30.5 -23.5 t38 -8.5q25 0 58 12t71 25v-70q-26 -11 -58.5 -24.5t-67 -25.5t-68.5 -20t-64 -8q-42 0 -75.5 9.5t-56 27.5t-32 45t-2.5 62l113 547q10 51 7 89t-15.5 63t-31 37.5t-38.5 12.5q-47 0 -91.5 -21t-81.5 -49.5t-64 -58t-37 -47.5l-144 -692h-190l137 668q7 33 6.5 68.5 t-10 64.5t-29.5 48t-53 19q-36 0 -76.5 -21t-78 -50t-68 -59.5t-45.5 -49.5l-144 -688h-188z" />
<glyph unicode="&#x443;" horiz-adv-x="1018" d="M-164 -334q0 23 10.5 44.5t29.5 38t45 26.5t56 12l119 -119q32 3 63 25.5t65.5 67.5t75.5 113t93 163q-2 12 -10 53.5t-19.5 101t-26 131.5t-30.5 146q-16 72 -33.5 144.5t-34 130.5t-29.5 95t-20 38l-186 14v51l28 9q20 7 44 14.5t51 16t51 15t43.5 11t28.5 4.5 q33 0 58 -15.5t44.5 -44.5t36 -69.5t31.5 -91.5q26 -91 54 -225.5t58 -299.5l312 746h59l170 -56v-47l-102 -63q-12 -12 -35 -44t-47.5 -72t-48 -82.5t-37.5 -74.5q-22 -49 -51.5 -119t-66 -150.5t-79.5 -167t-92 -169.5q-48 -81 -102.5 -159.5t-115.5 -140t-128.5 -99 t-140.5 -37.5q-56 0 -93 14t-59 34.5t-30.5 44t-8.5 42.5z" />
<glyph unicode="&#x444;" horiz-adv-x="1501" d="M63 354q0 76 17 154.5t50 151.5t80.5 137t108.5 112t135 75.5t158 27.5q29 0 54 -4t45 -9q23 -5 43 -12l73 375h-155v68l293 79h82l-103 -522q21 7 47 12q21 5 48.5 9t56.5 4q82 0 146 -28t107.5 -78.5t66 -121t22.5 -155.5q0 -76 -17 -154t-50 -150.5t-80.5 -136 t-108 -111t-133.5 -75t-156 -27.5q-29 0 -54.5 3.5t-45.5 8.5q-23 5 -43 13l-64 -317q-2 -7 1.5 -14.5t9.5 -13.5t13.5 -10t14.5 -5l100 -9v-77h-508v77l127 9q7 1 15.5 5t16 10t13 13.5t7.5 14.5l63 317q-22 -8 -48 -13q-22 -5 -49.5 -8.5t-55.5 -3.5q-81 0 -144.5 27 t-108 76.5t-67.5 119.5t-23 156zM268 360q0 -60 11.5 -112.5t33.5 -91.5t53.5 -61.5t71.5 -22.5q34 0 60.5 5.5t44.5 12.5q21 8 37 19l153 770q-12 10 -30 18q-16 7 -39.5 12.5t-57.5 5.5q-52 0 -97 -28.5t-82.5 -75t-67 -105.5t-50 -120.5t-31 -120.5t-10.5 -105zM770 109 q12 -11 30 -19q15 -7 39 -12.5t58 -5.5q51 0 96 28.5t82.5 75t67 105.5t50 120.5t31.5 120.5t11 105q0 59 -11.5 111.5t-34 91.5t-54.5 62t-72 23q-34 0 -60 -5.5t-43 -12.5q-21 -8 -36 -18z" />
<glyph unicode="&#x445;" horiz-adv-x="1081" d="M-37 88q0 50 32.5 80t94.5 41l86 -82q31 19 65.5 52t70 79.5t69 106.5t61.5 133q-5 20 -16 55t-26.5 74.5t-32.5 80.5t-33 74.5t-29 55t-20 22.5l-179 23v55q9 3 29 9.5t45.5 15t53 17t51.5 16t42 12t25 4.5q36 0 68 -26t60.5 -76t54 -122t49.5 -165q30 58 71.5 126 t91.5 126.5t108.5 97.5t123.5 39q56 0 90.5 -33.5t34.5 -87.5q0 -40 -26.5 -76.5t-86.5 -56.5l-90 80q-27 -11 -60 -39.5t-67.5 -73t-68.5 -103.5t-64 -130q6 -19 14.5 -47.5t19.5 -62t23.5 -69t26.5 -67.5q15 -33 31.5 -62t34.5 -51t36.5 -34.5t36.5 -12.5q23 0 49.5 4.5 t67.5 24.5v-74q-59 -31 -116.5 -48.5t-123.5 -17.5q-34 0 -63 18.5t-53.5 48.5t-45 69.5t-36.5 81.5t-28.5 84t-20.5 77q-29 -54 -66.5 -119.5t-85.5 -123.5t-106.5 -97t-129.5 -39q-63 0 -103 29.5t-40 83.5z" />
<glyph unicode="&#x446;" horiz-adv-x="1079" d="M53 889v59l309 64h84l-163 -781q-6 -26 2.5 -49.5t25 -41t37.5 -28t41 -10.5q37 0 74.5 10.5t74.5 28.5t71 41.5t63 50.5l155 754h191l-164 -788q-7 -32 0 -53.5t21.5 -35.5t33 -20t35.5 -6q20 0 53 6t76 31v-72q-17 -10 -45.5 -21t-62 -21.5t-70 -18.5t-68.5 -11 q-5 -9 -11.5 -23t-12.5 -28.5t-10.5 -27.5t-4.5 -19q0 -9 7 -18t16 -22t16 -33.5t7 -51.5q0 -9 -8 -20t-21.5 -23t-30.5 -25t-35 -25q-41 -29 -94 -60l-20 45q19 15 34 30q13 13 24 27.5t11 28.5q0 13 -5.5 29.5t-12 33.5t-12 32.5t-5.5 27.5q0 8 10.5 23.5t25.5 33.5 t32.5 35.5t32.5 29.5q-44 7 -64.5 27.5t-28 44t-6.5 46t1 34.5q-81 -77 -169.5 -115.5t-191.5 -38.5q-71 0 -116 25t-68 63t-28 83t3 85l133 639z" />
<glyph unicode="&#x447;" horiz-adv-x="987" d="M39 889v59l309 64h82l-78 -410q-14 -72 8.5 -106.5t96.5 -34.5q31 0 69.5 10t89.5 35l91 481h190l-154 -813q-5 -26 1 -41.5t17 -24t26 -11.5t30 -3q16 0 33 2.5t37 8t43.5 12.5t52.5 16v-74q-26 -14 -58 -28.5t-67.5 -27t-73.5 -20.5t-75 -8q-48 0 -82 14t-54.5 36 t-28 48.5t-1.5 51.5l57 301q-28 -14 -58.5 -27t-61.5 -23.5t-61.5 -17t-58.5 -6.5q-48 0 -90 12t-71 38.5t-41 69t0 103.5l55 295z" />
<glyph unicode="&#x448;" horiz-adv-x="1589" d="M37 889v59l309 64h82l-139 -690q-11 -52 -8 -90t15 -63t30.5 -37.5t38.5 -12.5q48 0 92.5 21t81.5 49.5t63.5 58t38.5 47.5l143 692h191l-137 -668q-7 -33 -7 -68.5t10 -64.5t30 -48t53 -19q35 0 75.5 21t78 50t68.5 59.5t46 49.5l141 688h191l-162 -788q-5 -25 1 -45.5 t18.5 -35.5t30.5 -23.5t38 -8.5q25 0 57 12t72 25v-70q-27 -11 -58.5 -24.5t-64.5 -25.5t-65.5 -20t-61.5 -8q-84 0 -129 36t-37 108l6 45q-38 -36 -81.5 -70t-90 -60.5t-94 -42.5t-92.5 -16q-51 0 -84.5 19t-54 47.5t-30 61.5t-13.5 61q-37 -37 -82.5 -71t-94.5 -60.5 t-99 -42t-97 -15.5q-51 0 -90 18.5t-62 52.5t-29.5 82.5t5.5 107.5l129 634z" />
<glyph unicode="&#x449;" horiz-adv-x="1589" d="M37 889v59l309 64h82l-139 -690q-11 -52 -8 -90t15 -63t30.5 -37.5t38.5 -12.5q48 0 92.5 21t81.5 49.5t63.5 58t38.5 47.5l143 692h191l-137 -668q-7 -33 -7 -68.5t10 -64.5t30 -48t53 -19q35 0 75.5 21t78 50t68.5 59.5t46 49.5l141 688h191l-162 -788q-5 -25 1 -45.5 t18.5 -35.5t30.5 -23.5t38 -8.5q25 0 57 12t72 25v-70q-25 -10 -53 -21.5t-57 -22.5t-58.5 -20t-56.5 -12q-4 -7 -11 -20.5t-13.5 -28.5t-11.5 -28.5t-5 -20.5q0 -9 7 -18t15.5 -22t15.5 -33.5t7 -51.5q0 -9 -8 -20t-21.5 -23t-30.5 -25t-35 -25q-41 -29 -94 -60l-20 45 q19 15 35 30q13 13 24 27.5t11 28.5q0 13 -5.5 29.5t-12 33.5t-12 32.5t-5.5 27.5q0 9 11.5 26t27 35.5t32.5 36t29 27.5q-63 8 -95 42.5t-26 96.5l6 45q-38 -36 -81.5 -70t-90 -60.5t-94 -42.5t-92.5 -16q-51 0 -84.5 19t-54 47.5t-30 61.5t-13.5 61q-37 -37 -82.5 -71 t-94.5 -60.5t-99 -42t-97 -15.5q-51 0 -90 18.5t-62 52.5t-29.5 82.5t5.5 107.5l129 634z" />
<glyph unicode="&#x44a;" horiz-adv-x="1073" d="M23 735l49 252h540l-80 -399q13 6 29 12t32.5 11.5t32.5 8.5t29 3q78 0 143.5 -17.5t112.5 -51t73 -84t26 -116.5q0 -101 -38 -173t-99 -118t-137.5 -67t-153.5 -21q-49 0 -103 14t-99 43.5t-74.5 74t-29.5 106.5q0 12 2 25.5t5 27.5l125 641h-201q-8 0 -16 -5.5 t-11 -14.5l-51 -152h-106zM467 209q0 -45 17 -74.5t42 -46t52.5 -23t48.5 -6.5q38 0 71.5 23.5t58.5 64t39.5 95t14.5 116.5q0 45 -9 78t-30 55t-56 33t-87 11q-10 0 -26 -4t-32.5 -9.5t-31 -12t-23.5 -11.5l-45 -236q-2 -15 -3 -28t-1 -25z" />
<glyph unicode="&#x44b;" horiz-adv-x="1358" d="M39 889v59l309 64h82l-82 -424q13 6 29 12t32.5 11.5t32.5 8.5t29 3q78 0 143 -17.5t111.5 -51t72 -84t25.5 -116.5q0 -101 -37.5 -173t-98.5 -118t-137 -67t-153 -21q-49 0 -103 14t-99 43.5t-74 74t-29 106.5q0 12 1 25.5t3 27.5l117 604zM281 209q0 -45 17 -74.5 t42 -46t52 -23t48 -6.5q39 0 73 23.5t59.5 64t40 95t14.5 116.5q0 45 -9 78t-30 55t-56.5 33t-87.5 11q-10 0 -25.5 -4t-32 -9.5t-31.5 -12t-23 -11.5l-45 -236q-6 -30 -6 -53zM868 889v59l310 64h82l-154 -819q-5 -21 -0.5 -40t15 -33.5t27.5 -23t38 -8.5q18 0 42.5 6.5 t49 15t45.5 16.5t31 11v-78q-12 -5 -45 -19t-76 -28.5t-90.5 -25.5t-89.5 -11q-53 0 -84 18t-46 47t-16.5 65t4.5 71l131 694z" />
<glyph unicode="&#x44c;" horiz-adv-x="889" d="M39 889v59l309 64h82l-82 -424q13 6 29 12t32.5 11.5t32.5 8.5t29 3q78 0 143 -17.5t111.5 -51t72 -84t25.5 -116.5q0 -101 -37.5 -173t-98.5 -118t-137 -67t-153 -21q-49 0 -103 14t-99 43.5t-74 74t-29 106.5q0 12 1 25.5t3 27.5l117 604zM281 209q0 -45 17 -74.5 t42 -46t52 -23t48 -6.5q39 0 73 23.5t59.5 64t40 95t14.5 116.5q0 45 -9 78t-30 55t-56.5 33t-87.5 11q-10 0 -25.5 -4t-32 -9.5t-31.5 -12t-23 -11.5l-45 -236q-6 -30 -6 -53z" />
<glyph unicode="&#x44d;" horiz-adv-x="942" d="M-33 29l49 241h90l3 -155q0 -18 22 -31q14 -5 32 -9q16 -4 39 -6.5t52 -2.5q83 0 146.5 24.5t111.5 73t81.5 121.5t57.5 170h-379l21 100h379q5 31 7.5 58.5t2.5 52.5q0 133 -63 195.5t-185 62.5q-31 0 -55.5 -4.5t-44 -10.5t-34 -12t-24.5 -10q-11 -5 -20 -15.5 t-12 -21.5l-45 -125h-93l48 236q46 13 85 22.5t75 16t70 9.5t69 3q100 0 178 -28.5t132 -80t82.5 -124.5t28.5 -161q0 -86 -22 -166.5t-62.5 -152t-97.5 -131t-126.5 -102.5t-150 -67t-167.5 -24q-57 0 -108 8t-89 19q-46 11 -84 27z" />
<glyph unicode="&#x44e;" horiz-adv-x="1516" d="M-57 0v80l106 6q20 2 34 14t19 31l146 731h-142v72l279 78h82l-92 -461h203q21 88 65 171t110 147.5t154 103.5t197 39q91 0 156.5 -28t107.5 -77.5t62 -117.5t20 -148q0 -79 -16.5 -159t-48.5 -154t-79.5 -138.5t-109 -112t-136.5 -75t-163 -27.5q-92 0 -158 28.5 t-108 78.5t-62 117t-20 145q0 53 6 109h-201l-61 -322q-5 -19 4.5 -31t28.5 -14l98 -6v-80h-481zM743 295q0 -51 9 -94t29.5 -73.5t53 -47.5t80.5 -17q65 0 115.5 32t88.5 84.5t64 120t42.5 137.5t24 137t7.5 120q0 51 -9 93t-29.5 72.5t-53 47.5t-80.5 17q-65 0 -115 -32 t-88 -84t-64.5 -119t-43 -137t-24 -137t-7.5 -120z" />
<glyph unicode="&#x44f;" horiz-adv-x="1032" d="M-127 0l12 61q30 -3 59 -2q25 1 51 6t44 19q21 18 35.5 38t25 40.5t18 41t15.5 38.5q9 21 19.5 42t23.5 42t30 42.5t40 43.5q20 17 59.5 35.5t81.5 27.5q-52 13 -99 34.5t-80.5 52.5t-49.5 72t-6 93q13 70 49 119.5t95 81t142 45.5t191 14h305l-150 -823q-4 -23 3 -38 t19.5 -24t28.5 -12.5t31 -3.5q19 0 43 5t47 11.5t42.5 13.5t29.5 11v-76q-49 -21 -99 -38q-43 -14 -94.5 -26t-97.5 -12q-45 0 -73.5 11.5t-44.5 31t-21.5 45t-5.5 54.5q0 11 3 36.5t8 58t11 68.5t11.5 67.5t10 55t5.5 31.5h-70q-41 0 -67.5 -4.5t-45 -13.5t-33 -22 t-30.5 -29q-35 -38 -56.5 -80t-42.5 -85t-47 -85.5t-71 -81.5q-21 -19 -51.5 -30.5t-61 -17.5t-55 -8t-33.5 -2q-20 0 -39 3.5t-33 8.5q-17 5 -32 13zM355 626q8 -42 35 -68t73.5 -38t114.5 -12h22q13 0 25 1q14 0 30 1l76 403h-67q-75 0 -128.5 -11.5t-90 -34.5t-57.5 -58 t-30 -82q-11 -59 -3 -101z" />
<glyph unicode="&#x450;" horiz-adv-x="889" d="M66 348q0 81 19.5 161.5t55 154t85.5 137t110 110t128.5 73t141.5 26.5q71 0 118.5 -23.5t76.5 -56.5t41 -68t12 -57q0 -56 -26 -103t-70.5 -85t-103 -67.5t-123 -50t-131.5 -33t-128 -15.5q-3 -20 -5.5 -48t-2.5 -47q0 -56 13.5 -103t39 -81.5t61.5 -54t81 -19.5 q69 0 152 50t196 149v-129q-29 -28 -71 -61.5t-95.5 -63t-116.5 -49t-133 -19.5q-31 0 -67.5 6t-72.5 21.5t-69.5 42.5t-59 68.5t-41 99t-15.5 135.5zM281 528q65 6 134.5 30t126.5 61.5t93.5 85.5t36.5 102q0 20 -8 39.5t-22 34.5t-35 24.5t-46 9.5q-34 0 -65 -18 t-59.5 -48t-53 -69t-44 -82t-34.5 -87t-24 -83zM377 1409q0 15 4.5 31t15 29t28 21.5t44.5 8.5q22 0 37.5 -4t27.5 -10.5t21.5 -16t18.5 -20.5l274 -320h-127l-297 195q-21 14 -34 34.5t-13 51.5z" />
<glyph unicode="&#x451;" horiz-adv-x="889" d="M66 348q0 81 19.5 161.5t55 154t85.5 137t110 110t128.5 73t141.5 26.5q71 0 118.5 -23.5t76.5 -56.5t41 -68t12 -57q0 -56 -26 -103t-70.5 -85t-103 -67.5t-123 -50t-131.5 -33t-128 -15.5q-3 -20 -5.5 -48t-2.5 -47q0 -56 13.5 -103t39 -81.5t61.5 -54t81 -19.5 q69 0 152 50t196 149v-129q-29 -28 -71 -61.5t-95.5 -63t-116.5 -49t-133 -19.5q-31 0 -67.5 6t-72.5 21.5t-69.5 42.5t-59 68.5t-41 99t-15.5 135.5zM281 528q65 6 134.5 30t126.5 61.5t93.5 85.5t36.5 102q0 20 -8 39.5t-22 34.5t-35 24.5t-46 9.5q-34 0 -65 -18 t-59.5 -48t-53 -69t-44 -82t-34.5 -87t-24 -83zM359 1311q0 22 9 42.5t24 36.5t35 25.5t42 9.5q23 0 43.5 -9t36 -24t24.5 -35.5t9 -43.5t-9 -44t-24.5 -37t-36 -25t-43.5 -9q-22 0 -42 9t-35 25t-24 36t-9 43zM783 1313q0 21 9.5 41.5t25 36t36 25t41.5 9.5q23 0 43.5 -9 t35.5 -24t23.5 -35.5t8.5 -43.5t-8.5 -44t-23.5 -37t-35.5 -25t-43.5 -9t-43.5 9t-35.5 25t-24 37t-9 44z" />
<glyph unicode="&#x452;" horiz-adv-x="1102" d="M37 0l221 1075h-164v103h187l38 190l-182 18v62l320 61h82l-70 -331h213v-103h-233l-48 -227q41 33 86.5 62.5t91 52t88.5 36t78 13.5q68 0 122 -24t92 -70t58.5 -113t20.5 -152q0 -110 -26.5 -226.5t-76.5 -227.5t-122.5 -210.5t-163 -174.5t-198.5 -118.5t-230 -43.5 l17 80q93 9 174 56t149 119t120.5 163t89.5 188t56 193.5t19 179.5q0 69 -18 115.5t-49 75t-73 40.5t-90 12q-26 0 -54 -12.5t-58.5 -34t-62.5 -50t-66 -60.5l-150 -717h-188z" />
<glyph unicode="&#x453;" horiz-adv-x="891" d="M25 227q0 48 28 95t74 89.5t105.5 78t121.5 61.5q75 29 134 60t100.5 64t63.5 67t22 69q0 18 -5 36t-17.5 32.5t-34 23t-54.5 8.5q-29 0 -55 -6.5t-51 -20.5t-51.5 -36t-57.5 -53l-67 61q66 86 150 121t187 35q57 0 102.5 -17t77.5 -44.5t49 -64t17 -75.5 q0 -52 -29.5 -94.5t-85.5 -81t-137 -75.5t-184 -79q-44 -18 -82.5 -46.5t-67 -62.5t-45 -71.5t-16.5 -73.5q0 -26 9 -53t26 -49.5t41 -36.5t55 -14q82 0 152.5 41.5t148.5 126.5l96 -43q-87 -104 -192.5 -164t-239.5 -60q-58 0 -110.5 15.5t-92 47t-62.5 78.5t-23 111z M402 1128l279 320q10 12 21 21t24.5 16t31 10.5t40.5 3.5q27 0 46.5 -8t32 -20.5t19 -28.5t6.5 -31q0 -29 -13 -48.5t-36 -35.5l-307 -199h-144z" />
<glyph unicode="&#x454;" horiz-adv-x="942" d="M63 383q0 131 50.5 246t137.5 200t202.5 134t246.5 49q73 0 142 -15t137 -36l-47 -236h-92l6 125q1 22 -19 36.5t-47 22.5t-54 11.5t-42 3.5q-86 0 -153 -30t-117 -81t-83.5 -119.5t-51.5 -146.5h378l-16 -86h-381q-3 -29 -5.5 -57.5t-2.5 -57.5q0 -137 66 -208.5 t206 -71.5q41 0 70 3t49 9q17 6 33 17.5t22 27.5q7 21 16 46q8 21 18 47t22 54h90l-49 -241q-70 -25 -149.5 -39.5t-151.5 -14.5q-95 0 -174 28t-136 80.5t-89 128.5t-32 171z" />
<glyph unicode="&#x455;" horiz-adv-x="758" d="M-16 164q0 49 29.5 79.5t92.5 30.5q19 0 36 -5t31 -11.5t24.5 -14t15.5 -12.5l-39 -100q22 -31 54.5 -52.5t84.5 -21.5q31 0 60 12t51.5 34t35.5 53.5t13 70.5q0 31 -12.5 58.5t-35 53.5t-53 51.5t-67.5 53.5q-32 25 -61.5 54t-53 61.5t-37.5 68.5t-14 74q0 75 34 133 t87.5 97.5t119 59.5t128.5 20q58 0 97.5 -13.5t64 -33t35 -42t10.5 -40.5q0 -36 -16 -57.5t-39 -33.5t-48.5 -16.5t-44.5 -5.5l-92 125q-6 5 -19 10.5t-32 5.5q-34 0 -57 -14.5t-37.5 -36t-20.5 -46t-6 -44.5q0 -28 16 -56.5t42 -57t58.5 -56t65.5 -53.5q34 -27 65.5 -55.5 t56.5 -59t40 -64.5t15 -71q0 -63 -25.5 -121t-75 -103t-123 -71.5t-168.5 -26.5q-74 0 -128 16.5t-89 43t-52 60.5t-17 69z" />
<glyph unicode="&#x456;" horiz-adv-x="545" d="M53 889v59l309 64h84l-155 -819q-4 -21 0.5 -40t15 -33.5t27 -23t37.5 -8.5q18 0 42.5 6.5t49 15t45.5 16.5t31 11v-78q-12 -5 -44 -19t-75 -28.5t-90.5 -25.5t-89.5 -11q-53 0 -84 18t-46 47t-17 65t5 71l131 694zM279 1313q0 20 8.5 40t25 36.5t40.5 27t55 10.5 q29 0 51.5 -10t38.5 -26t24 -36.5t8 -41.5q0 -23 -8.5 -43.5t-24 -36.5t-38.5 -25.5t-53 -9.5q-63 0 -95 33.5t-32 81.5z" />
<glyph unicode="&#x457;" horiz-adv-x="545" d="M53 889v59l309 64h84l-155 -819q-4 -21 0.5 -40t15 -33.5t27 -23t37.5 -8.5q18 0 42.5 6.5t49 15t45.5 16.5t31 11v-78q-12 -5 -44 -19t-75 -28.5t-90.5 -25.5t-89.5 -11q-53 0 -84 18t-46 47t-17 65t5 71l131 694zM99 1311q0 22 9 42.5t24 36.5t35 25.5t42 9.5 q23 0 43.5 -9t36 -24t24.5 -35.5t9 -43.5t-9 -44t-24.5 -37t-36 -25t-43.5 -9q-22 0 -42 9t-35 25t-24 36t-9 43zM523 1313q0 21 9.5 41.5t25 36t36 25t41.5 9.5q23 0 43.5 -9t35.5 -24t23.5 -35.5t8.5 -43.5t-8.5 -44t-23.5 -37t-35.5 -25t-43.5 -9t-43.5 9t-35.5 25 t-24 37t-9 44z" />
<glyph unicode="&#x458;" horiz-adv-x="559" d="M-264 -360q0 19 6 34t15 26t18.5 19t17.5 13l205 -56q15 16 30.5 49t30.5 74.5t27 87.5t20 88l154 895l-172 19v59l309 64h76l-145 -848q-9 -51 -27 -118t-45.5 -137.5t-65 -138t-85.5 -121t-106 -86t-126 -32.5q-65 0 -101 31t-36 78zM291 1313q0 23 7.5 44t23.5 37.5 t40 26t56 9.5q31 0 54.5 -9.5t39.5 -26t24.5 -37.5t8.5 -44q0 -18 -9 -38.5t-26 -37.5t-40.5 -28t-51.5 -11q-56 0 -91.5 32.5t-35.5 82.5z" />
<glyph unicode="&#x459;" horiz-adv-x="1372" d="M-121 78q0 18 8.5 39t23 38t32.5 28.5t37 11.5l124 -107q13 11 24.5 25.5t22.5 35.5t22.5 48.5t23.5 64.5q10 31 20.5 76.5t24.5 99.5t33.5 113t46.5 117.5t63.5 113t85.5 99.5q44 40 86 65.5t81 40t74 20t66 5.5q18 0 41 -4t43 -9q24 -5 47 -12l-75 -399q26 12 61 23.5 t61 11.5q78 0 143 -17.5t111.5 -51t72.5 -84t26 -116.5q0 -101 -38 -173t-98.5 -118t-137 -67t-152.5 -21q-50 0 -104 14t-98.5 43.5t-73.5 74t-29 106.5q0 12 0.5 25.5t3.5 27.5l125 643q-28 -4 -55 -15q-23 -9 -51 -24.5t-52 -40.5q-41 -41 -73 -93.5t-57 -110t-44.5 -117 t-34.5 -114.5t-27.5 -102.5t-23.5 -80.5q-22 -67 -47.5 -112t-57.5 -72.5t-70.5 -39.5t-86.5 -12q-33 0 -60.5 8t-47 22t-30 32.5t-10.5 40.5zM766 209q0 -45 17 -74.5t42 -46t52.5 -23t48.5 -6.5q38 0 72 23.5t59.5 64t40 95t14.5 116.5q0 45 -9 78t-30 55t-56 33t-87 11 q-11 0 -27 -4t-32.5 -9.5t-31.5 -12t-24 -11.5l-43 -236q-6 -30 -6 -53z" />
<glyph unicode="&#x45a;" horiz-adv-x="1436" d="M39 889v59l309 64h82l-86 -461h354l64 319l-176 19v59l309 64h84l-84 -424q13 6 29 12t32.5 11.5t32.5 8.5t29 3q78 0 143 -17.5t111.5 -51t72 -84t25.5 -116.5q0 -101 -37.5 -173t-98 -118t-136.5 -67t-154 -21q-49 0 -103 14t-99 43.5t-74 74t-29 106.5q0 26 5.5 62.5 t12.5 72t14 64.5t9 41h-354l-86 -453h-191l164 870zM827 209q0 -45 17.5 -74.5t42 -46t52 -23t48.5 -6.5q39 0 73.5 23.5t59.5 64t39.5 95t14.5 116.5q0 45 -9 78t-30.5 55t-56.5 33t-87 11q-10 0 -25.5 -4t-32 -9.5t-31.5 -12t-23 -11.5q-7 -36 -16 -81t-17 -87t-13.5 -75 t-5.5 -46z" />
<glyph unicode="&#x45b;" horiz-adv-x="1073" d="M37 0l221 1075h-164v103h187l38 190l-182 18v62l320 61h82l-70 -331h213v-103h-233l-48 -227q31 34 73.5 64t91 52.5t101 35t103.5 12.5q56 0 99 -17.5t69.5 -52t34 -86.5t-7.5 -121l-113 -551q-6 -29 3 -48.5t24.5 -31t32.5 -16t26 -4.5q28 0 61 14t68 25l2 -72 q-13 -5 -45.5 -17t-72.5 -25.5t-82 -23.5t-74 -10q-19 0 -48 5.5t-54.5 20t-40.5 40.5t-7 68l125 604q9 40 -1.5 71t-29.5 51.5t-42 31t-40 10.5q-24 0 -58.5 -12t-73 -33t-77.5 -50.5t-73 -64.5l-150 -717h-188z" />
<glyph unicode="&#x45c;" horiz-adv-x="1020" d="M37 0l168 864l-160 29v53l317 66h62l-94 -486q50 0 87 13t66.5 36.5t52.5 57t46 74.5q19 36 35 70t34 65.5t41.5 61.5t57.5 59q32 27 70.5 39t76.5 12q56 0 87.5 -28.5t31.5 -70.5q0 -32 -26 -59.5t-60 -50.5l-154 69q-29 -26 -49.5 -57.5t-37.5 -66t-33.5 -69.5 t-37.5 -67q-24 -37 -52.5 -66.5t-57.5 -47.5q22 -11 46 -31t34 -39l129 -254q9 -20 25 -33.5t34 -13.5q20 0 47.5 16t54.5 37.5t50 44.5t35 37l30 -53q-8 -10 -25 -31.5t-40.5 -48t-52.5 -54t-60 -50.5t-63 -37.5t-62 -14.5q-32 0 -55.5 22.5t-38.5 53.5l-174 340 q-6 12 -14 20t-20.5 12.5t-31 6.5t-45.5 2l-86 -432h-188zM464 1128l279 320q10 12 21 21t24.5 16t31 10.5t40.5 3.5q27 0 46.5 -8t32 -20.5t19 -28.5t6.5 -31q0 -29 -13 -48.5t-36 -35.5l-307 -199h-144z" />
<glyph unicode="&#x45d;" horiz-adv-x="1079" d="M53 889v59l309 64h84l-163 -781q-6 -26 2.5 -49.5t25 -41t37.5 -28t41 -10.5q37 0 74.5 10.5t74.5 28.5t71 41.5t63 50.5l155 754h191l-164 -788q-7 -32 0 -53.5t21.5 -35.5t33 -20t35.5 -6q20 0 53 6t76 31v-72q-19 -11 -52.5 -24t-72.5 -24t-79.5 -18.5t-73.5 -7.5 q-58 0 -86 19.5t-38.5 45t-9.5 51.5t1 38q-81 -77 -169.5 -115.5t-191.5 -38.5q-71 0 -116 25t-68 63t-28 83t3 85l133 639zM423 1409q0 15 4.5 31t15 29t28 21.5t44.5 8.5q22 0 37.5 -4t27.5 -10.5t21.5 -16t18.5 -20.5l274 -320h-127l-297 195q-21 14 -34 34.5t-13 51.5z " />
<glyph unicode="&#x45e;" horiz-adv-x="1018" d="M-164 -334q0 23 10.5 44.5t29.5 38t45 26.5t56 12l119 -119q32 3 63 25.5t65.5 67.5t75.5 113t93 163q-2 12 -10 53.5t-19.5 101t-26 131.5t-30.5 146q-16 72 -33.5 144.5t-34 130.5t-29.5 95t-20 38l-186 14v51l28 9q20 7 44 14.5t51 16t51 15t43.5 11t28.5 4.5 q33 0 58 -15.5t44.5 -44.5t36 -69.5t31.5 -91.5q26 -91 54 -225.5t58 -299.5l312 746h59l170 -56v-47l-102 -63q-12 -12 -35 -44t-47.5 -72t-48 -82.5t-37.5 -74.5q-22 -49 -51.5 -119t-66 -150.5t-79.5 -167t-92 -169.5q-48 -81 -102.5 -159.5t-115.5 -140t-128.5 -99 t-140.5 -37.5q-56 0 -93 14t-59 34.5t-30.5 44t-8.5 42.5zM380 1296q0 19 7 39t19.5 36t30.5 26t39 10q7 0 18 -1.5t23 -3.5t22 -5t15 -6l33 -148q14 -12 38.5 -19t49.5 -7q41 0 74 16.5t58 40.5t42 50.5t26 47.5h70q-22 -51 -52 -95.5t-70 -77.5t-91 -52t-115 -19 q-42 0 -84.5 10t-76 31t-55 52.5t-21.5 74.5z" />
<glyph unicode="&#x45f;" horiz-adv-x="1079" d="M53 889v59l309 64h84l-163 -781q-6 -26 2.5 -49.5t25 -41t37.5 -28t41 -10.5q37 0 74.5 10.5t74.5 28.5t71 41.5t63 50.5l155 754h191l-164 -788q-7 -32 0 -53.5t21.5 -35.5t33 -20t35.5 -6q20 0 53 6t76 31v-72q-19 -11 -52.5 -24t-72.5 -24t-79.5 -18.5t-73.5 -7.5 q-58 0 -86 19.5t-38.5 45t-9.5 51.5t1 38q-45 -42 -91 -73q-55 -68 -76.5 -116t-21.5 -61q0 -9 7 -18t15.5 -22t15.5 -33.5t7 -51.5q0 -9 -8 -20t-21.5 -23t-30 -25t-34.5 -25q-41 -29 -94 -60l-21 45q19 15 35 30q13 13 24 27.5t11 28.5q0 13 -5.5 29.5t-12 33.5t-12 32.5 t-5.5 27.5q0 8 14.5 28t38.5 45.5t54 54.5q13 13 27 24q-82 -32 -177 -32q-71 0 -116 25t-68 63t-28 83t3 85l133 639z" />
<glyph unicode="&#x462;" horiz-adv-x="1391" d="M104 899l54 275h387l18 94q3 12 -5 26.5t-30 16.5l-137 8v88h570v-88l-140 -8q-21 -2 -34.5 -16.5t-16.5 -26.5l-18 -94h385l-54 -275h-112v143q0 16 -6.5 26.5t-22.5 10.5h-209l-51 -252q27 2 54 5q23 2 49.5 4t48.5 2q101 0 185.5 -20t145.5 -61.5t95 -104t34 -146.5 q0 -100 -25 -176.5t-69 -132.5t-105.5 -94t-135 -61t-156 -32.5t-168.5 -9.5h-492v88l146 8q21 2 34.5 16.5t16.5 26.5l186 940h-211q-14 0 -25 -10.5t-18 -26.5l-55 -143h-113zM539 102q16 -1 33 -2q14 -1 32 -1.5t37 -0.5q111 0 191.5 28t132.5 82t77 134.5t25 185.5 q0 115 -67 163t-203 48q-17 0 -39.5 -1.5t-43.5 -3.5q-25 -3 -50 -5z" />
<glyph unicode="&#x463;" horiz-adv-x="1384" d="M39 889v59l309 64h82l-10 -68h495l-69 -356q13 6 29 12t32.5 11.5t32.5 8.5t29 3q78 0 143 -17.5t111.5 -51t72 -84t25.5 -116.5q0 -101 -37.5 -173t-98.5 -118t-137 -67t-153 -21q-50 0 -104 14t-98.5 43.5t-73.5 74t-29 106.5q0 12 0.5 25.5t3.5 27.5l119 598h-310 l-159 -864h-191l160 870zM778 209q0 -45 17.5 -74.5t42 -46t52 -23t48.5 -6.5q38 0 72 23.5t59.5 64t40 95t14.5 116.5q0 45 -9 78t-30 55t-56.5 33t-88.5 11q-10 0 -25.5 -4t-32 -9.5t-31.5 -12t-24 -11.5l-43 -236q-6 -30 -6 -53z" />
<glyph unicode="&#x472;" horiz-adv-x="1454" d="M98 537q0 110 25 217t72.5 204t115 179t152 142t185 94t212.5 34q127 0 230 -43.5t175 -118.5t111 -176t39 -215q0 -108 -23 -215.5t-67 -206.5t-109 -183.5t-149.5 -147.5t-188 -98.5t-223.5 -35.5q-123 0 -225 40.5t-176 115.5t-115 180t-41 234zM330 520 q0 -104 26.5 -186.5t72 -140t107.5 -88.5t134 -31q91 0 171 49.5t143.5 132t109 188t67.5 218.5q-23 -26 -47.5 -50.5t-53.5 -43t-63.5 -29.5t-76.5 -11q-37 0 -70 11.5t-64 29.5t-61.5 38t-61.5 38t-64 29.5t-69 11.5q-32 0 -61.5 -9t-54.5 -23.5t-46 -32t-36 -35.5 q-2 -17 -2 -33v-33zM354 745q15 12 39.5 27.5t55.5 29.5t68 24t77 10q52 0 99.5 -24.5t92 -53.5t87 -53.5t85.5 -24.5q36 0 68 14t60 35.5t52 46.5t44 47v31q0 102 -25.5 185t-71 142.5t-108 91.5t-135.5 32q-90 0 -168 -46.5t-141 -124.5t-108.5 -179t-70.5 -210z" />
<glyph unicode="&#x473;" horiz-adv-x="1057" d="M63 362q0 83 18.5 163.5t53.5 152.5t84.5 133.5t110.5 106t133.5 69.5t152.5 25q74 0 142 -23t120.5 -72t83.5 -124t31 -179q0 -83 -19 -162.5t-54.5 -150.5t-85.5 -130.5t-111.5 -103t-133.5 -68t-151 -24.5q-84 0 -153.5 27t-118.5 77.5t-76 122t-27 160.5zM270 373 q0 -76 15.5 -133t42 -95.5t61.5 -57.5t74 -19q57 0 106 33.5t88 88.5t67.5 126.5t43.5 146.5q-12 -11 -28.5 -24t-37 -24.5t-44 -19.5t-48.5 -8q-29 0 -47.5 7t-32 17.5t-24 22.5t-23.5 22.5t-31 17.5t-46 7q-50 0 -82 -15.5t-52 -37.5q0 -14 -1 -27.5t-1 -27.5zM289 541 q15 12 30.5 21t35 14.5t43.5 8.5t55 3q41 0 62.5 -14.5t37.5 -31.5t33.5 -31.5t52.5 -14.5q26 0 47.5 7.5t38.5 19.5t31.5 27t27.5 30v43q0 73 -15 129t-41 94t-60.5 58t-73.5 20q-53 0 -101 -31t-87.5 -84t-69.5 -122.5t-47 -145.5z" />
<glyph unicode="&#x474;" horiz-adv-x="1462" d="M170 1288v86h465v-86l-88 -4q-25 -2 -34.5 -10.5t-6.5 -30.5l174 -991q105 251 191 436t158.5 315.5t134.5 213t119.5 129.5t114 64t118.5 17q48 0 76.5 -11.5t43.5 -29.5t19.5 -39.5t4.5 -42.5q0 -36 -18 -58t-39 -34q-25 -14 -56 -19l-139 119q-22 -7 -53 -30t-74 -77 t-100 -147t-131.5 -240t-168 -356t-209.5 -495h-156l-219 1276q-3 20 -13.5 29.5t-35.5 11.5z" />
<glyph unicode="&#x475;" horiz-adv-x="1147" d="M4 885v59l219 68q84 -2 122 -37.5t46 -108.5l60 -583q88 206 163.5 346t149.5 225t152 121.5t170 36.5q48 0 76.5 -11.5t43.5 -29.5t19.5 -39.5t4.5 -42.5q0 -36 -18 -58t-39 -34q-25 -14 -56 -19l-139 119q-22 -7 -46 -17.5t-55.5 -40t-73 -87t-98.5 -157.5t-132 -251 t-174 -369h-159q21 45 32 83.5t9 72.5q0 3 -2 30.5t-5.5 71t-8.5 99.5t-11 116t-12.5 120.5t-14 113t-15 93t-15.5 61.5q-10 21 -20 31t-27 10z" />
<glyph unicode="&#x48a;" horiz-adv-x="1458" d="M-41 0v88l127 8q22 2 35.5 16.5t15.5 26.5l217 1096q3 12 -5 26t-30 17l-106 8v88h532v-88l-131 -8q-23 -2 -36.5 -16.5t-16.5 -26.5l-160 -809l758 743l12 66q4 12 -3.5 26t-28.5 17l-117 8v88h520v-88l-110 -8q-23 -3 -37 -17t-17 -26l-215 -1096q-3 -12 5 -26.5 t28 -16.5l121 -8v-88l-116 -170q-22 -32 -42.5 -62.5t-36.5 -54.5q-19 -28 -36 -53q0 -1 -20.5 -0.5t-44.5 0.5h-65l231 340h-401v88l117 8q23 2 36.5 16.5t16.5 26.5l166 844l-757 -741l-21 -103q-2 -12 6.5 -26.5t30.5 -16.5l119 -8v-88h-541zM646 1708q0 21 7.5 43 t21.5 40t33.5 29t43.5 11q7 0 19 -1.5t25 -4.5t24 -6.5t16 -6.5l37 -161q16 -14 42 -21.5t54 -7.5q45 0 81.5 18.5t64.5 44.5t46.5 55.5t28.5 51.5h78q-24 -57 -57.5 -106t-77.5 -85t-99.5 -56.5t-125.5 -20.5q-47 0 -93.5 11t-84 34t-61 57.5t-23.5 81.5z" />
<glyph unicode="&#x48b;" horiz-adv-x="1079" d="M53 889v59l309 64h84l-163 -781q-6 -26 2.5 -49.5t25 -41t37.5 -28t41 -10.5q37 0 74.5 10.5t74.5 28.5t71 41.5t63 50.5l155 754h191l-164 -788q-7 -32 0 -53.5t21.5 -35.5t33 -20t35.5 -6q20 0 53 6t76 31v-72q-71 -100 -126 -179l-126 -180q0 -1 -18.5 -0.5t-41.5 0.5 h-60l216 303q-24 -6 -49 -10q-40 -8 -73 -8q-58 0 -86 19.5t-38.5 45t-9.5 51.5t1 38q-81 -77 -169.5 -115.5t-191.5 -38.5q-71 0 -116 25t-68 63t-28 83t3 85l133 639zM409 1296q0 19 7 39t19.5 36t30.5 26t39 10q7 0 18 -1.5t23 -3.5t22 -5t15 -6l33 -148q14 -12 38.5 -19 t49.5 -7q41 0 74 16.5t58 40.5t42 50.5t26 47.5h70q-22 -51 -52 -95.5t-70 -77.5t-91 -52t-115 -19q-42 0 -84.5 10t-76 31t-55 52.5t-21.5 74.5z" />
<glyph unicode="&#x48c;" horiz-adv-x="1163" d="M-55 0v88l143 8q22 2 35.5 16.5t15.5 26.5l224 1132h-188v103h209l28 142h207l-28 -142h195v-103h-216l-83 -423q27 2 54 5q23 2 49 3.5t49 1.5q100 0 184 -22.5t145 -66.5t94.5 -109t33.5 -150q0 -101 -24.5 -178t-69 -133.5t-106 -95t-135 -61.5t-156.5 -32.5 t-171 -9.5h-489zM340 102q15 -1 32 -2q14 -1 32 -1.5t38 -0.5q113 0 193.5 28t132.5 83t76 136t24 187q0 118 -65.5 173t-202.5 55q-17 0 -39.5 -1.5t-43.5 -3.5q-25 -3 -50 -5z" />
<glyph unicode="&#x48d;" horiz-adv-x="889" d="M38 885v102h201l29 144h188l-29 -144h194v-102h-214l-59 -297q13 6 29 12t32.5 11.5t32.5 8.5t29 3q78 0 143 -17.5t111.5 -51t72 -84t25.5 -116.5q0 -101 -37.5 -173t-98.5 -118t-137 -67t-153 -21q-49 0 -103 14t-99 43.5t-74 74t-29 106.5q0 12 1 25.5t3 27.5l123 619 h-181zM281 209q0 -45 17 -74.5t42 -46t52 -23t48 -6.5q39 0 73 23.5t59.5 64t40 95t14.5 116.5q0 45 -9 78t-30 55t-56.5 33t-87.5 11q-10 0 -25.5 -4t-32 -9.5t-31.5 -12t-23 -11.5l-45 -236q-6 -30 -6 -53z" />
<glyph unicode="&#x48e;" horiz-adv-x="1159" d="M-35 0v86l119 10q40 3 49 39l215 1102q3 17 -5 28t-36 13l-114 10v86h509q126 0 214.5 -24.5t145 -68t82 -103.5t25.5 -131q0 -84 -22 -157t-62.5 -133t-98.5 -106.5t-129 -77.5l75 -163l-94 -43l-79 172q-99 -27 -214 -27q-16 0 -38 0.5t-42 1.5q-24 1 -49 2l-76 -381 q-3 -15 5 -26t36 -13l117 -10v-86h-533zM434 623q69 -7 139.5 0.5t133.5 30.5l-69 151l94 43l66 -146q69 47 113.5 123t44.5 187q0 59 -16.5 108t-54 84t-98 54.5t-148.5 19.5q-19 0 -40.5 -1t-37.5 -3z" />
<glyph unicode="&#x48f;" horiz-adv-x="1012" d="M-197 -369l107 11q43 3 49 41l231 1187l-172 19v59l310 64h80l-25 -127q26 17 59.5 39t71.5 41.5t79.5 33t84.5 13.5q78 0 129.5 -33.5t82 -87.5t43.5 -122t13 -136q0 -94 -25 -184.5t-71 -169.5t-110.5 -143t-143.5 -104l76 -166l-94 -43l-78 172q-69 -20 -140 -20 q-46 0 -83 13t-62 24l-65 -329q-4 -17 4.5 -27.5t35.5 -13.5l129 -11v-77h-516v77zM238 133q9 -5 25.5 -15.5t38.5 -20.5t47 -17.5t52 -7.5q29 0 59 8l-82 181l94 43l80 -175q47 39 82.5 97t59.5 125.5t36.5 138.5t12.5 135q0 45 -9.5 91.5t-29 84.5t-49.5 62t-71 24 q-37 0 -74 -16.5t-67.5 -37t-52.5 -40t-30 -25.5z" />
<glyph unicode="&#x490;" horiz-adv-x="981" d="M-51 0v88l139 8q22 2 35.5 16.5t15.5 26.5l217 1096q3 12 -5 26t-29 17l-119 8v88h712q13 0 30 9.5t22 23.5l82 240h106l-76 -377h-510l-223 -1131q-2 -12 5.5 -26.5t29.5 -16.5l131 -8v-88h-563z" />
<glyph unicode="&#x491;" horiz-adv-x="763" d="M53 864v62l309 61h263q9 0 23.5 7t17.5 18l63 176h84l-57 -299h-328l-173 -889h-192l166 846z" />
<glyph unicode="&#x492;" horiz-adv-x="1081" d="M-51 0v88l139 8q22 2 35.5 16.5t15.5 26.5l105 529h-189l21 102h188l92 465q3 12 -5 26t-29 17l-119 8v88h997l-74 -377h-106l12 240q1 13 -12.5 23t-26.5 10h-424l-98 -500h311l-20 -102h-311l-105 -529q-2 -12 5.5 -26.5t29.5 -16.5l111 -8v-88h-543z" />
<glyph unicode="&#x493;" horiz-adv-x="891" d="M25 227q0 37 17 73.5t47 71t70 66.5t86 59h-164v84h345q118 53 183 110.5t65 119.5q0 18 -5 36t-17.5 32.5t-34 23t-54.5 8.5q-29 0 -55 -6.5t-51 -20.5t-51.5 -36t-57.5 -53l-67 61q66 86 150 121t187 35q57 0 102.5 -17t77.5 -44.5t49 -64t17 -75.5q0 -71 -54.5 -125 t-154.5 -105h192v-84h-380q-10 -5 -19.5 -8.5t-19.5 -7.5q-44 -18 -82.5 -46.5t-67 -62.5t-45 -71.5t-16.5 -73.5q0 -26 9 -53t26 -49.5t41 -36.5t55 -14q82 0 152.5 41.5t148.5 126.5l96 -43q-87 -104 -192.5 -164t-239.5 -60q-58 0 -110.5 15.5t-92 47t-62.5 78.5t-23 111 z" />
<glyph unicode="&#x494;" horiz-adv-x="1231" d="M-51 0v88l139 8q22 2 35.5 16.5t15.5 26.5l215 1096q3 17 -6.5 29t-28.5 14l-106 8v88h938l-64 -319h-112l8 184q2 14 -4.5 26.5t-22.5 12.5h-344q-21 0 -34.5 -15.5t-16.5 -27.5l-77 -391q21 3 47 7q22 2 51.5 4.5t64.5 2.5q110 0 188.5 -27t131.5 -73t82.5 -107.5 t41 -131t8 -142t-16.5 -141.5q-24 -125 -66 -222t-97 -168.5t-120.5 -120t-135 -77.5t-141 -41t-139 -10t-129 15.5t-110.5 34.5q1 24 3 42q1 16 2 30t1 16q118 -44 232 -40t210 58.5t165.5 161t97.5 267.5q22 126 21.5 232t-28.5 183t-86.5 120t-153.5 43q-32 0 -57.5 -2.5 t-45.5 -4.5q-23 -4 -41 -7l-118 -607q-2 -12 5.5 -26.5t29.5 -16.5l111 -8v-88h-543z" />
<glyph unicode="&#x495;" horiz-adv-x="1008" d="M112 -307q16 -5 35.5 -8t38 -5.5t34.5 -3.5t27 -1q67 0 133 22t123.5 71t102 128t67.5 193q18 88 16 167.5t-24.5 139.5t-67 95t-111.5 35q-18 0 -41 -2.5t-40 -4.5q-17 -84 -30.5 -151t-24 -119t-18 -90.5t-13.5 -66.5q-13 -65 -19 -92h-187q9 40 31 147q9 45 21.5 110 t30 153t39.5 201.5t49 256.5q2 11 -3.5 21t-22.5 10l-86 6v80h758l-53 -259h-77l1 136q1 11 -8.5 18t-17.5 7h-297l-55 -277q19 2 45.5 4.5t52.5 2.5q97 0 172 -40t122.5 -106.5t64.5 -153t-2 -178.5q-29 -139 -90.5 -242t-141.5 -171.5t-170.5 -102t-176.5 -33.5 q-48 0 -92 8.5t-92 21.5z" />
<glyph unicode="&#x496;" horiz-adv-x="1825" d="M-88 0v88l168 10l375 457q34 42 83 71t111 40q-38 31 -62.5 74.5t-41.5 111.5q-14 51 -16.5 103.5t-6.5 103t-16 97t-45 87.5l-230 -88q-29 29 -40 63.5t-11 69.5q0 24 17 45.5t44.5 38t62.5 26t71 9.5q52 0 98.5 -16.5t75.5 -53.5q30 -36 45.5 -75.5t22.5 -80t9.5 -82 t5.5 -83t10 -81.5t24 -77q15 -32 25.5 -57.5t28 -44.5t46 -29t78.5 -10l102 516q3 14 -5 27.5t-30 15.5l-110 10v88h528v-88l-125 -10q-21 -2 -34.5 -15.5t-16.5 -27.5l-102 -516q51 0 83.5 10t57 29t45.5 44.5t47 57.5q48 56 77.5 117.5t58.5 124t67 123t104 114.5 q45 37 96.5 53.5t104.5 16.5q36 0 63.5 -9.5t46 -26t28 -38t9.5 -45.5q0 -18 -8 -35.5t-22 -34t-32.5 -32.5t-39.5 -31l-195 88q-49 -41 -79.5 -87.5t-54.5 -97t-46.5 -103t-56.5 -103.5q-45 -68 -89.5 -115t-90.5 -71q52 -14 93 -43.5t58 -67.5l195 -457l139 -10l-100 -508 h-105q15 78 22 153t-5.5 134.5t-49 96t-106.5 36.5v66l-213 475q-17 35 -46.5 51.5t-76.5 19.5l-92 -471q-3 -14 4 -27.5t29 -15.5l104 -10v-88h-528v88l131 10q22 2 35.5 15.5t15.5 27.5l94 471q-48 -3 -84 -19.5t-65 -51.5l-402 -475v-66h-360z" />
<glyph unicode="&#x497;" horiz-adv-x="1880" d="M66 119q0 20 6 41t23.5 39.5t48 32.5t79.5 20l99 -158q46 0 83.5 26.5t67.5 69.5t52 98t36.5 111.5t21.5 110.5t7 96q0 50 -10.5 99t-31.5 87.5t-51 62.5t-69 24q-41 0 -79.5 -14.5t-77.5 -41t-79 -62.5t-83 -79v129q31 31 69 66t84.5 65t102.5 50t124 20q61 0 115 -25.5 t94.5 -74t64 -119.5t23.5 -162q0 -20 -1 -38.5t-3 -37.5h74l86 432h191l-86 -432h75q30 100 84.5 183.5t121.5 144.5t139.5 95t138.5 34q55 0 94.5 -14t65 -35t37.5 -46.5t12 -48.5q0 -20 -6.5 -41t-23.5 -39t-48 -32.5t-80 -20.5l-98 158q-46 0 -84 -26.5t-68 -69.5 t-52 -98t-36.5 -111.5t-21.5 -111t-7 -95.5q0 -50 10.5 -98.5t31.5 -87t51 -62.5t69 -24q41 0 79.5 14.5t77.5 40.5t79 62t84 79v-129q-30 -29 -65.5 -62.5t-79 -62.5t-95.5 -49.5t-115 -24.5q-5 -10 -11.5 -24t-12.5 -28.5t-10.5 -27t-4.5 -18.5q0 -9 7 -18t15.5 -22 t15.5 -33.5t7 -51.5q0 -9 -8 -20t-21.5 -23t-30 -25t-34.5 -25q-41 -29 -94 -60l-21 45q19 15 35 30q13 13 24 27.5t11 28.5q0 13 -5.5 29.5t-12 33.5t-12 32.5t-5.5 27.5q0 8 10.5 24t26 34.5t33 36.5t31.5 30q-54 7 -101 35.5t-81.5 76.5t-54 114t-19.5 150q0 25 1.5 49.5 t6.5 47.5h-78l-90 -453h-191l93 453h-74q-28 -104 -82 -191.5t-121.5 -151.5t-142 -99.5t-142.5 -35.5q-55 0 -94.5 14t-64.5 35t-37 46.5t-12 48.5z" />
<glyph unicode="&#x498;" horiz-adv-x="1118" d="M-18 39l61 321h125l-8 -186q-1 -19 13 -34t36 -27.5t49.5 -22t53.5 -15.5t48.5 -9t34.5 -3q79 0 154.5 29t134 80.5t94 121.5t35.5 152q0 58 -24 97.5t-62 64t-86.5 35t-97.5 10.5q-28 0 -61.5 -1t-59.5 -7l22 121l62 -2q71 -2 139 20t121.5 64.5t86 105t32.5 140.5 q0 51 -20.5 90.5t-54 65.5t-77.5 39.5t-92 13.5q-26 0 -66 -9t-79.5 -25t-72 -39t-42.5 -50l-68 -187h-123l62 312q58 26 113 45t110.5 32t113 19t120.5 6q65 0 133.5 -15.5t125 -50t92.5 -88.5t36 -131q0 -81 -38 -146.5t-98 -115t-132.5 -84t-141.5 -53.5q61 -4 119.5 -22 t105 -52t75 -84.5t28.5 -118.5q0 -79 -22 -143t-60 -114.5t-90 -88.5t-113 -64t-127.5 -42t-133.5 -22q21 -26 37 -58t24 -68t6 -74.5t-17 -78.5q-14 -38 -37.5 -64t-53 -41.5t-62 -22.5t-65.5 -7q-28 0 -55 4t-50 10l26 117q17 -5 34.5 -8t37.5 -3q34 0 64 16.5t43 53.5 q12 33 13 63t-5.5 57.5t-19 52.5t-28.5 46q-51 1 -98.5 6.5t-93.5 15t-92 22.5t-94 28z" />
<glyph unicode="&#x499;" horiz-adv-x="907" d="M-33 27l47 231h99v-115q0 -13 11.5 -23.5t30 -19t40.5 -15t43 -11t38.5 -6.5t26.5 -2q59 0 112.5 16.5t94 49t64.5 80.5t24 112q0 39 -17 65.5t-44.5 42t-62 22.5t-68.5 7q-25 0 -47.5 -1.5t-41.5 -6.5l21 106l41 -2q54 -2 102 11.5t84.5 43t58 73.5t21.5 103 q0 39 -14.5 64.5t-38.5 41t-55 22t-64 6.5q-18 0 -49.5 -6t-63.5 -17.5t-58.5 -27.5t-35.5 -37l-47 -119h-98l45 223q91 37 177.5 55.5t184.5 18.5q48 0 103 -11t102.5 -35.5t79 -64.5t31.5 -98q0 -60 -24.5 -107t-64.5 -82.5t-91 -59t-103 -36.5q44 -2 85 -13.5t72.5 -34.5 t50.5 -58t19 -84q0 -90 -36.5 -153t-95.5 -104t-133.5 -62.5t-150.5 -28.5q22 -26 39.5 -59t26 -69.5t7 -77t-16.5 -81.5q-14 -38 -37.5 -64t-53 -41.5t-62 -22.5t-65.5 -7q-28 0 -55 4t-50 10l26 117q17 -5 34.5 -8t37.5 -3q34 0 64 16.5t43 53.5q13 34 13.5 66t-7 60.5 t-21.5 54t-31 46.5q-77 2 -149.5 16t-147.5 36z" />
<glyph unicode="&#x49a;" horiz-adv-x="1309" d="M-31 0v88l117 10q22 2 35 15.5t16 27.5l215 1092q3 14 -4 27.5t-29 15.5l-110 10v88h539v-88l-136 -10q-21 -2 -35.5 -15.5t-17.5 -27.5l-100 -516q100 0 179 39t132 102q48 56 79 117.5t62 124t70.5 123t105.5 114.5q45 37 97 53.5t104 16.5q72 0 110 -27t38 -92 q0 -35 -30.5 -69.5t-72.5 -63.5l-194 88q-49 -41 -81.5 -87.5t-58 -97t-50 -103t-58.5 -103.5q-23 -34 -50 -65t-56 -56.5t-58 -45t-55 -30.5q55 -3 90 -21t53 -59l242 -477l145 -10l-98 -508h-105q21 104 19.5 182.5t-22 131.5t-58.5 79.5t-90 26.5l12 66l-242 475 q-8 18 -28.5 30.5t-46.5 21t-54.5 13t-52.5 6.5l-92 -471q-3 -14 5 -27.5t30 -15.5l123 -10v-88h-533z" />
<glyph unicode="&#x49b;" horiz-adv-x="1020" d="M37 0l168 864l-160 29v53l317 66h62l-94 -486q50 0 87 13t66.5 36.5t52.5 57t46 74.5q19 36 35 70t34 65.5t41.5 61.5t57.5 59q32 27 70.5 39t76.5 12q56 0 87.5 -28.5t31.5 -70.5q0 -32 -26 -59.5t-60 -50.5l-154 69q-29 -26 -49.5 -57.5t-37.5 -66t-33.5 -69.5 t-37.5 -67q-24 -37 -52.5 -66.5t-57.5 -47.5q22 -11 46 -31t34 -39l129 -254q9 -20 25 -33.5t34 -13.5q20 0 47.5 16t54.5 37.5t50 44.5t35 37l30 -53q-11 -14 -37.5 -47t-63.5 -69.5t-80 -68.5t-85 -44q-4 -9 -11 -23.5t-13.5 -30t-11.5 -29.5t-5 -20q0 -9 7 -18t15.5 -22 t15.5 -33.5t7 -51.5q0 -9 -8 -20t-21.5 -23t-30 -25t-34.5 -25q-41 -29 -94 -60l-21 45q19 15 35 30q13 13 24 27.5t11 28.5q0 13 -5.5 29.5t-12 33.5t-12 32.5t-5.5 27.5q0 8 11 24.5t27.5 35.5t34.5 37t32 30q-22 8 -38 27t-28 42l-174 340q-6 12 -14 20t-20.5 12.5 t-31 6.5t-45.5 2l-86 -432h-188z" />
<glyph unicode="&#x49c;" horiz-adv-x="1409" d="M-31 0v88l117 10q22 2 35 15.5t16 27.5l215 1092q3 14 -4 27.5t-29 15.5l-110 10v88h539v-88l-136 -10q-21 -2 -35.5 -15.5t-17.5 -27.5l-100 -516q34 0 73.5 4.5t81.5 13.5l84 434h125l-78 -393q41 17 73 38t52 44q32 37 56 77t44.5 81.5t40.5 83t45 82t56.5 80 t75.5 75.5q45 37 96.5 53.5t104.5 16.5q72 0 109.5 -34.5t37.5 -84.5q0 -18 -8 -35.5t-22 -34t-32.5 -32.5t-39.5 -31l-195 88q-49 -41 -81.5 -87.5t-58 -97t-50 -103t-58.5 -103.5q-45 -68 -96.5 -116.5t-103.5 -69.5q54 -14 81.5 -37t42.5 -54l240 -477l141 -10v-88h-335 v66l-242 475q-7 10 -17 16l-71 -367h-125l80 404q-44 8 -85.5 12t-64.5 6l-92 -471q-3 -14 5 -27.5t30 -15.5l123 -10v-88h-533z" />
<glyph unicode="&#x49d;" horiz-adv-x="1090" d="M37 0l168 864l-160 29v53l317 66h62l-94 -486q26 0 51.5 4t50.5 11l53 268h101l-43 -217q34 22 61 51.5t45 63.5q19 36 35.5 70t35 65.5t42 61.5t57.5 59q32 27 70.5 39t77.5 12q55 0 86.5 -28.5t31.5 -70.5q0 -32 -26 -59.5t-60 -50.5l-151 69q-39 -50 -64.5 -92.5 t-43 -76t-29.5 -56.5t-23 -35q-29 -32 -54.5 -64t-55.5 -50q29 -13 49.5 -32t29.5 -38l129 -254q10 -20 25.5 -33.5t34.5 -13.5q20 0 47 16t54 37.5t50 44.5t35 37l31 -53q-8 -10 -25 -31.5t-41 -48t-52.5 -54t-60 -50.5t-63 -37.5t-61.5 -14.5q-31 0 -55 22.5t-39 53.5 l-166 326l-43 -223h-101l54 272q-47 6 -99 6l-86 -432h-188z" />
<glyph unicode="&#x49e;" horiz-adv-x="1309" d="M-31 0v88l117 10q22 2 35 15.5t16 27.5l164 836h-155v103h176l30 153q3 14 -4 27.5t-29 15.5l-110 10v88h539v-88l-136 -10q-21 -2 -35.5 -15.5t-17.5 -27.5l-30 -153h190v-103h-210l-50 -260q100 0 179 39t132 102q48 56 79 117.5t62 124t70.5 123t105.5 114.5 q45 37 97 53.5t104 16.5q72 0 110 -34.5t38 -84.5q0 -35 -30.5 -69.5t-72.5 -63.5l-194 88q-49 -41 -81.5 -87.5t-58 -97t-50 -103t-58.5 -103.5q-45 -68 -96.5 -116.5t-104.5 -69.5q54 -14 82 -37t43 -54l242 -477l139 -10v-88h-336v66l-242 475q-8 18 -28.5 30.5t-46.5 21 t-54.5 13t-52.5 6.5l-92 -471q-3 -14 5 -27.5t30 -15.5l123 -10v-88h-533z" />
<glyph unicode="&#x49f;" horiz-adv-x="1020" d="M37 0l211 1075h-164v103h187l38 190l-182 18v62l320 61h82l-70 -331h213v-103h-233l-109 -549q50 0 87 13t66.5 36.5t52.5 57t46 74.5q19 36 35 70t34 65.5t41.5 61.5t57.5 59q32 27 70.5 39t76.5 12q56 0 87.5 -28.5t31.5 -70.5q0 -32 -26 -59.5t-60 -50.5l-154 69 q-29 -26 -49.5 -57.5t-37.5 -66t-33.5 -69.5t-37.5 -67q-24 -37 -52.5 -66.5t-57.5 -47.5q22 -11 46 -31t34 -39l129 -254q9 -20 25 -33.5t34 -13.5q20 0 47.5 16t54.5 37.5t50 44.5t35 37l30 -53q-8 -10 -25 -31.5t-40.5 -48t-52.5 -54t-60 -50.5t-63 -37.5t-62 -14.5 q-32 0 -55.5 22.5t-38.5 53.5l-174 340q-6 12 -14 20t-20.5 12.5t-31 6.5t-45.5 2l-86 -432h-188z" />
<glyph unicode="&#x4a0;" horiz-adv-x="1509" d="M135 1061l60 313h753v-88l-136 -10q-21 -2 -35.5 -15.5t-17.5 -27.5l-100 -516q100 0 179 39t132 102q48 56 79 117.5t62 124t70.5 123t105.5 114.5q45 37 97 53.5t104 16.5q72 0 110 -34.5t38 -84.5q0 -35 -30.5 -69.5t-72.5 -63.5l-194 88q-49 -41 -81.5 -87.5t-58 -97 t-50 -103t-58.5 -103.5q-45 -68 -96.5 -116.5t-104.5 -69.5q54 -14 82 -37t43 -54l242 -477l139 -10v-88h-336v66l-242 475q-8 18 -28.5 30.5t-46.5 21t-54.5 13t-52.5 6.5l-92 -471q-3 -14 5 -27.5t30 -15.5l123 -10v-88h-533v88l117 10q22 2 35 15.5t16 27.5l227 1141 h-185q-39 0 -51 -41l-64 -180h-129z" />
<glyph unicode="&#x4a1;" horiz-adv-x="1214" d="M34 716l55 269h454l-89 -459q50 0 87 13t66.5 36.5t52.5 57t46 74.5q19 36 35 70t34 65.5t41.5 61.5t57.5 59q32 27 70.5 39t76.5 12q56 0 87.5 -28.5t31.5 -70.5q0 -32 -26 -59.5t-60 -50.5l-154 69q-29 -26 -49.5 -57.5t-37.5 -66t-33.5 -69.5t-37.5 -67 q-24 -37 -52.5 -66.5t-57.5 -47.5q22 -11 46 -31t34 -39l129 -254q9 -20 25 -33.5t34 -13.5q20 0 47.5 16t54.5 37.5t50 44.5t35 37l30 -53q-8 -10 -25 -31.5t-40.5 -48t-52.5 -54t-60 -50.5t-63 -37.5t-62 -14.5q-32 0 -55.5 22.5t-38.5 53.5l-174 340q-6 12 -14 20 t-20.5 12.5t-31 6.5t-45.5 2l-86 -432h-188l174 887h-131q-8 0 -20 -7t-16 -18l-57 -146h-77z" />
<glyph unicode="&#x4a2;" horiz-adv-x="1485" d="M-31 0v88l115 8q22 2 36 16t17 29l217 1092q3 15 -6 28t-31 15l-104 8v90h528v-90l-129 -8q-21 -2 -34.5 -15t-16.5 -28l-92 -461h635l90 461q3 15 -4 28t-29 15l-117 8v90h527v-90l-117 -8q-22 -2 -36 -15t-17 -28l-217 -1092q-3 -15 6 -29t31 -16l102 -8l-98 -508h-105 q22 109 12.5 188.5t-46.5 131t-99.5 76t-146.5 24.5h-39v88l127 8q21 2 34.5 16t16.5 29l104 529h-632l-107 -529q-3 -15 5 -29t30 -16l108 -8v-88h-518z" />
<glyph unicode="&#x4a3;" horiz-adv-x="1137" d="M39 889v59l309 64h82l-86 -461h418l84 436h188l-149 -794q-5 -21 -1 -40t15 -33.5t28 -23t38 -8.5q18 0 42.5 6.5t49 15t45.5 16.5t31 11v-78q-11 -5 -39.5 -16.5t-66 -25t-81 -25t-84.5 -15.5q-5 -10 -11.5 -24t-12.5 -28.5t-10.5 -27t-4.5 -18.5q0 -9 7 -18t15.5 -22 t15.5 -33.5t7 -51.5q0 -9 -8 -20t-21.5 -23t-30 -25t-34.5 -25q-41 -29 -94 -60l-21 45q19 15 35 30q13 13 24 27.5t11 28.5q0 13 -5.5 29.5t-12 33.5t-12 32.5t-5.5 27.5q0 8 10.5 24t26 34.5t33 36.5t31.5 30q-39 6 -63 25.5t-35 46.5t-12 59.5t5 64.5l53 277h-417 l-86 -453h-191l164 870z" />
<glyph unicode="&#x4a4;" horiz-adv-x="1733" d="M-31 0v86l117 10q42 3 51 39l213 1102q3 17 -5 28t-36 13l-114 10v86h532v-86l-121 -10q-18 -2 -32 -11.5t-17 -29.5l-90 -467h639l90 467q3 17 -5 28t-36 13l-117 10v86h781l-63 -313h-129l8 180q3 41 -39 41h-186l-220 -1147q-3 -15 5 -26t36 -13l115 -10v-86h-535v86 l123 10q18 2 32 11.5t17 27.5l102 533h-639l-102 -533q-3 -15 5 -26t34 -13l119 -10v-86h-533z" />
<glyph unicode="&#x4a5;" horiz-adv-x="1299" d="M39 889v59l309 64h82l-86 -461h418l84 436h453l-55 -269h-77l3 146q2 11 -8 18t-18 7h-129l-130 -696q-5 -21 -1 -40t15 -33.5t28 -23t38 -8.5q18 0 42.5 6.5t49 15t45.5 16.5t31 11v-78q-12 -5 -45 -19t-76 -28.5t-91 -25.5t-90 -11q-52 0 -83 18t-46 47t-16.5 65 t4.5 71l53 277h-417l-86 -453h-191l164 870z" />
<glyph unicode="&#x4a6;" horiz-adv-x="1995" d="M-43 0v88l129 8q22 2 35 16.5t16 26.5l215 1096q3 12 -4 26t-29 17l-106 8v88h1276v-88l-121 -8q-21 -3 -35 -17t-16 -26l-77 -391q20 3 46 7q22 2 51.5 4.5t64.5 2.5q110 0 188.5 -27t131.5 -73t82.5 -107.5t41 -131t8 -142t-16.5 -141.5q-24 -125 -66 -222t-97 -168.5 t-120.5 -120t-135 -77.5t-141 -41t-139 -10t-129 15.5t-110.5 34.5q1 24 3 42q1 16 2 30t1 16q118 -44 232 -40t210 58.5t165.5 161t97.5 267.5q22 126 21.5 232t-28.5 183t-86.5 120t-153.5 43q-32 0 -58 -2.5t-45 -4.5q-22 -4 -40 -7l-120 -607q-3 -12 5 -26t30 -17l98 -8 v-88h-530v88l139 8q22 2 35 16.5t16 26.5l215 1088q3 14 -5 28.5t-30 14.5h-463q-21 0 -34.5 -14.5t-16.5 -28.5l-215 -1088q-3 -12 5 -26.5t30 -16.5l108 -8v-88h-530z" />
<glyph unicode="&#x4a7;" horiz-adv-x="1519" d="M47 0l178 870l-172 19v59l309 64h82l-38 -191q34 34 78 68.5t94 61.5t103.5 44t104.5 17q112 0 159.5 -62t23.5 -200l-28 -147q15 2 34 4.5t39 4.5t38.5 3.5t32.5 1.5q97 0 171 -39t119.5 -104.5t60.5 -152t-4 -182.5q-30 -144 -90 -248t-138 -170.5t-166.5 -98.5 t-174.5 -32q-48 0 -92.5 8.5t-92.5 21.5l-2 73q16 -5 35 -8t37.5 -5.5t35 -3.5t27.5 -1q66 0 131 22t120.5 71t98.5 128t66 193q16 82 16 160.5t-20.5 140t-63 99t-109.5 37.5q-10 0 -26 -1.5t-33.5 -3.5t-35.5 -4.5t-32 -4.5l-97 -512h-206l144 725q7 41 0.5 68t-21 43.5 t-33.5 23t-36 6.5q-25 0 -61.5 -14.5t-77 -38.5t-81.5 -56.5t-75 -68.5l-141 -688h-191z" />
<glyph unicode="&#x4a8;" horiz-adv-x="1548" d="M119 401.5q-30 131.5 0 286.5q19 100 59.5 192t98.5 172t131.5 145.5t158.5 112t179.5 72t194.5 25.5l7 -83q-75 -3 -144 -28.5t-130 -69t-113.5 -102.5t-94 -128.5t-71.5 -147.5t-45 -160q-24 -123 -11 -233.5t58.5 -193.5t123 -132t184.5 -49q62 0 119 15 q-44 45 -77 103.5t-51 129t-20 153t16 175.5q21 111 56.5 201.5t80 162t96 124.5t105 87.5t106.5 51.5t100 17q76 0 144 -36.5t113.5 -112t60 -191t-15.5 -274.5q-17 -91 -52.5 -176t-85.5 -160.5t-113.5 -139t-136.5 -112.5q40 -18 89 -18q55 0 120 26t126 79l36 -65 q-75 -76 -158.5 -114.5t-186.5 -38.5q-26 0 -55 3t-57.5 8.5t-55.5 14t-49 19.5q-30 -11 -64 -19.5t-69 -14t-70 -8.5t-68 -3q-148 0 -266.5 54.5t-195.5 151.5t-107 228.5zM915.5 542.5q1.5 -67.5 15 -131t37.5 -120.5t55 -101q49 40 94 93t82 116t64.5 135t42.5 150 q24 128 28 223t-9 158t-41.5 94t-67.5 31t-80 -31.5t-79.5 -95t-72 -160.5t-58.5 -228q-12 -65 -10.5 -132.5z" />
<glyph unicode="&#x4a9;" horiz-adv-x="1255" d="M74 494q21 108 75.5 202.5t133.5 164.5t177 110.5t206 40.5l5 -78q-76 -3 -139 -39t-111 -96t-81 -138.5t-50 -166.5q-17 -89 -7 -166t42 -134.5t84 -90.5t118 -33q37 0 75 12q-70 60 -99.5 161t-4.5 228q15 80 42.5 145.5t62.5 117t75 89.5t81.5 63t81.5 37t74 12 q55 0 108 -26.5t90 -80.5t52 -137.5t-7 -197.5q-12 -63 -36 -123t-59 -113t-80.5 -98t-99.5 -78q28 -11 60 -11q19 0 43.5 5t50.5 14.5t51.5 23.5t47.5 33l26 -61q-54 -55 -122.5 -82.5t-142.5 -27.5q-39 0 -87.5 8.5t-84.5 25.5q-46 -17 -103.5 -25.5t-106.5 -8.5 q-107 0 -197 39.5t-151.5 109t-87.5 164.5t-5 206zM698.5 399q0.5 -44 8 -85.5t22.5 -78t37 -64.5q32 23 61 57t53.5 76t42.5 89.5t28 97.5q35 185 17 275t-67 90q-52 0 -105.5 -91.5t-89.5 -279.5q-8 -42 -7.5 -86z" />
<glyph unicode="&#x4aa;" horiz-adv-x="1290" d="M98 547q0 109 27 215t78 201.5t124 177t164.5 140.5t200 92.5t230.5 33.5q50 0 96 -5.5t93 -16t98 -26t110 -34.5l-55 -319h-121v190q0 16 -11.5 33t-25.5 22q-4 2 -18 10.5t-36.5 17.5t-52.5 16.5t-67 7.5q-79 0 -155 -25t-144.5 -72t-126.5 -115t-100.5 -154.5 t-66.5 -190.5t-24 -222q0 -116 33.5 -201t90.5 -141t133.5 -83t162.5 -27q33 0 60 4.5t46.5 10.5t31.5 11.5t16 7.5q12 2 26.5 14.5t20.5 26.5l88 234h121l-55 -332q-12 -4 -51.5 -17t-97 -27.5t-128.5 -25.5q-70 -11 -142 -12q10 -13 19 -27q22 -34 34 -73.5t11.5 -84 t-17.5 -89.5q-14 -38 -37.5 -64t-53 -41.5t-62 -22.5t-65.5 -7q-28 0 -55 4t-50 10l26 117q17 -5 34.5 -8t37.5 -3q34 0 64 16.5t43 53.5q15 39 14 75t-12.5 68t-30.5 60q-8 12 -17 24q-37 6 -70 15q-82 23 -145 63t-109 95t-75 119.5t-43 135.5t-14 144z" />
<glyph unicode="&#x4ab;" horiz-adv-x="891" d="M66 356q0 92 21.5 176t59.5 157t90 132.5t113 102t129 65.5t137 23q55 0 95 -14t65 -35t37 -46.5t12 -48.5q0 -20 -6 -41t-23.5 -39t-48 -32.5t-79.5 -20.5l-117 158q-55 -3 -98 -30t-75.5 -70t-55 -97.5t-36.5 -110.5t-20 -109t-6 -95q0 -50 9.5 -98.5t31 -87t56 -62.5 t85.5 -24q41 0 83 14.5t84.5 40.5t85.5 62t87 79v-129q-32 -31 -73 -66t-91 -65t-110 -50q-41 -14 -87 -18q14 -17 26 -37q22 -34 34 -73.5t11.5 -84t-17.5 -89.5q-14 -38 -37.5 -64t-53 -41.5t-62 -22.5t-65.5 -7q-28 0 -55 4t-50 10l26 117q17 -5 34.5 -8t37.5 -3 q34 0 64 16.5t43 53.5q15 39 14 75t-12.5 68t-30.5 60q-11 17 -23 32q-29 6 -56 17q-58 26 -98.5 74.5t-62.5 119.5t-22 162z" />
<glyph unicode="&#x4ac;" horiz-adv-x="1200" d="M135 1061l60 313h1134l-63 -313h-129l8 180q3 41 -39 41h-264l-213 -1147q-3 -15 5 -26t36 -13l116 -10h22l-100 -506h-102q43 218 -24 319t-236 101h-92v86l119 10q18 2 32 11.5t17 27.5l213 1147h-256q-39 0 -51 -41l-64 -180h-129z" />
<glyph unicode="&#x4ad;" horiz-adv-x="1589" d="M37 0l176 870l-170 19v59l307 64h84l-39 -189q38 36 81 70.5t89 60.5t93 42t92 16q51 0 84.5 -19t54 -47.5t30 -61.5t13.5 -61q37 37 82 71t94 60.5t99.5 42t97.5 15.5q51 0 89.5 -18.5t62 -52.5t30 -82t-5.5 -107l-115 -553q-5 -25 1 -45.5t18.5 -35.5t30.5 -23.5 t38 -8.5q25 0 58 12t71 25v-70q-24 -10 -53.5 -22t-61 -23.5t-63.5 -20t-61 -11.5q-5 -10 -11.5 -24t-12.5 -28.5t-10 -26.5t-4 -18q0 -9 7 -18t15.5 -22t15.5 -33.5t7 -51.5q0 -9 -8 -20t-21.5 -23t-30 -25t-34.5 -25q-41 -29 -94 -60l-21 45q19 15 35 30q13 13 24 27.5 t11 28.5q0 13 -5.5 29.5t-12 33.5t-12 32.5t-5.5 27.5q0 8 10.5 24t26 34t33 36t31.5 30q-63 9 -97 44.5t-22 95.5l113 547q10 51 7 89t-15.5 63t-31 37.5t-38.5 12.5q-47 0 -91.5 -21t-81.5 -49.5t-64 -58t-37 -47.5l-144 -692h-190l137 668q7 33 6.5 68.5t-10 64.5 t-29.5 48t-53 19q-36 0 -76.5 -21t-78 -50t-68 -59.5t-45.5 -49.5l-144 -688h-188z" />
<glyph unicode="&#x4ae;" horiz-adv-x="1309" d="M172 1288v86h530v-86l-131 -8q-17 -2 -25.5 -13t-2.5 -28l168 -532l395 532q4 7 7 14t2 12.5t-6.5 9.5t-18.5 5l-127 8v86h493v-86l-115 -8q-15 -2 -30 -12.5t-23 -18.5l-520 -674l-86 -440q-5 -15 4 -26t35 -13l115 -10v-86h-533v86l119 10q18 2 31 11.5t18 27.5l84 422 l-229 692q-7 20 -17.5 24.5t-21.5 6.5z" />
<glyph unicode="&#x4af;" horiz-adv-x="1151" d="M86 905v82h459v-82l-115 -10q-14 -2 -21.5 -6t-10.5 -9.5t-3.5 -12t0.5 -11.5l117 -659l406 651q9 15 2.5 26.5t-23.5 14.5l-98 16v82h407v-82l-135 -20l-508 -815l-76 -379q-3 -14 8.5 -27.5t32.5 -15.5l123 -10v-84h-551v84l138 10q23 2 39.5 15.5t19.5 27.5l61 309 l-157 879z" />
<glyph unicode="&#x4b0;" horiz-adv-x="1309" d="M154 541l20 104h350l-198 604q-7 20 -17.5 24.5t-21.5 6.5l-115 8v86h530v-86l-131 -8q-17 -2 -25.5 -13t-2.5 -28l168 -532l395 532q4 7 7 13.5t2 12t-6.5 9.5t-18.5 6l-127 8v86h493v-86l-115 -8q-15 -2 -30 -12.5t-23 -18.5l-465 -604h316l-21 -104h-356l-80 -406 q-5 -15 4 -26t35 -13l115 -10v-86h-533v86l119 10q18 2 31 11.5t18 27.5l80 406h-397z" />
<glyph unicode="&#x4b1;" horiz-adv-x="1151" d="M39 -10l20 100h283l-141 789l-115 26v82h459v-82l-115 -10q-14 -2 -21.5 -6t-10.5 -9.5t-3.5 -12t0.5 -11.5l117 -659l406 651q9 15 2.5 26.5t-23.5 14.5l-98 16v82h407v-82l-135 -20l-496 -795h318l-21 -100h-325l-60 -299q-3 -14 8.5 -27.5t32.5 -15.5l123 -10v-84 h-551v84l138 10q23 2 39.5 15.5t19.5 27.5l59 299h-317z" />
<glyph unicode="&#x4b2;" horiz-adv-x="1296" d="M-90 0v86l98 8q17 2 30 12.5t19 18.5l510 571l-245 553q-8 19 -18 24t-21 7l-113 8v86h532v-86l-133 -8q-17 -2 -27 -13.5t-3 -27.5l168 -383l335 383q11 12 9.5 25.5t-27.5 15.5l-98 8v86h463v-86l-123 -8q-16 -2 -29.5 -12.5t-19.5 -18.5l-451 -512l268 -612 q10 -19 20 -24t21 -7l111 -8l-101 -508h-104q43 218 -19 320t-231 102h-74v86l131 8q17 2 27 14t2 27l-184 430l-387 -430q-13 -12 -10.5 -25.5t28.5 -15.5l123 -8v-86h-477z" />
<glyph unicode="&#x4b3;" horiz-adv-x="1081" d="M-37 88q0 50 32.5 80t94.5 41l86 -82q31 19 65.5 52t70 79.5t69 106.5t61.5 133q-5 20 -16 55t-26.5 74.5t-32.5 80.5t-33 74.5t-29 55t-20 22.5l-179 23v55q9 3 29 9.5t45.5 15t53 17t51.5 16t42 12t25 4.5q36 0 68 -26t60.5 -76t54 -122t49.5 -165q30 58 71.5 126 t91.5 126.5t108.5 97.5t123.5 39q56 0 90.5 -33.5t34.5 -87.5q0 -40 -26.5 -76.5t-86.5 -56.5l-90 80q-27 -11 -60 -39.5t-67.5 -73t-68.5 -103.5t-64 -130q6 -19 14.5 -47.5t19.5 -62t23.5 -69t26.5 -67.5q15 -33 31.5 -62t34.5 -51t36.5 -34.5t36.5 -12.5q23 0 49.5 4.5 t67.5 24.5v-74q-43 -23 -86.5 -39t-89.5 -22q-5 -9 -11.5 -24t-13.5 -30t-11.5 -28t-4.5 -19q0 -9 7 -18t15.5 -22t15.5 -33.5t7 -51.5q0 -9 -8 -20t-21.5 -23t-30 -25t-34.5 -25q-41 -29 -94 -60l-21 45q19 15 35 30q13 13 24 27.5t11 28.5q0 13 -5.5 29.5t-12 33.5 t-12 32.5t-5.5 27.5q0 8 10 23.5t24.5 33t31 34.5t30.5 29q-32 3 -60 23t-51.5 50.5t-43 69.5t-35.5 80t-27.5 81.5t-19.5 74.5q-31 -59 -68 -121t-80 -114q-23 -29 -48.5 -55.5t-54.5 -46t-63 -31t-74 -11.5q-63 0 -103 29.5t-40 83.5z" />
<glyph unicode="&#x4b4;" horiz-adv-x="1680" d="M135 1061l60 313h974l-63 -313h-129l8 180q3 41 -39 41h-184l-225 -1135q-2 -14 5.5 -28.5t29.5 -14.5h553q22 0 35.5 14.5t15.5 28.5l215 1088q3 12 -4 26t-29 17l-116 8v88h540v-88l-131 -8q-21 -2 -35 -16.5t-16 -26.5l-217 -1096q-3 -12 5 -26t30 -17l106 -8 l-100 -508h-105q22 109 9.5 188.5t-52.5 131t-105.5 76t-150.5 24.5h-870v88l129 8q22 2 35 16.5t16 26.5l225 1143h-176q-39 0 -51 -41l-64 -180h-129z" />
<glyph unicode="&#x4b5;" horiz-adv-x="1219" d="M103 718l54 269h649l-54 -269h-77l2 146q1 11 -8.5 18t-17.5 7h-91l-137 -658q-6 -26 2.5 -49.5t25 -41t37.5 -28t41 -10.5q37 0 74.5 10.5t74.5 28.5t71 41.5t63 50.5l155 754h191l-164 -788q-7 -32 0 -53.5t21.5 -35.5t33 -20t35.5 -6q20 0 53 6t76 31v-72 q-17 -10 -45.5 -21t-62 -21.5t-70 -18.5t-68.5 -11q-5 -9 -11.5 -23t-12.5 -28.5t-10.5 -27.5t-4.5 -19q0 -9 7 -18t16 -22t16 -33.5t7 -51.5q0 -9 -8 -20t-21.5 -23t-30.5 -25t-35 -25q-41 -29 -94 -60l-20 45q19 15 34 30q13 13 24 27.5t11 28.5q0 13 -5.5 29.5t-12 33.5 t-12 32.5t-5.5 27.5q0 8 10.5 23.5t25.5 33.5t32.5 35.5t32.5 29.5q-44 7 -64.5 27.5t-28 44t-6.5 46t1 34.5q-81 -77 -169.5 -115.5t-191.5 -38.5q-71 0 -116 25t-68 63t-28 83t3 85l138 658h-98q-8 0 -20 -7t-16 -18l-56 -146h-77z" />
<glyph unicode="&#x4b6;" horiz-adv-x="1320" d="M209 1286v88h512v-88l-110 -8q-20 -2 -35.5 -14t-18.5 -29l-75 -393q-9 -48 -6 -81.5t20 -54t49 -29.5t81 -9q33 0 72.5 7.5t80 20t80 28.5t72.5 32l95 479q3 17 -6 29t-27 14l-98 8v88h512v-88l-121 -8q-20 -2 -35.5 -14t-18.5 -29l-215 -1096q-3 -17 6 -29t27 -14 l113 -8l-101 -508h-104q43 218 -18 319t-230 101h-61v88l108 8q20 2 35.5 14t18.5 29l96 486q-42 -23 -93.5 -45t-104.5 -39t-104.5 -28t-94.5 -11q-52 0 -103.5 14.5t-88.5 49.5t-53 93t2 146l83 430q3 17 -5.5 29t-26.5 14z" />
<glyph unicode="&#x4b7;" horiz-adv-x="987" d="M39 889v59l309 64h82l-78 -410q-14 -72 8.5 -106.5t96.5 -34.5q31 0 69.5 10t89.5 35l91 481h190l-154 -813q-5 -26 1 -41.5t17 -24t26 -11.5t30 -3q16 0 33 2.5t37 8t43.5 12.5t52.5 16v-74q-24 -13 -53 -26.5t-61.5 -25t-67.5 -19.5t-70 -11q-5 -10 -11 -24t-12 -28.5 t-10 -27t-4 -18.5q0 -9 7 -18t15.5 -22t15.5 -33.5t7 -51.5q0 -9 -8 -20t-21.5 -23t-30 -25t-34.5 -25q-41 -29 -94 -60l-21 45q19 15 34 30q13 13 23.5 27.5t10.5 28.5q0 13 -5 29.5t-11.5 33.5t-11.5 32.5t-5 27.5q0 8 10.5 24.5t26 35t33 36t31.5 29.5q-36 6 -62 21.5 t-41 35.5t-20 43.5t0 44.5l57 301q-28 -14 -58.5 -27t-61.5 -23.5t-61.5 -17t-58.5 -6.5q-48 0 -90 12t-71 38.5t-41 69t0 103.5l55 295z" />
<glyph unicode="&#x4b8;" horiz-adv-x="1350" d="M209 1286v88h512v-88l-113 -8q-18 -2 -33 -14t-18 -29l-78 -393q-18 -97 20.5 -135.5t133.5 -38.5h1l83 419h120l-79 -401q51 13 101.5 31.5t89.5 38.5l96 479q3 17 -6.5 28.5t-27.5 14.5l-99 8v88h514v-88l-123 -8q-18 -2 -33 -14t-18 -29l-217 -1096q-3 -17 6.5 -29 t28.5 -14l110 -8v-88h-512v88l109 8q19 2 33.5 14t17.5 29l96 486q-40 -22 -90 -43.5t-104 -38.5l-67 -342h-121l61 310q-47 -9 -85 -9q-51 0 -103.5 14.5t-91.5 49.5t-57.5 93t-1.5 146l86 430q3 17 -6.5 29t-28.5 14z" />
<glyph unicode="&#x4b9;" horiz-adv-x="1049" d="M39 889v59l309 64h82l-78 -410q-12 -60 11.5 -94t74.5 -43l56 272h114l-53 -270q29 5 60.5 15t62.5 24l90 481h188l-153 -813q-5 -26 1 -41.5t17.5 -24t27 -11.5t30.5 -3q32 0 69.5 10.5t93.5 28.5v-74q-25 -14 -57 -28.5t-67.5 -27t-74 -20.5t-75.5 -8q-48 0 -81.5 14 t-53.5 36t-28 48.5t-3 51.5l60 301q-55 -28 -125 -47l-43 -217h-115l39 190q-14 0 -26.5 -1t-26.5 -1q-41 0 -82.5 14.5t-73 43t-47 70.5t-4.5 97l55 295z" />
<glyph unicode="&#x4ba;" horiz-adv-x="1276" d="M-31 0v88l117 8q19 2 33.5 14t17.5 29l217 1096q3 17 -6.5 29t-28.5 14l-106 8v88h512v-88l-113 -8q-18 -2 -33 -14t-18 -29l-67 -348q41 22 91.5 44.5t101.5 40.5t98.5 29t82.5 11q52 0 104.5 -15t91.5 -50t57 -93t1 -145l-112 -570q-3 -17 6.5 -29t27.5 -14l111 -8v-88 h-514v88l111 8q18 2 33 14t18 29l104 531q20 97 -27 136.5t-167 39.5q-26 0 -55.5 -7.5t-61 -20t-64 -28.5t-65.5 -32l-123 -619q-3 -17 6.5 -29t28.5 -14l110 -8v-88h-520z" />
<glyph unicode="&#x4bb;" horiz-adv-x="1073" d="M37 0l282 1368l-182 18v62l320 61h82l-138 -661q31 34 73.5 64t91 52.5t101 35t103.5 12.5q56 0 99 -17.5t69.5 -52t34 -86.5t-7.5 -121l-113 -551q-6 -29 3 -48.5t24.5 -31t32.5 -16t26 -4.5q28 0 61 14t68 25l2 -72q-13 -5 -45.5 -17t-72.5 -25.5t-82 -23.5t-74 -10 q-19 0 -48 5.5t-54.5 20t-40.5 40.5t-7 68l125 604q9 40 -1.5 71t-29.5 51.5t-42 31t-40 10.5q-24 0 -58.5 -12t-73 -33t-77.5 -50.5t-73 -64.5l-150 -717h-188z" />
<glyph unicode="&#x4bc;" horiz-adv-x="1357" d="M10 916q0 42 11 83t33.5 72.5t56.5 51t79 19.5q42 0 71.5 -21.5t49.5 -57.5l-129 -268q10 -11 33.5 -22.5t51.5 -20.5t57 -15t50 -6q30 139 91.5 262t147 215t190 145.5t219.5 53.5q59 0 105 -15.5t80.5 -40.5t58.5 -56t38.5 -63t21 -61t6.5 -50q0 -78 -33.5 -143 t-90 -118t-130.5 -94t-156 -70t-166.5 -46t-160.5 -22q-2 -14 -3.5 -31.5t-3 -35.5t-2.5 -35t-1 -30q0 -184 65.5 -271.5t188.5 -87.5q86 0 190 70t245 207v-180q-36 -39 -89 -85.5t-119.5 -87.5t-145.5 -68.5t-166 -27.5q-39 0 -84.5 8.5t-91 30t-87 59t-74 95.5 t-51.5 138.5t-19 188.5q0 29 2.5 68.5t5.5 68.5q-66 0 -128 18.5t-110.5 55.5t-77.5 92t-29 128zM606 736q54 6 112.5 23t114 43t105 61t86.5 76t59 87.5t22 97.5q0 28 -10 55t-28 48.5t-43.5 34.5t-57.5 13q-42 0 -82 -25t-76.5 -66.5t-68 -96.5t-57.5 -115t-45.5 -121 t-30.5 -115z" />
<glyph unicode="&#x4bd;" horiz-adv-x="1134" d="M50 639q0 30 9 60.5t26.5 54.5t43.5 39t59 15t59.5 -13t46.5 -45l-101 -166q14 -26 54 -42.5t91 -16.5q26 99 76.5 187.5t118.5 154.5t149.5 104.5t169.5 38.5q71 0 118.5 -23.5t76 -56.5t40.5 -68t12 -57q0 -56 -26 -103t-70.5 -85t-102.5 -67.5t-122.5 -50t-131 -33 t-127.5 -15.5q-3 -20 -5.5 -48t-2.5 -47q0 -57 14 -104.5t39.5 -81.5t61.5 -53t80 -19q69 0 151.5 50t195.5 149v-129q-29 -28 -71 -61.5t-95.5 -63t-116 -49t-132.5 -19.5q-31 0 -67.5 6t-72.5 21.5t-69.5 42.5t-59 68.5t-41 99t-15.5 135.5q0 21 2.5 49.5t4.5 49.5 q-63 0 -113 15t-85 41t-53.5 61t-18.5 75zM528 528q43 4 89 16.5t89.5 31.5t82 43.5t67 54.5t45.5 63.5t17 69.5q0 20 -8 39.5t-22 34.5t-35 24.5t-46 9.5q-34 0 -65 -18t-59 -48t-52.5 -69t-44 -82t-34.5 -87t-24 -83z" />
<glyph unicode="&#x4be;" horiz-adv-x="1357" d="M10 916q0 42 11 83t33.5 72.5t56.5 51t79 19.5q42 0 71.5 -21.5t49.5 -57.5l-129 -268q10 -11 33.5 -22.5t51.5 -20.5t57 -15t50 -6q30 139 91.5 262t147 215t190 145.5t219.5 53.5q59 0 105 -15.5t80.5 -40.5t58.5 -56t38.5 -63t21 -61t6.5 -50q0 -78 -33.5 -143 t-90 -118t-130.5 -94t-156 -70t-166.5 -46t-160.5 -22q-2 -14 -3.5 -31.5t-3 -35.5t-2.5 -35t-1 -30q0 -184 65.5 -271.5t188.5 -87.5q86 0 190 70t245 207v-180q-36 -39 -89 -85.5t-119.5 -87.5t-145.5 -68l-24 -8q-37 -27 -64 -73q-30 -50 -52 -129.5t-45 -202.5h-144 q29 123 37.5 203t-0.5 131t-34 79l-6 6l-10 4q-45 22 -86.5 59.5t-74 95.5t-51.5 138.5t-19 188.5q0 29 2.5 68.5t5.5 68.5q-66 0 -128 18.5t-110.5 55.5t-77.5 92t-29 128zM606 736q54 6 112.5 23t114 43t105 61t86.5 76t59 87.5t22 97.5q0 28 -10 55t-28 48.5t-43.5 34.5 t-57.5 13q-42 0 -82 -25t-76.5 -66.5t-68 -96.5t-57.5 -115t-45.5 -121t-30.5 -115z" />
<glyph unicode="&#x4bf;" horiz-adv-x="1134" d="M50 639q0 30 9 60.5t26.5 54.5t43.5 39t59 15t59.5 -13t46.5 -45l-101 -166q14 -26 54 -42.5t91 -16.5q26 99 76.5 187.5t118.5 154.5t149.5 104.5t169.5 38.5q71 0 118.5 -23.5t76 -56.5t40.5 -68t12 -57q0 -56 -26 -103t-70.5 -85t-102.5 -67.5t-122.5 -50t-131 -33 t-127.5 -15.5q-3 -20 -5.5 -48t-2.5 -47q0 -57 14 -104.5t39.5 -81.5t61.5 -53t80 -19q69 0 151.5 50t195.5 149v-129q-29 -28 -71 -61.5t-95.5 -63t-116.5 -48.5q-32 -10 -66 -15q-13 -21 -21 -40q-21 -48 -21 -61q0 -9 7 -18t15.5 -22t15.5 -33.5t7 -51.5q0 -9 -8 -20 t-21.5 -23t-30 -25t-34.5 -25q-41 -29 -94 -60l-21 45q19 15 35 30q13 13 24 27.5t11 28.5q0 13 -5.5 29.5t-12 33.5t-12 32.5t-5.5 27.5q0 8 14.5 28t38.5 46q21 22 46 46q-29 1 -62 6q-36 6 -72 21.5t-69.5 42.5t-59 68.5t-41 99t-15.5 135.5q0 21 2.5 49.5t4.5 49.5 q-63 0 -113 15t-85 41t-53.5 61t-18.5 75zM528 528q43 4 89 16.5t89.5 31.5t82 43.5t67 54.5t45.5 63.5t17 69.5q0 20 -8 39.5t-22 34.5t-35 24.5t-46 9.5q-34 0 -65 -18t-59 -48t-52.5 -69t-44 -82t-34.5 -87t-24 -83z" />
<glyph unicode="&#x4c0;" horiz-adv-x="643" d="M-31 0v86l129 10q19 2 27.5 11.5t11.5 27.5l213 1102q3 17 -5 28t-34 13l-114 10v86h532v-86l-131 -10q-20 -2 -28 -11.5t-13 -29.5l-213 -1102q-3 -15 5 -26t36 -13l119 -10v-86h-535z" />
<glyph unicode="&#x4c1;" horiz-adv-x="1825" d="M-88 0v88l168 10l375 457q34 42 83 71t111 40q-38 31 -62.5 74.5t-41.5 111.5q-14 51 -16.5 103.5t-6.5 103t-16 97t-45 87.5l-230 -88q-29 29 -40 63.5t-11 69.5q0 24 17 45.5t44.5 38t62.5 26t71 9.5q52 0 98.5 -16.5t75.5 -53.5q30 -36 45.5 -75.5t22.5 -80t9.5 -82 t5.5 -83t10 -81.5t24 -77q15 -32 25.5 -57.5t28 -44.5t46 -29t78.5 -10l102 516q3 14 -5 27.5t-30 15.5l-110 10v88h528v-88l-125 -10q-21 -2 -34.5 -15.5t-16.5 -27.5l-102 -516q51 0 83.5 10t57 29t45.5 44.5t47 57.5q48 56 77.5 117.5t58.5 124t67 123t104 114.5 q45 37 96.5 53.5t104.5 16.5q36 0 63.5 -9.5t46 -26t28 -38t9.5 -45.5q0 -18 -8 -35.5t-22 -34t-32.5 -32.5t-39.5 -31l-195 88q-49 -41 -79.5 -87.5t-54.5 -97t-46.5 -103t-56.5 -103.5q-45 -68 -89.5 -115t-90.5 -71q52 -14 93 -43.5t58 -67.5l195 -457l139 -10v-88h-344 v66l-213 475q-17 35 -46.5 51.5t-76.5 19.5l-92 -471q-3 -14 4 -27.5t29 -15.5l104 -10v-88h-528v88l131 10q22 2 35.5 15.5t15.5 27.5l94 471q-48 -3 -84 -19.5t-65 -51.5l-402 -475v-66h-360zM835 1708q0 21 7.5 43t21.5 40t33.5 29t43.5 11q7 0 19 -1.5t25 -4.5t24 -6.5 t16 -6.5l37 -161q16 -14 42 -21.5t54 -7.5q45 0 81.5 18.5t64.5 44.5t46.5 55.5t28.5 51.5h78q-24 -57 -57.5 -106t-77.5 -85t-99.5 -56.5t-125.5 -20.5q-47 0 -93.5 11t-84 34t-61 57.5t-23.5 81.5z" />
<glyph unicode="&#x4c2;" horiz-adv-x="1880" d="M66 119q0 20 6 41t23.5 39.5t48 32.5t79.5 20l99 -158q46 0 83.5 26.5t67.5 69.5t52 98t36.5 111.5t21.5 110.5t7 96q0 50 -10.5 99t-31.5 87.5t-51 62.5t-69 24q-41 0 -79.5 -14.5t-77.5 -41t-79 -62.5t-83 -79v129q31 31 69 66t84.5 65t102.5 50t124 20q61 0 115 -25.5 t94.5 -74t64 -119.5t23.5 -162q0 -20 -1 -38.5t-3 -37.5h74l86 432h191l-86 -432h75q30 100 84.5 183.5t121.5 144.5t139.5 95t138.5 34q55 0 94.5 -14t65 -35t37.5 -46.5t12 -48.5q0 -20 -6.5 -41t-23.5 -39t-48 -32.5t-80 -20.5l-98 158q-46 0 -84 -26.5t-68 -70t-52 -98 t-36.5 -111.5t-21.5 -111t-7 -95q0 -50 10.5 -98.5t31.5 -87t51 -62.5t69 -24q41 0 79.5 14.5t77.5 40.5t79 62t84 79v-129q-32 -31 -69.5 -66t-84 -65t-103 -50t-124.5 -20q-61 0 -115 25.5t-94.5 74t-64 119.5t-23.5 162q0 25 1.5 49.5t6.5 47.5h-78l-90 -453h-191l93 453 h-74q-28 -104 -82 -191.5t-121.5 -151.5t-142 -99.5t-142.5 -35.5q-55 0 -94.5 14t-64.5 35t-37 46.5t-12 48.5zM831 1296q0 19 7 39t19.5 36t30.5 26t39 10q7 0 18 -1.5t23 -3.5t22 -5t15 -6l33 -148q14 -12 38.5 -19t49.5 -7q41 0 74 16.5t58 40.5t42 50.5t26 47.5h70 q-22 -51 -52 -95.5t-70 -77.5t-91 -52t-115 -19q-42 0 -84.5 10t-76 31t-55 52.5t-21.5 74.5z" />
<glyph unicode="&#x4c3;" horiz-adv-x="1309" d="M-31 0v88l117 10q22 2 35 15.5t16 27.5l215 1092q3 14 -4 27.5t-29 15.5l-110 10v88h539v-88l-136 -10q-21 -2 -35.5 -15.5t-17.5 -27.5l-100 -516q100 0 179 39t132 102q48 56 79 117.5t62 124t70.5 123t105.5 114.5q45 37 97 53.5t104 16.5q72 0 110 -34.5t38 -84.5 q0 -35 -30.5 -69.5t-72.5 -63.5l-194 88q-49 -41 -81.5 -87.5t-58 -97t-50 -103t-58.5 -103.5q-45 -68 -96.5 -116.5t-104.5 -69.5q54 -14 82 -37t43 -54l250 -450q12 -21 26 -52.5t25.5 -67t17 -72.5t-0.5 -68q-15 -75 -48 -136.5t-83.5 -105.5t-118.5 -68t-152 -24 q-28 0 -54.5 10t-46 27t-29 41t-3.5 53q3 17 15 37t26 37.5t26.5 30.5t16.5 16l213 -94q40 24 54 56.5t20 64.5q4 20 1 42t-10 45t-18 46.5t-24 46.5l-300 551q-9 17 -29.5 29.5t-46.5 21.5t-54 13.5t-52 6.5l-92 -471q-3 -14 5 -27.5t30 -15.5l123 -10v-88h-533z" />
<glyph unicode="&#x4c4;" horiz-adv-x="1020" d="M37 0l168 864l-160 29v53l317 66h62l-94 -486q50 0 87 13t66.5 36.5t52.5 57t46 74.5q19 36 35 70t34 65.5t41.5 61.5t57.5 59q32 27 70.5 39t76.5 12q56 0 87.5 -28.5t31.5 -70.5q0 -32 -26 -59.5t-60 -50.5l-154 69q-29 -26 -49.5 -57.5t-37.5 -66t-33.5 -69.5 t-37.5 -67q-24 -37 -52.5 -66.5t-57.5 -47.5q22 -11 46 -31t34 -39l186 -367q25 -46 40 -86.5t15 -87.5q1 -65 -28.5 -129.5t-78 -115.5t-111 -82.5t-128.5 -30.5q-27 0 -51.5 10.5t-43.5 27.5t-29 40t-7 49q2 18 14 38.5t26.5 38t27 30t16.5 14.5l187 -98q31 23 52 49.5 t19 64.5q-1 20 -7 42.5t-14 45.5t-18 44t-18 38l-215 426q-6 12 -14 20t-20.5 12.5t-31 6.5t-45.5 2l-86 -432h-188z" />
<glyph unicode="&#x4c5;" horiz-adv-x="1427" d="M-129 92q0 24 11 44.5t28.5 35t40 23t45.5 8.5l174 -68q15 0 34 14.5t39 37t39.5 49t34.5 51.5q20 34 44 91.5t49.5 132t51 162t50 181.5t46.5 191t40 190q3 12 -6 26.5t-31 16.5t-45 4q-20 2 -43 3t-43 1v88h1092v-88l-136 -8q-21 -2 -35.5 -16.5t-17.5 -26.5 l-215 -1096q-3 -12 5 -26.5t28 -16.5l125 -8v-88l-116 -170q-22 -32 -42.5 -62.5t-36.5 -54.5q-19 -28 -36 -53q0 -1 -20.5 -0.5t-44.5 0.5h-65l231 340h-429v88l141 8q23 2 36.5 16.5t16.5 26.5l224 1131h-408q-40 -204 -81 -374t-81.5 -303t-79.5 -227t-73 -145 q-48 -73 -99 -121.5t-104 -78t-109 -42t-116 -12.5q-53 0 -83 36.5t-30 88.5z" />
<glyph unicode="&#x4c6;" horiz-adv-x="1204" d="M-121 78q0 22 9.5 43t27 37.5t40.5 26.5t50 10l137 -74q11 0 22.5 8.5t22 21t20 27.5t17.5 27q25 36 52 107.5t54 162t51.5 193.5t43.5 202q3 10 -3.5 19.5t-23.5 11.5l-98 6v80h893v-80l-109 -6q-18 -2 -28.5 -11.5t-12.5 -19.5l-139 -704q-4 -21 3 -37.5t21.5 -27 t34 -16t40.5 -5.5q23 0 49.5 4.5t49.5 10.5q26 7 52 16v-64q-70 -100 -125 -178q-24 -34 -46.5 -65.5t-39.5 -57.5q-20 -30 -39 -56q0 -1 -18.5 -0.5t-41.5 0.5h-60l217 306q-32 -9 -65.5 -15t-62.5 -6t-61.5 8t-58 25t-40 43t-7.5 62l151 774h-321q-59 -294 -123 -485.5 t-127 -272.5q-39 -51 -83 -81.5t-86.5 -46.5t-81 -21t-67.5 -5q-42 0 -66 22t-24 81z" />
<glyph unicode="&#x4c7;" horiz-adv-x="1485" d="M-31 0v86l117 10q42 3 51 39l213 1102q3 17 -5 28t-36 13l-114 10v86h532v-86l-121 -10q-18 -2 -32 -11.5t-17 -29.5l-90 -467h639l90 467q3 17 -5 28t-36 13l-117 10v86h533v-86l-119 -10q-19 -2 -31.5 -11.5t-17.5 -29.5l-250 -1280q-20 -98 -67.5 -177t-115 -134.5 t-151.5 -85t-178 -29.5q-54 0 -88.5 12t-55 32t-28.5 45t-8 52q0 33 19 58.5t42.5 43.5t45.5 27.5t28 10.5l123 -179q48 0 83 18.5t60 51.5t41 77.5t27 96.5l155 791h-639l-102 -533q-3 -15 5 -26t34 -13l119 -10v-86h-533z" />
<glyph unicode="&#x4c8;" horiz-adv-x="1085" d="M39 889v59l309 64h82l-86 -461h418l84 436h188l-194 -1020q-23 -114 -76 -196t-123.5 -135.5t-152.5 -79t-162 -25.5q-45 0 -73.5 10t-45 27.5t-23 40t-6.5 47.5q0 31 17.5 57.5t40 45.5t43 29.5t26.5 10.5l133 -172q24 0 53 18.5t57 54t52 87t37 117.5l106 549h-417 l-86 -453h-191l164 870z" />
<glyph unicode="&#x4c9;" horiz-adv-x="1472" d="M-31 0v86l117 10q42 3 51 39l213 1102q3 17 -5 28t-36 13l-114 10v86h532v-86l-121 -10q-18 -2 -32 -11.5t-17 -29.5l-90 -467h639l90 467q3 17 -5 28t-36 13l-117 10v86h533v-86l-119 -10q-19 -2 -31.5 -11.5t-17.5 -29.5l-213 -1102q-3 -15 5 -26t36 -13l115 -10v-86 l-116 -170q-22 -32 -42.5 -62.5t-36.5 -54.5q-19 -28 -36 -53q0 -1 -20.5 -0.5t-44.5 0.5h-65l231 340h-405v86l123 10q18 2 32 11.5t17 27.5l102 533h-639l-102 -533q-3 -15 5 -26t34 -13l119 -10v-86h-533z" />
<glyph unicode="&#x4ca;" horiz-adv-x="1137" d="M39 889v59l309 64h82l-86 -461h418l84 436h188l-149 -794q-5 -21 -1 -40t15 -33.5t28 -23t38 -8.5q18 0 42.5 6.5t49 15t45.5 16.5t31 11v-78q-73 -103 -129 -184q-25 -35 -48 -68t-41 -59q-21 -31 -40 -58q0 -1 -18.5 -0.5t-41.5 0.5h-60l221 310q-36 -11 -73.5 -18 t-71.5 -7q-52 0 -83 18t-46 47t-16.5 65t4.5 71l53 277h-417l-86 -453h-191l164 870z" />
<glyph unicode="&#x4cb;" horiz-adv-x="1320" d="M209 1286v88h512v-88l-113 -8q-18 -2 -33 -14t-18 -29l-78 -393q-9 -48 -5.5 -81.5t21 -54t49 -29.5t79.5 -9q34 0 74.5 7.5t81 20t79.5 28.5t71 32l96 479q3 17 -6.5 28.5t-27.5 14.5l-99 8v88h514v-88l-123 -8q-18 -2 -33 -14t-18 -29l-217 -1096q-3 -17 6.5 -29 t28.5 -14l110 -8v-88h-129q-19 -2 -51 -13.5t-70 -34.5t-78 -57.5t-76.5 -80.5t-65 -104.5t-42.5 -129.5h-104l104 508l109 8q19 2 33.5 14t17.5 29l96 486q-41 -23 -92 -45t-104.5 -39t-105 -28t-94.5 -11q-51 0 -102 14.5t-88 49.5t-54 93t0 146l86 430q3 17 -6.5 29 t-28.5 14z" />
<glyph unicode="&#x4cc;" horiz-adv-x="987" d="M39 889v59l309 64h82l-78 -410q-14 -72 8.5 -106.5t96.5 -34.5q31 0 69.5 10t89.5 35l91 481h190l-156 -821q-7 -37 3.5 -56.5t29.5 -21.5l110 -8v-80h-165q-29 -1 -75 -12t-94 -44.5t-89.5 -96t-62.5 -166.5h-97l81 399l109 8q19 2 33.5 14t17.5 29l58 295 q-28 -14 -58.5 -27t-61.5 -23.5t-61.5 -17t-58.5 -6.5q-48 0 -90 12t-71 38.5t-41 69t0 103.5l55 295z" />
<glyph unicode="&#x4cd;" horiz-adv-x="1823" d="M-29 0v86l117 10q42 3 51 39l211 1102q3 17 -5 28t-36 13l-114 10v86h458v-57l176 -991l547 981v67h473v-86l-116 -10q-42 -3 -52 -41l-211 -1102q-3 -15 5.5 -26t35.5 -13l115 -10v-86l-116 -170q-22 -32 -42.5 -62.5t-36.5 -54.5q-19 -28 -36 -53q0 -1 -20.5 -0.5 t-44.5 0.5h-65l231 340h-402v86l120 10q19 2 33 11.5t17 27.5l198 1039l-657 -1174h-123l-205 1163l-190 -1028q-3 -15 5 -26t34 -13l114 -10v-86h-469z" />
<glyph unicode="&#x4ce;" horiz-adv-x="1464" d="M-104 80q0 41 15.5 61.5t37.5 34.5l205 -53q16 22 33.5 66.5t35 102.5t33.5 124.5t31 132.5q34 155 67 336q3 11 -1 18.5t-15 9.5l-102 7v67h380l111 -719l395 719h242l-150 -821q-4 -21 3 -35.5t19.5 -23.5t28.5 -13t31 -4q20 0 44.5 4.5t47.5 11t42 13t30 10.5v-76 q-72 -101 -128 -181q-24 -35 -47 -67t-41 -58q-21 -30 -39 -57q0 -1 -18.5 -0.5t-41.5 0.5h-60l219 307q-33 -9 -67 -15.5t-66 -6.5q-46 0 -75 12t-45.5 31.5t-22.5 45.5t-6 55q0 15 7 62.5t18.5 113t26 143t29 153.5t28 143t22.5 112l-469 -852h-94l-131 840l-97 -461 q-19 -93 -43.5 -167t-63.5 -125t-96 -78.5t-141 -27.5q-38 0 -61.5 13.5t-37 31t-18.5 35t-5 25.5z" />
<glyph unicode="&#x4cf;" horiz-adv-x="592" d="M-29 0v80l107 10q18 2 32 11t17 28l237 1200q-1 17 -7 28t-32 13l-127 10v80h512v-80l-107 -10q-18 -2 -31.5 -11t-17.5 -28l-237 -1200q-3 -17 5 -28t34 -13l127 -10v-80h-512z" />
<glyph unicode="&#x4d0;" horiz-adv-x="1378" d="M-109 0v86l115 12l756 1309h164l221 -1272q3 -20 11 -28.5t30 -10.5l94 -10v-86h-481v86l94 10q45 6 39 39l-62 391h-464l-209 -391q-11 -20 -0.5 -28t39.5 -11l94 -10v-86h-441zM463 623h391l-88 532zM603 1708q0 21 7.5 43t21.5 40t33.5 29t43.5 11q7 0 19 -1.5 t25 -4.5t24 -6.5t16 -6.5l37 -161q16 -14 42 -21.5t54 -7.5q45 0 81.5 18.5t64.5 44.5t46.5 55.5t28.5 51.5h78q-24 -57 -57.5 -106t-77.5 -85t-99.5 -56.5t-125.5 -20.5q-47 0 -93.5 11t-84 34t-61 57.5t-23.5 81.5z" />
<glyph unicode="&#x4d1;" horiz-adv-x="1067" d="M66 342q0 79 17 159.5t50.5 155t83.5 139.5t115.5 113t146 75.5t176.5 27.5q28 0 55.5 -6.5t51.5 -17t44 -23.5t34 -27l30 49h140q-5 -12 -11 -28.5t-12 -33.5t-10.5 -32t-5.5 -23q-7 -27 -20 -81.5t-27.5 -122.5t-30 -142.5t-27.5 -141t-20 -118t-8 -74.5q0 -54 23 -74 t65 -20q10 0 29.5 4.5t40.5 10.5t39 11t26 7v-74q-12 -5 -44 -18.5t-71.5 -27t-80 -24t-70.5 -10.5q-37 0 -62.5 9t-42 27t-25.5 44t-12 60q-23 -22 -54 -46.5t-68.5 -45.5t-80 -34.5t-88.5 -13.5q-60 0 -105.5 17t-78.5 45.5t-54.5 66t-34.5 78t-18 82t-5 78.5zM268 354 q0 -43 7 -86t24.5 -78t48 -57t78.5 -22q36 0 72 16t67 37t54 42t34 32l107 565q1 5 -7.5 23t-20.5 37.5t-25.5 34.5t-22.5 15q-78 0 -139.5 -25.5t-107.5 -69t-78.5 -100.5t-52.5 -119t-29 -125t-9 -120zM465 1296q0 19 7 39t19.5 36t30.5 26t39 10q7 0 18 -1.5t23 -3.5 t22 -5t15 -6l33 -148q14 -12 38.5 -19t49.5 -7q41 0 74 16.5t58 40.5t42 50.5t26 47.5h70q-22 -51 -52 -95.5t-70 -77.5t-91 -52t-115 -19q-42 0 -84.5 10t-76 31t-55 52.5t-21.5 74.5z" />
<glyph unicode="&#x4d2;" horiz-adv-x="1378" d="M-109 0v86l115 12l756 1309h164l221 -1272q3 -20 11 -28.5t30 -10.5l94 -10v-86h-481v86l94 10q45 6 39 39l-62 391h-464l-209 -391q-11 -20 -0.5 -28t39.5 -11l94 -10v-86h-441zM463 623h391l-88 532zM558 1711q0 22 9 42.5t24 36.5t35 25.5t42 9.5q23 0 43.5 -9t36 -24 t24.5 -35.5t9 -43.5t-9 -44t-24.5 -37t-36 -25t-43.5 -9q-22 0 -42 9t-35 25t-24 36t-9 43zM982 1713q0 21 9.5 41.5t25 36t36 25t41.5 9.5q23 0 43.5 -9t35.5 -24t23.5 -35.5t8.5 -43.5t-8.5 -44t-23.5 -37t-35.5 -25t-43.5 -9t-43.5 9t-35.5 25t-24 37t-9 44z" />
<glyph unicode="&#x4d3;" horiz-adv-x="1067" d="M66 342q0 79 17 159.5t50.5 155t83.5 139.5t115.5 113t146 75.5t176.5 27.5q28 0 55.5 -6.5t51.5 -17t44 -23.5t34 -27l30 49h140q-5 -12 -11 -28.5t-12 -33.5t-10.5 -32t-5.5 -23q-7 -27 -20 -81.5t-27.5 -122.5t-30 -142.5t-27.5 -141t-20 -118t-8 -74.5q0 -54 23 -74 t65 -20q10 0 29.5 4.5t40.5 10.5t39 11t26 7v-74q-12 -5 -44 -18.5t-71.5 -27t-80 -24t-70.5 -10.5q-37 0 -62.5 9t-42 27t-25.5 44t-12 60q-23 -22 -54 -46.5t-68.5 -45.5t-80 -34.5t-88.5 -13.5q-60 0 -105.5 17t-78.5 45.5t-54.5 66t-34.5 78t-18 82t-5 78.5zM268 354 q0 -43 7 -86t24.5 -78t48 -57t78.5 -22q36 0 72 16t67 37t54 42t34 32l107 565q1 5 -7.5 23t-20.5 37.5t-25.5 34.5t-22.5 15q-78 0 -139.5 -25.5t-107.5 -69t-78.5 -100.5t-52.5 -119t-29 -125t-9 -120zM418 1311q0 22 9 42.5t24 36.5t35 25.5t42 9.5q23 0 43.5 -9t36 -24 t24.5 -35.5t9 -43.5t-9 -44t-24.5 -37t-36 -25t-43.5 -9q-22 0 -42 9t-35 25t-24 36t-9 43zM842 1313q0 21 9.5 41.5t25 36t36 25t41.5 9.5q23 0 43.5 -9t35.5 -24t23.5 -35.5t8.5 -43.5t-8.5 -44t-23.5 -37t-35.5 -25t-43.5 -9t-43.5 9t-35.5 25t-24 37t-9 44z" />
<glyph unicode="&#x4d4;" horiz-adv-x="1917" d="M-109 0v86l99 10q14 2 25.5 13t25.5 26l899 1102q11 12 8.5 25.5t-14.5 15.5l-115 10v86h1143l-61 -307h-132v166q0 22 -7.5 30.5t-30.5 8.5h-369l-98 -504h256q21 0 32 8.5t17 30.5l39 137h116l-92 -469h-114l18 146q6 41 -39 41h-254l-108 -560h462q20 0 31.5 11.5 t18.5 29.5l63 197h125l-66 -340h-1001v86l125 10q19 2 28 15t11 24l76 383h-461l-316 -383q-11 -12 1 -24t38 -15l88 -10v-86h-467zM633 627h395l121 626z" />
<glyph unicode="&#x4d5;" horiz-adv-x="1526" d="M66 342q0 79 17 159.5t50.5 155t83.5 139.5t115.5 113t146 75.5t176.5 27.5q28 0 50.5 -6.5t41 -17t33.5 -23.5t29 -27l33 49h137q-3 -8 -7 -21t-9 -28l-9 -29q-4 -14 -8 -24q66 54 141.5 89.5t155.5 35.5q71 0 118 -23.5t75.5 -56.5t40.5 -68t12 -57q0 -56 -27.5 -103 t-74 -85t-107 -67.5t-127.5 -50t-135 -33t-129 -15.5q-2 -10 -5 -22.5t-6 -25.5t-5.5 -25.5t-2.5 -21.5q0 -68 5.5 -116.5t25.5 -80t58.5 -46.5t105.5 -15q69 0 152 50t194 149v-129q-28 -28 -69.5 -61.5t-95 -63t-116.5 -49t-133 -19.5q-60 0 -107.5 6t-84 26.5t-62.5 58 t-41 100.5q-34 -48 -75.5 -83.5t-86.5 -59.5t-90.5 -36t-87.5 -12q-60 0 -105.5 17t-78.5 45.5t-54.5 66t-34.5 78t-18 82t-5 78.5zM268 354q0 -43 7 -86t24.5 -78t48 -57t78.5 -22q30 0 64.5 13t66.5 32.5t58 42t40 41.5l105 561l-76 112q-78 0 -139.5 -25.5t-107.5 -69 t-78.5 -100.5t-52.5 -119t-29 -125t-9 -120zM897 528q43 4 90.5 16.5t93.5 31.5t87.5 43.5t72.5 54.5t49.5 63.5t18.5 69.5q0 40 -30 69t-83 29q-33 0 -66 -17t-63 -46t-57 -67t-49.5 -80t-38.5 -85t-25 -82z" />
<glyph unicode="&#x4d6;" horiz-adv-x="1143" d="M-31 0v86l119 10q43 3 49 39l213 1102q3 17 -5 28t-34 13l-114 10v86h991l-62 -307h-131v166q0 22 -8 30.5t-31 8.5h-393l-94 -504h274q22 0 33.5 8.5t18.5 30.5l39 137h114l-90 -469h-117l21 146q6 41 -39 41h-277l-106 -560h481q22 0 33.5 11.5t17.5 29.5l64 197h125 l-68 -340h-1024zM498 1708q0 21 7.5 43t21.5 40t33.5 29t43.5 11q7 0 19 -1.5t25 -4.5t24 -6.5t16 -6.5l37 -161q16 -14 42 -21.5t54 -7.5q45 0 81.5 18.5t64.5 44.5t46.5 55.5t28.5 51.5h78q-24 -57 -57.5 -106t-77.5 -85t-99.5 -56.5t-125.5 -20.5q-47 0 -93.5 11t-84 34 t-61 57.5t-23.5 81.5z" />
<glyph unicode="&#x4d7;" horiz-adv-x="889" d="M66 348q0 81 19.5 161.5t55 154t85.5 137t110 110t128.5 73t141.5 26.5q71 0 118.5 -23.5t76.5 -56.5t41 -68t12 -57q0 -56 -26 -103t-70.5 -85t-103 -67.5t-123 -50t-131.5 -33t-128 -15.5q-3 -20 -5.5 -48t-2.5 -47q0 -56 13.5 -103t39 -81.5t61.5 -54t81 -19.5 q69 0 152 50t196 149v-129q-29 -28 -71 -61.5t-95.5 -63t-116.5 -49t-133 -19.5q-31 0 -67.5 6t-72.5 21.5t-69.5 42.5t-59 68.5t-41 99t-15.5 135.5zM281 528q65 6 134.5 30t126.5 61.5t93.5 85.5t36.5 102q0 20 -8 39.5t-22 34.5t-35 24.5t-46 9.5q-34 0 -65 -18 t-59.5 -48t-53 -69t-44 -82t-34.5 -87t-24 -83zM406 1296q0 19 7 39t19.5 36t30.5 26t39 10q7 0 18 -1.5t23 -3.5t22 -5t15 -6l33 -148q14 -12 38.5 -19t49.5 -7q41 0 74 16.5t58 40.5t42 50.5t26 47.5h70q-22 -51 -52 -95.5t-70 -77.5t-91 -52t-115 -19q-42 0 -84.5 10 t-76 31t-55 52.5t-21.5 74.5z" />
<glyph unicode="&#x4d8;" horiz-adv-x="1231" d="M43 270q0 122 53.5 216t166 157.5t286.5 96.5t414 34q3 25 4.5 47.5t1.5 48.5q0 79 -22.5 154.5t-64.5 134.5t-101 95t-132 36q-71 0 -135.5 -25.5t-124 -65t-114 -86.5t-105.5 -89v158q64 58 118 100.5t111.5 70t126 41t160.5 13.5q46 0 102 -12t112.5 -37.5 t109.5 -66.5t94 -99.5t65.5 -135.5t24.5 -175q0 -116 -20.5 -228.5t-62 -214t-104 -188t-147 -149.5t-191 -98.5t-235.5 -35.5q-78 0 -137.5 17t-103 44.5t-72.5 61.5t-46.5 67.5t-24.5 63.5t-7 49zM291 268q0 -32 16.5 -65.5t43 -62t59.5 -46.5t65 -18q83 0 157 47.5 t134.5 128t106.5 186t73 221.5q-186 -2 -311.5 -33.5t-202 -85t-109 -124t-32.5 -148.5z" />
<glyph unicode="&#x4d9;" horiz-adv-x="889" d="M37 182q0 56 26 103t70 85t102.5 67.5t122.5 50.5t130.5 33t127.5 16q4 18 6.5 45.5t2.5 46.5q0 56 -13.5 103.5t-39 82.5t-61.5 54.5t-81 19.5q-69 0 -152 -50t-194 -149v127q28 28 69.5 62t95 63t116.5 48.5t133 19.5q31 0 67.5 -6t72.5 -21.5t69.5 -42.5t59 -68.5 t41 -99t15.5 -135.5q0 -81 -19.5 -161t-55.5 -153.5t-85.5 -137t-109.5 -110.5t-128.5 -73.5t-141.5 -26.5q-71 0 -118 24t-75.5 57.5t-40.5 68.5t-12 57zM217 180q0 -21 8 -40.5t22 -35t34.5 -25t46.5 -9.5q51 0 96 38.5t81.5 96.5t63 125.5t39.5 126.5 q-65 -6 -134.5 -29.5t-126.5 -60.5t-93.5 -84.5t-36.5 -102.5z" />
<glyph unicode="&#x4da;" horiz-adv-x="1231" d="M43 270q0 122 53.5 216t166 157.5t286.5 96.5t414 34q3 25 4.5 47.5t1.5 48.5q0 79 -22.5 154.5t-64.5 134.5t-101 95t-132 36q-71 0 -135.5 -25.5t-124 -65t-114 -86.5t-105.5 -89v158q64 58 118 100.5t111.5 70t126 41t160.5 13.5q46 0 102 -12t112.5 -37.5 t109.5 -66.5t94 -99.5t65.5 -135.5t24.5 -175q0 -116 -20.5 -228.5t-62 -214t-104 -188t-147 -149.5t-191 -98.5t-235.5 -35.5q-78 0 -137.5 17t-103 44.5t-72.5 61.5t-46.5 67.5t-24.5 63.5t-7 49zM291 268q0 -32 16.5 -65.5t43 -62t59.5 -46.5t65 -18q83 0 157 47.5 t134.5 128t106.5 186t73 221.5q-186 -2 -311.5 -33.5t-202 -85t-109 -124t-32.5 -148.5zM484 1711q0 22 9 42.5t24 36.5t35 25.5t42 9.5q23 0 43.5 -9t36 -24t24.5 -35.5t9 -43.5t-9 -44t-24.5 -37t-36 -25t-43.5 -9q-22 0 -42 9t-35 25t-24 36t-9 43zM908 1713 q0 21 9.5 41.5t25 36t36 25t41.5 9.5q23 0 43.5 -9t35.5 -24t23.5 -35.5t8.5 -43.5t-8.5 -44t-23.5 -37t-35.5 -25t-43.5 -9t-43.5 9t-35.5 25t-24 37t-9 44z" />
<glyph unicode="&#x4db;" horiz-adv-x="889" d="M37 182q0 56 26 103t70 85t102.5 67.5t122.5 50.5t130.5 33t127.5 16q4 18 6.5 45.5t2.5 46.5q0 56 -13.5 103.5t-39 82.5t-61.5 54.5t-81 19.5q-69 0 -152 -50t-194 -149v127q28 28 69.5 62t95 63t116.5 48.5t133 19.5q31 0 67.5 -6t72.5 -21.5t69.5 -42.5t59 -68.5 t41 -99t15.5 -135.5q0 -81 -19.5 -161t-55.5 -153.5t-85.5 -137t-109.5 -110.5t-128.5 -73.5t-141.5 -26.5q-71 0 -118 24t-75.5 57.5t-40.5 68.5t-12 57zM217 180q0 -21 8 -40.5t22 -35t34.5 -25t46.5 -9.5q51 0 96 38.5t81.5 96.5t63 125.5t39.5 126.5 q-65 -6 -134.5 -29.5t-126.5 -60.5t-93.5 -84.5t-36.5 -102.5zM231 1311q0 22 9 42.5t24 36.5t35 25.5t42 9.5q23 0 43.5 -9t36 -24t24.5 -35.5t9 -43.5t-9 -44t-24.5 -37t-36 -25t-43.5 -9q-22 0 -42 9t-35 25t-24 36t-9 43zM655 1313q0 21 9.5 41.5t25 36t36 25t41.5 9.5 q23 0 43.5 -9t35.5 -24t23.5 -35.5t8.5 -43.5t-8.5 -44t-23.5 -37t-35.5 -25t-43.5 -9t-43.5 9t-35.5 25t-24 37t-9 44z" />
<glyph unicode="&#x4dc;" horiz-adv-x="1825" d="M-88 0v88l168 10l375 457q34 42 83 71t111 40q-38 31 -62.5 74.5t-41.5 111.5q-14 51 -16.5 103.5t-6.5 103t-16 97t-45 87.5l-230 -88q-29 29 -40 63.5t-11 69.5q0 24 17 45.5t44.5 38t62.5 26t71 9.5q52 0 98.5 -16.5t75.5 -53.5q30 -36 45.5 -75.5t22.5 -80t9.5 -82 t5.5 -83t10 -81.5t24 -77q15 -32 25.5 -57.5t28 -44.5t46 -29t78.5 -10l102 516q3 14 -5 27.5t-30 15.5l-110 10v88h528v-88l-125 -10q-21 -2 -34.5 -15.5t-16.5 -27.5l-102 -516q51 0 83.5 10t57 29t45.5 44.5t47 57.5q48 56 77.5 117.5t58.5 124t67 123t104 114.5 q45 37 96.5 53.5t104.5 16.5q36 0 63.5 -9.5t46 -26t28 -38t9.5 -45.5q0 -18 -8 -35.5t-22 -34t-32.5 -32.5t-39.5 -31l-195 88q-49 -41 -79.5 -87.5t-54.5 -97t-46.5 -103t-56.5 -103.5q-45 -68 -89.5 -115t-90.5 -71q52 -14 93 -43.5t58 -67.5l195 -457l139 -10v-88h-344 v66l-213 475q-17 35 -46.5 51.5t-76.5 19.5l-92 -471q-3 -14 4 -27.5t29 -15.5l104 -10v-88h-528v88l131 10q22 2 35.5 15.5t15.5 27.5l94 471q-48 -3 -84 -19.5t-65 -51.5l-402 -475v-66h-360zM790 1711q0 22 9 42.5t24 36.5t35 25.5t42 9.5q23 0 43.5 -9t36 -24 t24.5 -35.5t9 -43.5t-9 -44t-24.5 -37t-36 -25t-43.5 -9q-22 0 -42 9t-35 25t-24 36t-9 43zM1214 1713q0 21 9.5 41.5t25 36t36 25t41.5 9.5q23 0 43.5 -9t35.5 -24t23.5 -35.5t8.5 -43.5t-8.5 -44t-23.5 -37t-35.5 -25t-43.5 -9t-43.5 9t-35.5 25t-24 37t-9 44z" />
<glyph unicode="&#x4dd;" horiz-adv-x="1880" d="M66 119q0 20 6 41t23.5 39.5t48 32.5t79.5 20l99 -158q46 0 83.5 26.5t67.5 69.5t52 98t36.5 111.5t21.5 110.5t7 96q0 50 -10.5 99t-31.5 87.5t-51 62.5t-69 24q-41 0 -79.5 -14.5t-77.5 -41t-79 -62.5t-83 -79v129q31 31 69 66t84.5 65t102.5 50t124 20q61 0 115 -25.5 t94.5 -74t64 -119.5t23.5 -162q0 -20 -1 -38.5t-3 -37.5h74l86 432h191l-86 -432h75q30 100 84.5 183.5t121.5 144.5t139.5 95t138.5 34q55 0 94.5 -14t65 -35t37.5 -46.5t12 -48.5q0 -20 -6.5 -41t-23.5 -39t-48 -32.5t-80 -20.5l-98 158q-46 0 -84 -26.5t-68 -70t-52 -98 t-36.5 -111.5t-21.5 -111t-7 -95q0 -50 10.5 -98.5t31.5 -87t51 -62.5t69 -24q41 0 79.5 14.5t77.5 40.5t79 62t84 79v-129q-32 -31 -69.5 -66t-84 -65t-103 -50t-124.5 -20q-61 0 -115 25.5t-94.5 74t-64 119.5t-23.5 162q0 25 1.5 49.5t6.5 47.5h-78l-90 -453h-191l93 453 h-74q-28 -104 -82 -191.5t-121.5 -151.5t-142 -99.5t-142.5 -35.5q-55 0 -94.5 14t-64.5 35t-37 46.5t-12 48.5zM784 1311q0 22 9 42.5t24 36.5t35 25.5t42 9.5q23 0 43.5 -9t36 -24t24.5 -35.5t9 -43.5t-9 -44t-24.5 -37t-36 -25t-43.5 -9q-22 0 -42 9t-35 25t-24 36t-9 43 zM1208 1313q0 21 9.5 41.5t25 36t36 25t41.5 9.5q23 0 43.5 -9t35.5 -24t23.5 -35.5t8.5 -43.5t-8.5 -44t-23.5 -37t-35.5 -25t-43.5 -9t-43.5 9t-35.5 25t-24 37t-9 44z" />
<glyph unicode="&#x4de;" horiz-adv-x="1118" d="M-18 39l61 321h125l-8 -186q-1 -19 13 -34t36 -27.5t49.5 -22t53.5 -15.5t48.5 -9t34.5 -3q79 0 154.5 29t134 80.5t94 121.5t35.5 152q0 58 -24 97.5t-62 64t-86.5 35t-97.5 10.5q-28 0 -61.5 -1t-59.5 -7l22 121l62 -2q71 -2 139 20t121.5 64.5t86 105t32.5 140.5 q0 51 -20.5 90.5t-54 65.5t-77.5 39.5t-92 13.5q-26 0 -66 -9t-79.5 -25t-72 -39t-42.5 -50l-68 -187h-123l62 312q58 26 113 45t110.5 32t113 19t120.5 6q65 0 133.5 -15.5t125 -50t92.5 -88.5t36 -131q0 -81 -38 -146.5t-98 -115t-132.5 -84t-141.5 -53.5q61 -4 119.5 -22 t105 -52t75 -84.5t28.5 -118.5q0 -88 -27 -157.5t-73.5 -123t-109 -91t-134 -61.5t-147.5 -35t-150 -11q-53 0 -102 5t-96.5 14.5t-95 23t-97.5 29.5zM404 1711q0 22 9 42.5t24 36.5t35 25.5t42 9.5q23 0 43.5 -9t36 -24t24.5 -35.5t9 -43.5t-9 -44t-24.5 -37t-36 -25 t-43.5 -9q-22 0 -42 9t-35 25t-24 36t-9 43zM828 1713q0 21 9.5 41.5t25 36t36 25t41.5 9.5q23 0 43.5 -9t35.5 -24t23.5 -35.5t8.5 -43.5t-8.5 -44t-23.5 -37t-35.5 -25t-43.5 -9t-43.5 9t-35.5 25t-24 37t-9 44z" />
<glyph unicode="&#x4df;" horiz-adv-x="907" d="M-33 27l47 231h99v-115q0 -13 11.5 -23.5t30 -19t40.5 -15t43 -11t38.5 -6.5t26.5 -2q59 0 112.5 16.5t94 49t64.5 80.5t24 112q0 39 -17 65.5t-44.5 42t-62 22.5t-68.5 7q-25 0 -47.5 -1.5t-41.5 -6.5l21 106l41 -2q54 -2 102 11.5t84.5 43t58 73.5t21.5 103 q0 39 -14.5 64.5t-38.5 41t-55 22t-64 6.5q-18 0 -49.5 -6t-63.5 -17.5t-58.5 -27.5t-35.5 -37l-47 -119h-98l45 223q91 37 177.5 55.5t184.5 18.5q48 0 103 -11t102.5 -35.5t79 -64.5t31.5 -98q0 -60 -24.5 -107t-64.5 -82.5t-91 -59t-103 -36.5q44 -2 85 -13.5t72.5 -34.5 t50.5 -58t19 -84q0 -69 -22 -122t-59.5 -92t-87.5 -65.5t-106 -43t-115 -23.5t-115 -7q-82 0 -159.5 14.5t-156.5 37.5zM249 1311q0 22 9 42.5t24 36.5t35 25.5t42 9.5q23 0 43.5 -9t36 -24t24.5 -35.5t9 -43.5t-9 -44t-24.5 -37t-36 -25t-43.5 -9q-22 0 -42 9t-35 25 t-24 36t-9 43zM673 1313q0 21 9.5 41.5t25 36t36 25t41.5 9.5q23 0 43.5 -9t35.5 -24t23.5 -35.5t8.5 -43.5t-8.5 -44t-23.5 -37t-35.5 -25t-43.5 -9t-43.5 9t-35.5 25t-24 37t-9 44z" />
<glyph unicode="&#x4e0;" horiz-adv-x="1151" d="M-9 262q5 27 19 54.5t35 49.5t49 36t63 14q8 0 18 -1.5t20.5 -4t19.5 -6.5t15 -9l-3 -242q38 -35 93.5 -53t125.5 -18t134.5 22.5t116 65t88 104t51.5 139.5q19 97 6.5 157.5t-45.5 94.5t-80.5 45.5t-98.5 11.5q-32 0 -62 -10.5t-41 -18.5l-50 72l484 415h-511 q-8 0 -17 -5.5t-17.5 -14t-14.5 -18t-8 -18.5l-60 -200h-115l86 450h897l-28 -147l-464 -403q106 0 184.5 -25.5t126.5 -77.5t63.5 -129.5t-4.5 -180.5q-23 -119 -86.5 -203t-155 -137.5t-203 -78.5t-229.5 -25q-117 0 -197.5 28t-129 71.5t-66.5 95.5t-9 100z" />
<glyph unicode="&#x4e1;" horiz-adv-x="971" d="M-121 -213q0 31 10 58t27.5 47.5t42 32.5t53.5 12q19 0 43.5 -8.5t42.5 -14.5l49 -213q25 -38 57.5 -50.5t74.5 -12.5q73 0 139.5 33.5t116 88t79 123.5t29.5 140q0 54 -23.5 104t-62 88.5t-88 62.5t-100.5 27l-76 -100l-113 94l582 520q-47 -2 -91 -4q-38 -2 -77.5 -3 t-65.5 -1q-28 0 -56 7t-56 15.5t-56.5 15.5t-58.5 7q-31 0 -61 -17.5t-45 -41.5l104 -131q-8 -13 -19.5 -25.5t-26 -22t-31 -15t-32.5 -5.5q-25 0 -45.5 10t-34.5 26.5t-22 38.5t-8 46q0 57 22 109.5t60.5 93.5t89.5 65.5t108 24.5q52 0 102 -14.5t99 -31.5t97.5 -31.5 t99.5 -14.5q21 0 42.5 4.5t43.5 7.5l65 92l131 -98l-577 -535q80 -4 149 -29t120 -71.5t80.5 -113.5t29.5 -154q0 -77 -24 -143t-66.5 -120.5t-99 -97t-122 -72t-135.5 -44.5t-139 -15q-72 0 -140 18t-120.5 51t-84.5 80.5t-32 106.5z" />
<glyph unicode="&#x4e2;" horiz-adv-x="1458" d="M-41 0v88l127 8q22 2 35.5 16.5t15.5 26.5l217 1096q3 12 -5 26t-30 17l-106 8v88h532v-88l-131 -8q-23 -2 -36.5 -16.5t-16.5 -26.5l-160 -809l758 743l12 66q4 12 -3.5 26t-28.5 17l-117 8v88h520v-88l-110 -8q-23 -3 -37 -17t-17 -26l-215 -1096q-3 -12 5 -26.5 t28 -16.5l121 -8v-88h-531v88l117 8q23 2 36.5 16.5t16.5 26.5l166 844l-757 -741l-21 -103q-2 -12 6.5 -26.5t30.5 -16.5l119 -8v-88h-541zM608 1600l29 135h617l-26 -135h-620z" />
<glyph unicode="&#x4e3;" horiz-adv-x="1079" d="M53 889v59l309 64h84l-163 -781q-6 -26 2.5 -49.5t25 -41t37.5 -28t41 -10.5q37 0 74.5 10.5t74.5 28.5t71 41.5t63 50.5l155 754h191l-164 -788q-7 -32 0 -53.5t21.5 -35.5t33 -20t35.5 -6q20 0 53 6t76 31v-72q-19 -11 -52.5 -24t-72.5 -24t-79.5 -18.5t-73.5 -7.5 q-58 0 -86 19.5t-38.5 45t-9.5 51.5t1 38q-81 -77 -169.5 -115.5t-191.5 -38.5q-71 0 -116 25t-68 63t-28 83t3 85l133 639zM396 1200l29 135h617l-26 -135h-620z" />
<glyph unicode="&#x4e4;" horiz-adv-x="1458" d="M-41 0v88l127 8q22 2 35.5 16.5t15.5 26.5l217 1096q3 12 -5 26t-30 17l-106 8v88h532v-88l-131 -8q-23 -2 -36.5 -16.5t-16.5 -26.5l-160 -809l758 743l12 66q4 12 -3.5 26t-28.5 17l-117 8v88h520v-88l-110 -8q-23 -3 -37 -17t-17 -26l-215 -1096q-3 -12 5 -26.5 t28 -16.5l121 -8v-88h-531v88l117 8q23 2 36.5 16.5t16.5 26.5l166 844l-757 -741l-21 -103q-2 -12 6.5 -26.5t30.5 -16.5l119 -8v-88h-541zM617 1711q0 22 9 42.5t24 36.5t35 25.5t42 9.5q23 0 43.5 -9t36 -24t24.5 -35.5t9 -43.5t-9 -44t-24.5 -37t-36 -25t-43.5 -9 q-22 0 -42 9t-35 25t-24 36t-9 43zM1041 1713q0 21 9.5 41.5t25 36t36 25t41.5 9.5q23 0 43.5 -9t35.5 -24t23.5 -35.5t8.5 -43.5t-8.5 -44t-23.5 -37t-35.5 -25t-43.5 -9t-43.5 9t-35.5 25t-24 37t-9 44z" />
<glyph unicode="&#x4e5;" horiz-adv-x="1079" d="M53 889v59l309 64h84l-163 -781q-6 -26 2.5 -49.5t25 -41t37.5 -28t41 -10.5q37 0 74.5 10.5t74.5 28.5t71 41.5t63 50.5l155 754h191l-164 -788q-7 -32 0 -53.5t21.5 -35.5t33 -20t35.5 -6q20 0 53 6t76 31v-72q-19 -11 -52.5 -24t-72.5 -24t-79.5 -18.5t-73.5 -7.5 q-58 0 -86 19.5t-38.5 45t-9.5 51.5t1 38q-81 -77 -169.5 -115.5t-191.5 -38.5q-71 0 -116 25t-68 63t-28 83t3 85l133 639zM405 1311q0 22 9 42.5t24 36.5t35 25.5t42 9.5q23 0 43.5 -9t36 -24t24.5 -35.5t9 -43.5t-9 -44t-24.5 -37t-36 -25t-43.5 -9q-22 0 -42 9t-35 25 t-24 36t-9 43zM829 1313q0 21 9.5 41.5t25 36t36 25t41.5 9.5q23 0 43.5 -9t35.5 -24t23.5 -35.5t8.5 -43.5t-8.5 -44t-23.5 -37t-35.5 -25t-43.5 -9t-43.5 9t-35.5 25t-24 37t-9 44z" />
<glyph unicode="&#x4e6;" horiz-adv-x="1454" d="M98 537q0 110 25 217t72.5 204t115 179t152 142t185 94t212.5 34q127 0 230 -43.5t175 -118.5t111 -176t39 -215q0 -108 -23 -215.5t-67 -206.5t-109 -183.5t-149.5 -147.5t-188 -98.5t-223.5 -35.5q-123 0 -225 40.5t-176 115.5t-115 180t-41 234zM330 520 q0 -104 26.5 -186.5t72 -140t107.5 -88.5t134 -31q75 0 142 33.5t124 91t102.5 134.5t77.5 163.5t49 178.5t17 179q0 102 -25.5 185t-71 142.5t-108 91.5t-135.5 32q-75 0 -142 -33t-124 -90t-102.5 -133.5t-77.5 -163.5t-49 -180.5t-17 -184.5zM612 1711q0 22 9 42.5 t24 36.5t35 25.5t42 9.5q23 0 43.5 -9t36 -24t24.5 -35.5t9 -43.5t-9 -44t-24.5 -37t-36 -25t-43.5 -9q-22 0 -42 9t-35 25t-24 36t-9 43zM1036 1713q0 21 9.5 41.5t25 36t36 25t41.5 9.5q23 0 43.5 -9t35.5 -24t23.5 -35.5t8.5 -43.5t-8.5 -44t-23.5 -37t-35.5 -25 t-43.5 -9t-43.5 9t-35.5 25t-24 37t-9 44z" />
<glyph unicode="&#x4e7;" horiz-adv-x="1036" d="M63 362q0 83 18 163.5t51.5 152.5t81.5 133.5t108.5 106t132 69.5t151.5 25q74 0 140.5 -23t117 -72t80 -124t29.5 -179q0 -83 -18.5 -162.5t-53 -150.5t-83 -130.5t-109 -103t-131.5 -68t-150 -24.5q-84 0 -152 27t-115 77.5t-72.5 122t-25.5 160.5zM270 373 q0 -76 14 -133t39 -95.5t58 -57.5t72 -19q48 0 90.5 24.5t77 66t61.5 96.5t46 116.5t28.5 126.5t9.5 125q0 73 -14 129t-38 94t-57.5 58t-72.5 20q-67 0 -124.5 -48.5t-99.5 -127t-66 -177t-24 -198.5zM362 1311q0 22 9 42.5t24 36.5t35 25.5t42 9.5q23 0 43.5 -9t36 -24 t24.5 -35.5t9 -43.5t-9 -44t-24.5 -37t-36 -25t-43.5 -9q-22 0 -42 9t-35 25t-24 36t-9 43zM786 1313q0 21 9.5 41.5t25 36t36 25t41.5 9.5q23 0 43.5 -9t35.5 -24t23.5 -35.5t8.5 -43.5t-8.5 -44t-23.5 -37t-35.5 -25t-43.5 -9t-43.5 9t-35.5 25t-24 37t-9 44z" />
<glyph unicode="&#x4e8;" horiz-adv-x="1454" d="M98 537q0 110 25 217t72.5 204t115 179t152 142t185 94t212.5 34q127 0 230 -43.5t175 -118.5t111 -176t39 -215q0 -108 -23 -215.5t-67 -206.5t-109 -183.5t-149.5 -147.5t-188 -98.5t-223.5 -35.5q-123 0 -225 40.5t-176 115.5t-115 180t-41 234zM330 520 q0 -104 26.5 -186.5t72 -140t107.5 -88.5t134 -31q92 0 172 50.5t144 133.5t109.5 189.5t67.5 218.5h-823q-5 -38 -7.5 -73.5t-2.5 -72.5zM358 762h820q2 23 3 46.5t1 45.5q0 102 -25.5 185t-71 142.5t-108 91.5t-135.5 32q-88 0 -165 -45t-139.5 -120t-108.5 -173t-71 -205 z" />
<glyph unicode="&#x4e9;" horiz-adv-x="1036" d="M63 362q0 83 18 163.5t51.5 152.5t81.5 133.5t108.5 106t132 69.5t151.5 25q74 0 140.5 -23t117 -72t80 -124t29.5 -179q0 -83 -18.5 -162.5t-53 -150.5t-83 -130.5t-109 -103t-131.5 -68t-150 -24.5q-84 0 -152 27t-115 77.5t-72.5 122t-25.5 160.5zM270 373 q0 -76 14 -133t39 -95.5t58 -57.5t72 -19q57 0 104 32t84.5 85.5t64.5 123t42 144.5h-474q-2 -20 -3 -40t-1 -40zM291 555h471q2 17 3 34t1 34q0 73 -14 129t-38 94t-57.5 58t-72.5 20q-52 0 -98 -29.5t-83.5 -79.5t-66 -117.5t-45.5 -142.5z" />
<glyph unicode="&#x4ea;" horiz-adv-x="1454" d="M98 537q0 110 25 217t72.5 204t115 179t152 142t185 94t212.5 34q127 0 230 -43.5t175 -118.5t111 -176t39 -215q0 -108 -23 -215.5t-67 -206.5t-109 -183.5t-149.5 -147.5t-188 -98.5t-223.5 -35.5q-123 0 -225 40.5t-176 115.5t-115 180t-41 234zM330 520 q0 -104 26.5 -186.5t72 -140t107.5 -88.5t134 -31q92 0 172 50.5t144 133.5t109.5 189.5t67.5 218.5h-823q-5 -38 -7.5 -73.5t-2.5 -72.5zM358 762h820q2 23 3 46.5t1 45.5q0 102 -25.5 185t-71 142.5t-108 91.5t-135.5 32q-88 0 -165 -45t-139.5 -120t-108.5 -173t-71 -205 zM612 1711q0 22 9 42.5t24 36.5t35 25.5t42 9.5q23 0 43.5 -9t36 -24t24.5 -35.5t9 -43.5t-9 -44t-24.5 -37t-36 -25t-43.5 -9q-22 0 -42 9t-35 25t-24 36t-9 43zM1036 1713q0 21 9.5 41.5t25 36t36 25t41.5 9.5q23 0 43.5 -9t35.5 -24t23.5 -35.5t8.5 -43.5t-8.5 -44 t-23.5 -37t-35.5 -25t-43.5 -9t-43.5 9t-35.5 25t-24 37t-9 44z" />
<glyph unicode="&#x4eb;" horiz-adv-x="1036" d="M63 362q0 83 18 163.5t51.5 152.5t81.5 133.5t108.5 106t132 69.5t151.5 25q74 0 140.5 -23t117 -72t80 -124t29.5 -179q0 -83 -18.5 -162.5t-53 -150.5t-83 -130.5t-109 -103t-131.5 -68t-150 -24.5q-84 0 -152 27t-115 77.5t-72.5 122t-25.5 160.5zM270 373 q0 -76 14 -133t39 -95.5t58 -57.5t72 -19q57 0 104 32t84.5 85.5t64.5 123t42 144.5h-474q-2 -20 -3 -40t-1 -40zM291 555h471q2 17 3 34t1 34q0 73 -14 129t-38 94t-57.5 58t-72.5 20q-52 0 -98 -29.5t-83.5 -79.5t-66 -117.5t-45.5 -142.5zM362 1311q0 22 9 42.5t24 36.5 t35 25.5t42 9.5q23 0 43.5 -9t36 -24t24.5 -35.5t9 -43.5t-9 -44t-24.5 -37t-36 -25t-43.5 -9q-22 0 -42 9t-35 25t-24 36t-9 43zM786 1313q0 21 9.5 41.5t25 36t36 25t41.5 9.5q23 0 43.5 -9t35.5 -24t23.5 -35.5t8.5 -43.5t-8.5 -44t-23.5 -37t-35.5 -25t-43.5 -9t-43.5 9 t-35.5 25t-24 37t-9 44z" />
<glyph unicode="&#x4ec;" horiz-adv-x="1290" d="M29 47l55 322h121v-191q0 -17 11.5 -33.5t25.5 -21.5q4 -2 17.5 -10.5t36 -17.5t53 -16t67.5 -7q100 0 196.5 40.5t177 116t139.5 183t85 241.5h-578l19 95h571q3 24 3.5 50t0.5 52q0 115 -33 200t-90 141.5t-133 84t-162 27.5q-33 0 -59.5 -5t-46 -11t-31.5 -12t-16 -7 q-13 -2 -27 -14.5t-20 -26.5l-90 -234h-119l55 332q11 4 50 17t97 27.5t129 26t146 11.5q152 0 260 -49.5t176.5 -131t100.5 -186t32 -213.5t-27 -215t-78 -201.5t-124 -177t-164.5 -140.5t-199.5 -92.5t-230 -33.5q-50 0 -96.5 5.5t-94 16t-98 25.5t-108.5 33zM505 1711 q0 22 9 42.5t24 36.5t35 25.5t42 9.5q23 0 43.5 -9t36 -24t24.5 -35.5t9 -43.5t-9 -44t-24.5 -37t-36 -25t-43.5 -9q-22 0 -42 9t-35 25t-24 36t-9 43zM929 1713q0 21 9.5 41.5t25 36t36 25t41.5 9.5q23 0 43.5 -9t35.5 -24t23.5 -35.5t8.5 -43.5t-8.5 -44t-23.5 -37 t-35.5 -25t-43.5 -9t-43.5 9t-35.5 25t-24 37t-9 44z" />
<glyph unicode="&#x4ed;" horiz-adv-x="942" d="M-33 29l49 241h90l3 -155q0 -18 22 -31q14 -5 32 -9q16 -4 39 -6.5t52 -2.5q83 0 146.5 24.5t111.5 73t81.5 121.5t57.5 170h-379l21 100h379q5 31 7.5 58.5t2.5 52.5q0 133 -63 195.5t-185 62.5q-31 0 -55.5 -4.5t-44 -10.5t-34 -12t-24.5 -10q-11 -5 -20 -15.5 t-12 -21.5l-45 -125h-93l48 236q46 13 85 22.5t75 16t70 9.5t69 3q100 0 178 -28.5t132 -80t82.5 -124.5t28.5 -161q0 -86 -22 -166.5t-62.5 -152t-97.5 -131t-126.5 -102.5t-150 -67t-167.5 -24q-57 0 -108 8t-89 19q-46 11 -84 27zM272 1311q0 22 9 42.5t24 36.5t35 25.5 t42 9.5q23 0 43.5 -9t36 -24t24.5 -35.5t9 -43.5t-9 -44t-24.5 -37t-36 -25t-43.5 -9q-22 0 -42 9t-35 25t-24 36t-9 43zM696 1313q0 21 9.5 41.5t25 36t36 25t41.5 9.5q23 0 43.5 -9t35.5 -24t23.5 -35.5t8.5 -43.5t-8.5 -44t-23.5 -37t-35.5 -25t-43.5 -9t-43.5 9 t-35.5 25t-24 37t-9 44z" />
<glyph unicode="&#x4ee;" horiz-adv-x="1425" d="M129 96q0 15 10.5 32.5t28 35t40.5 35t48 32.5l203 -88q44 29 86 80t84 105l-316 946l-155 12v88h598v-88l-140 -6q-23 -2 -38 -15t-9 -30l215 -668l451 668q9 15 0 29t-31 16l-123 6v88h482v-88l-154 -14l-713 -1039q-38 -54 -81.5 -102.5t-94.5 -85t-109 -57.5 t-124 -21q-48 0 -78.5 12.5t-48 32t-24.5 42t-7 42.5zM633 1600l29 135h617l-26 -135h-620z" />
<glyph unicode="&#x4ef;" horiz-adv-x="1018" d="M-164 -334q0 23 10.5 44.5t29.5 38t45 26.5t56 12l119 -119q32 3 63 25.5t65.5 67.5t75.5 113t93 163q-2 12 -10 53.5t-19.5 101t-26 131.5t-30.5 146q-16 72 -33.5 144.5t-34 130.5t-29.5 95t-20 38l-186 14v51l28 9q20 7 44 14.5t51 16t51 15t43.5 11t28.5 4.5 q33 0 58 -15.5t44.5 -44.5t36 -69.5t31.5 -91.5q26 -91 54 -225.5t58 -299.5l312 746h59l170 -56v-47l-102 -63q-12 -12 -35 -44t-47.5 -72t-48 -82.5t-37.5 -74.5q-22 -49 -51.5 -119t-66 -150.5t-79.5 -167t-92 -169.5q-48 -81 -102.5 -159.5t-115.5 -140t-128.5 -99 t-140.5 -37.5q-56 0 -93 14t-59 34.5t-30.5 44t-8.5 42.5zM324 1200l29 135h617l-26 -135h-620z" />
<glyph unicode="&#x4f0;" horiz-adv-x="1425" d="M129 96q0 15 10.5 32.5t28 35t40.5 35t48 32.5l203 -88q44 29 86 80t84 105l-316 946l-155 12v88h598v-88l-140 -6q-23 -2 -38 -15t-9 -30l215 -668l451 668q9 15 0 29t-31 16l-123 6v88h482v-88l-154 -14l-713 -1039q-38 -54 -81.5 -102.5t-94.5 -85t-109 -57.5 t-124 -21q-48 0 -78.5 12.5t-48 32t-24.5 42t-7 42.5zM642 1711q0 22 9 42.5t24 36.5t35 25.5t42 9.5q23 0 43.5 -9t36 -24t24.5 -35.5t9 -43.5t-9 -44t-24.5 -37t-36 -25t-43.5 -9q-22 0 -42 9t-35 25t-24 36t-9 43zM1066 1713q0 21 9.5 41.5t25 36t36 25t41.5 9.5 q23 0 43.5 -9t35.5 -24t23.5 -35.5t8.5 -43.5t-8.5 -44t-23.5 -37t-35.5 -25t-43.5 -9t-43.5 9t-35.5 25t-24 37t-9 44z" />
<glyph unicode="&#x4f1;" horiz-adv-x="1018" d="M-164 -334q0 23 10.5 44.5t29.5 38t45 26.5t56 12l119 -119q32 3 63 25.5t65.5 67.5t75.5 113t93 163q-2 12 -10 53.5t-19.5 101t-26 131.5t-30.5 146q-16 72 -33.5 144.5t-34 130.5t-29.5 95t-20 38l-186 14v51l28 9q20 7 44 14.5t51 16t51 15t43.5 11t28.5 4.5 q33 0 58 -15.5t44.5 -44.5t36 -69.5t31.5 -91.5q26 -91 54 -225.5t58 -299.5l312 746h59l170 -56v-47l-102 -63q-12 -12 -35 -44t-47.5 -72t-48 -82.5t-37.5 -74.5q-22 -49 -51.5 -119t-66 -150.5t-79.5 -167t-92 -169.5q-48 -81 -102.5 -159.5t-115.5 -140t-128.5 -99 t-140.5 -37.5q-56 0 -93 14t-59 34.5t-30.5 44t-8.5 42.5zM333 1311q0 22 9 42.5t24 36.5t35 25.5t42 9.5q23 0 43.5 -9t36 -24t24.5 -35.5t9 -43.5t-9 -44t-24.5 -37t-36 -25t-43.5 -9q-22 0 -42 9t-35 25t-24 36t-9 43zM757 1313q0 21 9.5 41.5t25 36t36 25t41.5 9.5 q23 0 43.5 -9t35.5 -24t23.5 -35.5t8.5 -43.5t-8.5 -44t-23.5 -37t-35.5 -25t-43.5 -9t-43.5 9t-35.5 25t-24 37t-9 44z" />
<glyph unicode="&#x4f2;" horiz-adv-x="1425" d="M129 96q0 15 10.5 32.5t28 35t40.5 35t48 32.5l203 -88q44 29 86 80t84 105l-316 946l-155 12v88h598v-88l-140 -6q-23 -2 -38 -15t-9 -30l215 -668l451 668q9 15 0 29t-31 16l-123 6v88h482v-88l-154 -14l-713 -1039q-38 -54 -81.5 -102.5t-94.5 -85t-109 -57.5 t-124 -21q-48 0 -78.5 12.5t-48 32t-24.5 42t-7 42.5zM576 1528l276 320q20 23 46.5 37t72.5 14q27 0 46.5 -8t32.5 -20.5t19 -28.5t6 -31q0 -29 -13.5 -48.5t-35.5 -35.5l-309 -199h-141zM991 1528l279 320q10 12 21 21t24.5 16t31 10.5t40.5 3.5q27 0 46.5 -8t32 -20.5 t19 -28.5t6.5 -31q0 -29 -13.5 -48.5t-35.5 -35.5l-307 -199h-144z" />
<glyph unicode="&#x4f3;" horiz-adv-x="1018" d="M-164 -334q0 23 10.5 44.5t29.5 38t45 26.5t56 12l119 -119q32 3 63 25.5t65.5 67.5t75.5 113t93 163q-2 12 -10 53.5t-19.5 101t-26 131.5t-30.5 146q-16 72 -33.5 144.5t-34 130.5t-29.5 95t-20 38l-186 14v51l28 9q20 7 44 14.5t51 16t51 15t43.5 11t28.5 4.5 q33 0 58 -15.5t44.5 -44.5t36 -69.5t31.5 -91.5q26 -91 54 -225.5t58 -299.5l312 746h59l170 -56v-47l-102 -63q-12 -12 -35 -44t-47.5 -72t-48 -82.5t-37.5 -74.5q-22 -49 -51.5 -119t-66 -150.5t-79.5 -167t-92 -169.5q-48 -81 -102.5 -159.5t-115.5 -140t-128.5 -99 t-140.5 -37.5q-56 0 -93 14t-59 34.5t-30.5 44t-8.5 42.5zM267 1128l276 320q20 23 46.5 37t72.5 14q27 0 46.5 -8t32.5 -20.5t19 -28.5t6 -31q0 -29 -13.5 -48.5t-35.5 -35.5l-309 -199h-141zM682 1128l279 320q10 12 21 21t24.5 16t31 10.5t40.5 3.5q27 0 46.5 -8 t32 -20.5t19 -28.5t6.5 -31q0 -29 -13.5 -48.5t-35.5 -35.5l-307 -199h-144z" />
<glyph unicode="&#x4f4;" horiz-adv-x="1320" d="M209 1286v88h512v-88l-113 -8q-18 -2 -33 -14t-18 -29l-78 -393q-9 -48 -5.5 -81.5t21 -54t49 -29.5t79.5 -9q34 0 74.5 7.5t81 20t79.5 28.5t71 32l96 479q3 17 -6.5 28.5t-27.5 14.5l-99 8v88h514v-88l-123 -8q-18 -2 -33 -14t-18 -29l-217 -1096q-3 -17 6.5 -29 t28.5 -14l110 -8v-88h-512v88l109 8q19 2 33.5 14t17.5 29l96 486q-41 -23 -92 -45t-104.5 -39t-105 -28t-94.5 -11q-51 0 -102 14.5t-88 49.5t-54 93t0 146l86 430q3 17 -6.5 29t-28.5 14zM541 1711q0 22 9 42.5t24 36.5t35 25.5t42 9.5q23 0 43.5 -9t36 -24t24.5 -35.5 t9 -43.5t-9 -44t-24.5 -37t-36 -25t-43.5 -9q-22 0 -42 9t-35 25t-24 36t-9 43zM965 1713q0 21 9.5 41.5t25 36t36 25t41.5 9.5q23 0 43.5 -9t35.5 -24t23.5 -35.5t8.5 -43.5t-8.5 -44t-23.5 -37t-35.5 -25t-43.5 -9t-43.5 9t-35.5 25t-24 37t-9 44z" />
<glyph unicode="&#x4f5;" horiz-adv-x="987" d="M39 889v59l309 64h82l-78 -410q-14 -72 8.5 -106.5t96.5 -34.5q31 0 69.5 10t89.5 35l91 481h190l-154 -813q-5 -26 1 -41.5t17 -24t26 -11.5t30 -3q16 0 33 2.5t37 8t43.5 12.5t52.5 16v-74q-26 -14 -58 -28.5t-67.5 -27t-73.5 -20.5t-75 -8q-48 0 -82 14t-54.5 36 t-28 48.5t-1.5 51.5l57 301q-28 -14 -58.5 -27t-61.5 -23.5t-61.5 -17t-58.5 -6.5q-48 0 -90 12t-71 38.5t-41 69t0 103.5l55 295zM319 1311q0 22 9 42.5t24 36.5t35 25.5t42 9.5q23 0 43.5 -9t36 -24t24.5 -35.5t9 -43.5t-9 -44t-24.5 -37t-36 -25t-43.5 -9q-22 0 -42 9 t-35 25t-24 36t-9 43zM743 1313q0 21 9.5 41.5t25 36t36 25t41.5 9.5q23 0 43.5 -9t35.5 -24t23.5 -35.5t8.5 -43.5t-8.5 -44t-23.5 -37t-35.5 -25t-43.5 -9t-43.5 9t-35.5 25t-24 37t-9 44z" />
<glyph unicode="&#x4f6;" horiz-adv-x="1081" d="M-51 0v88l139 8q22 2 35.5 16.5t15.5 26.5l217 1096q3 12 -5 26t-29 17l-119 8v88h997l-74 -377h-106l12 240q1 13 -12.5 23t-26.5 10h-424l-223 -1131q-2 -12 5.5 -26t29.5 -17l106 -8l-100 -508h-102q43 218 -24 319t-236 101h-76z" />
<glyph unicode="&#x4f7;" horiz-adv-x="891" d="M25 227q0 48 28 95t74 89.5t105.5 78t121.5 61.5q75 29 134 60t100.5 64t63.5 67t22 69q0 18 -5 36t-17.5 32.5t-34 23t-54.5 8.5q-29 0 -55 -6.5t-51 -20.5t-51.5 -36t-57.5 -53l-67 61q66 86 150 121t187 35q57 0 102.5 -17t77.5 -44.5t49 -64t17 -75.5 q0 -52 -29.5 -94.5t-85.5 -81t-137 -75.5t-184 -79q-44 -18 -82.5 -46.5t-67 -62.5t-45 -71.5t-16.5 -73.5q0 -26 9 -53t26 -49.5t41 -36.5t55 -14q82 0 152.5 41.5t148.5 126.5l96 -43q-86 -100 -189 -160t-232 -64q-6 -10 -12.5 -23.5t-12.5 -27.5t-10 -26.5t-4 -18.5 q0 -9 7 -18t15.5 -22t15.5 -33.5t7 -51.5q0 -9 -8 -20t-21.5 -23t-30.5 -25t-35 -25q-41 -29 -94 -60l-20 45q19 15 34 30q13 13 24 27.5t11 28.5q0 13 -5.5 29.5t-11.5 33.5t-11.5 32.5t-5.5 27.5q0 8 10.5 24.5t25.5 35t32.5 36t31.5 29.5q-48 7 -90.5 25.5t-73.5 49 t-49 73.5t-18 99z" />
<glyph unicode="&#x4f8;" horiz-adv-x="1710" d="M-45 0v88l133 8q22 2 35.5 16.5t15.5 26.5l217 1096q3 12 -5 26t-29 17l-107 8v88h541v-88l-142 -8q-21 -2 -34.5 -16.5t-16.5 -26.5l-76 -387q27 2 54 5q23 2 49 3.5t49 1.5q100 0 180.5 -22t137.5 -65.5t88 -108t30 -148.5q0 -23 -2.5 -47.5t-7.5 -52.5 q-21 -108 -64 -186t-117 -128.5t-184 -75t-266 -24.5h-479zM340 102q15 -1 32 -2q14 -1 32 -1.5t38 -0.5q108 0 177.5 21t112.5 61.5t66 99.5t38 134q8 40 11 74t3 65q-2 106 -60.5 156.5t-189.5 50.5q-17 0 -39.5 -1.5t-43.5 -3.5q-25 -3 -50 -5zM743 1711q0 22 9 42.5 t24 36.5t35 25.5t42 9.5q23 0 43.5 -9t36 -24t24.5 -35.5t9 -43.5t-9 -44t-24.5 -37t-36 -25t-43.5 -9q-22 0 -42 9t-35 25t-24 36t-9 43zM1024 0v88l129 8q23 2 36.5 16t16.5 29l215 1092q3 15 -4 28t-28 15l-121 8v90h549v-90l-136 -8q-21 -2 -35.5 -15t-17.5 -28 l-215 -1092q-3 -15 5 -29t30 -16l115 -8v-88h-539zM1167 1713q0 21 9.5 41.5t25 36t36 25t41.5 9.5q23 0 43.5 -9t35.5 -24t23.5 -35.5t8.5 -43.5t-8.5 -44t-23.5 -37t-35.5 -25t-43.5 -9t-43.5 9t-35.5 25t-24 37t-9 44z" />
<glyph unicode="&#x4f9;" horiz-adv-x="1358" d="M39 889v59l309 64h82l-82 -424q13 6 29 12t32.5 11.5t32.5 8.5t29 3q78 0 143 -17.5t111.5 -51t72 -84t25.5 -116.5q0 -101 -37.5 -173t-98.5 -118t-137 -67t-153 -21q-49 0 -103 14t-99 43.5t-74 74t-29 106.5q0 12 1 25.5t3 27.5l117 604zM281 209q0 -45 17 -74.5 t42 -46t52 -23t48 -6.5q39 0 73 23.5t59.5 64t40 95t14.5 116.5q0 45 -9 78t-30 55t-56.5 33t-87.5 11q-10 0 -25.5 -4t-32 -9.5t-31.5 -12t-23 -11.5l-45 -236q-6 -30 -6 -53zM537 1311q0 22 9 42.5t24 36.5t35 25.5t42 9.5q23 0 43.5 -9t36 -24t24.5 -35.5t9 -43.5t-9 -44 t-24.5 -37t-36 -25t-43.5 -9q-22 0 -42 9t-35 25t-24 36t-9 43zM868 889v59l310 64h82l-154 -819q-5 -21 -0.5 -40t15 -33.5t27.5 -23t38 -8.5q18 0 42.5 6.5t49 15t45.5 16.5t31 11v-78q-12 -5 -45 -19t-76 -28.5t-90.5 -25.5t-89.5 -11q-53 0 -84 18t-46 47t-16.5 65 t4.5 71l131 694zM961 1313q0 21 9.5 41.5t25 36t36 25t41.5 9.5q23 0 43.5 -9t35.5 -24t23.5 -35.5t8.5 -43.5t-8.5 -44t-23.5 -37t-35.5 -25t-43.5 -9t-43.5 9t-35.5 25t-24 37t-9 44z" />
<glyph unicode="&#x4fa;" horiz-adv-x="1081" d="M-55 -342q0 33 17 54.5t38 35.5q25 16 56 25l160 -131q32 15 58.5 41t49 68.5t42.5 103.5t38 145h-455v88l139 8q22 2 35.5 16.5t15.5 26.5l105 529h-189l21 102h188l92 465q3 12 -5 26t-29 17l-119 8v88h997l-74 -377h-106l12 240q1 13 -12.5 23t-26.5 10h-424l-98 -500 h311l-20 -102h-311l-105 -529q-2 -12 5.5 -26.5t29.5 -16.5l111 -8v-88q-16 -91 -45 -175.5t-75.5 -150t-114 -104.5t-160.5 -39q-48 0 -77.5 9.5t-46 27t-22.5 40.5t-6 50z" />
<glyph unicode="&#x4fb;" horiz-adv-x="891" d="M25 227q0 37 17 73.5t47 71t70 66.5t86 59h-164v84h345q118 53 183 110.5t65 119.5q0 18 -5 36t-17.5 32.5t-34 23t-54.5 8.5q-29 0 -55 -6.5t-51 -20.5t-51.5 -36t-57.5 -53l-67 61q66 86 150 121t187 35q57 0 102.5 -17t77.5 -44.5t49 -64t17 -75.5q0 -71 -54.5 -125 t-154.5 -105h192v-84h-380q-10 -5 -19.5 -8.5t-19.5 -7.5q-44 -18 -82.5 -46.5t-67 -62.5t-45 -71.5t-16.5 -73.5q0 -26 9 -53t26 -49.5t41 -36.5t55 -14q82 0 152.5 41.5t148.5 126.5l96 -43q-34 -140 -76.5 -262t-98.5 -212t-128 -142t-165 -52q-48 0 -77.5 9.5t-46 27 t-22.5 40.5t-6 50q0 33 17 54.5t38 35.5q25 16 56 25l160 -131q31 14 65.5 56t67 102.5t61 135.5t47.5 156q-69 -56 -149 -86.5t-175 -30.5q-58 0 -110.5 15.5t-92 47t-62.5 78.5t-23 111z" />
<glyph unicode="&#x4fc;" horiz-adv-x="1296" d="M-90 0v86l98 8q17 2 30 12.5t19 18.5l510 571l-245 553q-8 19 -18 24t-21 7l-113 8v86h532v-86l-133 -8q-16 -1 -26.5 -13.5t-3.5 -27.5l168 -383l335 383q11 13 9.5 26t-27.5 15l-98 8v86h463v-86l-123 -8q-16 -1 -29.5 -12t-19.5 -19l-451 -512l261 -616 q8 -19 17.5 -44.5t17 -54t12.5 -58.5t5 -59q0 -82 -30 -151t-83.5 -119.5t-126 -79t-156.5 -28.5q-26 0 -53 8.5t-50 23.5t-37.5 36t-14.5 46q0 18 11.5 40.5t26 43t28.5 35.5t20 19l218 -94q47 32 62 72t15 86q0 63 -34 143l-242 579l-387 -430q-13 -12 -10.5 -25.5 t28.5 -15.5l123 -8v-86h-477z" />
<glyph unicode="&#x4fd;" horiz-adv-x="1081" d="M-37 88q0 50 32.5 80t94.5 41l86 -82q31 19 68.5 56.5t75.5 89.5t74.5 116.5t64.5 137.5q-28 49 -59 103.5t-59.5 102.5t-51.5 83t-34 44l-179 23v55q9 3 30 9.5t47 15t55 17t54.5 16t44.5 12t25 4.5q27 0 59.5 -31.5t67 -83.5t70.5 -119t71 -137q27 60 65.5 125 t86.5 120t105 90.5t122 35.5q56 0 90.5 -33.5t34.5 -87.5q0 -40 -26.5 -76.5t-86.5 -56.5l-90 80q-27 -11 -57.5 -34.5t-61.5 -62.5t-61 -94t-55 -128q30 -50 61.5 -109t61 -120t55 -121.5t44.5 -113t30 -94t11 -64.5q0 -36 -9.5 -71t-24 -66t-31 -56.5t-31.5 -43.5 q-17 -21 -41.5 -44.5t-53.5 -43t-62.5 -32.5t-69.5 -13q-33 0 -58.5 9t-43 24t-26.5 34t-9 39q0 17 6 38t18 41t30 38.5t42 30.5l141 -127q41 27 55.5 64t14.5 87q0 39 -20.5 102.5t-55 141.5t-79 166t-92.5 176q-16 -40 -40 -86t-55 -92t-68.5 -89t-79.5 -76t-87.5 -53 t-92.5 -20q-63 0 -103 29.5t-40 83.5z" />
<glyph unicode="&#x4fe;" horiz-adv-x="1296" d="M-90 0v86l98 8q17 2 30 12.5t19 18.5l484 542h-329v103h322l-212 479q-8 19 -18 24t-21 7l-113 8v86h532v-86l-133 -8q-17 -2 -27 -13.5t-3 -27.5l168 -383l335 383q11 12 9.5 25.5t-27.5 15.5l-98 8v86h463v-86l-123 -8q-16 -2 -29.5 -12.5t-19.5 -18.5l-422 -479h340 v-103h-339l238 -542q10 -19 20 -24t21 -7l111 -8v-86h-529v86l131 8q17 2 27 14t2 27l-184 430l-387 -430q-13 -12 -10.5 -25.5t28.5 -15.5l123 -8v-86h-477z" />
<glyph unicode="&#x4ff;" horiz-adv-x="1081" d="M-37 88q0 50 32.5 80t94.5 41l86 -82q28 18 60 47t64.5 70.5t64 94t59.5 116.5h-239v103h239q-9 28 -21.5 61t-26 66t-27.5 64.5t-26 55.5t-22 39t-16 16l-179 23v55q9 3 29 9.5t45.5 15t53 17t51.5 16t42 12t25 4.5q36 0 68 -26t60.5 -76t54 -122t49.5 -165 q30 58 71.5 126t91.5 126.5t108.5 97.5t123.5 39q56 0 90.5 -33.5t34.5 -87.5q0 -40 -26.5 -76.5t-86.5 -56.5l-90 80q-24 -10 -52.5 -33.5t-58.5 -59t-60.5 -83t-58.5 -104.5h222v-103h-241q14 -43 32 -100t41 -109q15 -33 31.5 -62t34.5 -51t36.5 -34.5t36.5 -12.5 q23 0 49.5 4.5t67.5 24.5v-74q-59 -31 -116.5 -48.5t-123.5 -17.5q-34 0 -63 18.5t-53.5 48.5t-45 69.5t-36.5 81.5t-28.5 84t-20.5 77q-29 -54 -66.5 -119.5t-85.5 -123.5t-106.5 -97t-129.5 -39q-63 0 -103 29.5t-40 83.5z" />
<glyph unicode="&#x2013;" horiz-adv-x="1024" d="M-35 430l25 125h1052l-22 -125h-1055z" />
<glyph unicode="&#x2014;" horiz-adv-x="2048" d="M-35 430l25 125h2074l-24 -125h-2075z" />
<glyph unicode="&#x2018;" horiz-adv-x="520" d="M184 1034q0 64 31 126.5t75.5 117.5t92 98.5t80.5 69.5h119q-35 -33 -75.5 -73t-75 -85.5t-58.5 -95t-25 -100.5h125q6 -8 13.5 -22t7.5 -42q0 -25 -11.5 -51t-32 -47.5t-48.5 -35t-62 -13.5t-62.5 9t-49.5 27.5t-32.5 47.5t-11.5 69z" />
<glyph unicode="&#x2019;" horiz-adv-x="520" d="M190 881q35 33 76 73t76 85.5t58.5 95.5t23.5 102h-127q-5 8 -11.5 22.5t-6.5 34.5q0 25 12 52t33 49.5t50 36.5t64 14q25 0 51.5 -6.5t48.5 -23.5t36 -46t14 -74q0 -65 -30.5 -128.5t-74 -119t-90.5 -99t-80 -68.5h-123z" />
<glyph unicode="&#x201a;" horiz-adv-x="520" d="M-57 -336q40 39 78 78t68.5 78t52.5 79.5t30 82.5q2 6 2 15v19h-123q-5 8 -11.5 22.5t-6.5 37.5q0 31 12 56.5t33.5 44.5t51 29.5t63.5 10.5q39 0 67 -12.5t45.5 -32t26 -43.5t8.5 -47q0 -45 -14 -88.5t-37.5 -84.5t-53 -78t-60.5 -68.5t-60 -56.5t-52 -42h-120z" />
<glyph unicode="&#x201c;" horiz-adv-x="936" d="M184 1034q0 64 31 126.5t75.5 117.5t92 98.5t80.5 69.5h119q-35 -33 -75.5 -73t-75 -85.5t-58.5 -95t-25 -100.5h125q6 -8 13.5 -22t7.5 -42q0 -25 -11.5 -51t-32 -47.5t-48.5 -35t-62 -13.5t-62.5 9t-49.5 27.5t-32.5 47.5t-11.5 69zM598 1030q0 65 30.5 128.5t73.5 119 t90 99t80 69.5h123q-34 -33 -74.5 -73t-76 -85.5t-59 -95t-23.5 -100.5h127q5 -10 11.5 -25t6.5 -35q0 -25 -12 -52t-33 -49t-50.5 -36t-63.5 -14q-25 0 -51.5 6.5t-48.5 23.5t-36 45.5t-14 73.5z" />
<glyph unicode="&#x201d;" horiz-adv-x="936" d="M190 881q35 33 76 73t76 85.5t58.5 95.5t23.5 102h-127q-5 8 -11.5 22.5t-6.5 34.5q0 25 12 52t33 49.5t50 36.5t64 14q25 0 51.5 -6.5t48.5 -23.5t36 -46t14 -74q0 -65 -30.5 -128.5t-74 -119t-90.5 -99t-80 -68.5h-123zM604 881q34 33 74.5 73t75.5 85.5t58.5 95.5 t25.5 102h-125q-6 6 -13.5 20t-7.5 41q0 25 11.5 51.5t32 48t49 35t63.5 13.5q66 0 109.5 -37t43.5 -117q0 -64 -31 -126.5t-75 -117.5t-91.5 -98.5t-80.5 -68.5h-119z" />
<glyph unicode="&#x201e;" horiz-adv-x="936" d="M-57 -338q40 39 78.5 78t69.5 79t53 80.5t30 82.5q2 6 2 15v19h-123q-6 7 -13 21.5t-7 42.5q0 27 12.5 52t34.5 43.5t52 30t65 11.5q45 0 73.5 -13t44 -33t21.5 -44.5t6 -48.5q0 -43 -14 -85.5t-37.5 -83t-53 -78t-60 -69.5t-60 -57.5t-51.5 -42.5h-123zM356 -338 q43 40 81.5 79t69 78.5t51.5 80t30 82.5q2 6 2 15v19h-127q-5 10 -11 24.5t-6 33.5q0 29 11 55t32 45.5t50.5 31t66.5 11.5q44 0 73 -12.5t46 -32.5t24 -45t7 -51q0 -44 -14.5 -86.5t-38.5 -83t-54 -77.5t-61 -68.5t-61 -56.5t-52 -42h-119z" />
<glyph unicode="&#x2026;" horiz-adv-x="2048" d="M125 113q0 28 10.5 53t29.5 43.5t43.5 29.5t53.5 11q28 0 53 -11t44 -29.5t29.5 -43.5t10.5 -53q0 -29 -10.5 -54t-29.5 -43.5t-44 -29.5t-53 -11q-29 0 -53.5 11t-43.5 29.5t-29.5 43.5t-10.5 54zM807 113q0 28 10.5 53t29.5 43.5t43.5 29.5t53.5 11q28 0 53 -11 t44 -29.5t29.5 -43.5t10.5 -53q0 -29 -10.5 -54.5t-29.5 -44t-44 -29t-53 -10.5q-29 0 -54 11t-43.5 29.5t-29 43.5t-10.5 54zM1489 113q0 28 10.5 53t28.5 43.5t42.5 29.5t53.5 11q28 0 53.5 -11t44.5 -30t30 -44t11 -52q0 -29 -10.5 -54t-29 -43.5t-43.5 -29.5t-54 -11 t-53.5 11t-43.5 29.5t-29.5 43.5t-10.5 54z" />
<glyph unicode="&#x2039;" horiz-adv-x="500" d="M25 412l28 159l426 297l-30 -161l-281 -213l194 -220l-28 -159z" />
<glyph unicode="&#x203a;" horiz-adv-x="500" d="M0 115l31 159l280 220l-196 213l30 161l314 -297l-33 -159z" />
<glyph unicode="&#x20ac;" d="M-40 552l21 100h163q3 29 8 57.5t12 57.5h-204l20 94h210q39 114 105.5 214t155 173.5t197 116t232.5 42.5q45 0 86 -5.5t83.5 -16t88.5 -26t99 -34.5l-49 -319h-109v190q0 16 -10.5 33t-23.5 22q-3 2 -15.5 10.5t-33 17.5t-47.5 16.5t-60 7.5q-78 0 -153 -30.5 t-140 -87.5t-117 -139t-86 -185h444l-20 -94h-449q-6 -28 -10.5 -56.5t-8.5 -58.5h452l-20 -100h-438v-28q0 -116 28.5 -201t78 -141t117 -83t144.5 -27q30 0 54 4.5t42 10.5t29 11.5t14 7.5q11 2 24 14.5t18 26.5l80 234h108l-49 -332q-11 -4 -46.5 -17t-87.5 -27.5 t-115.5 -26t-130.5 -11.5q-138 0 -235 49.5t-159 131t-90.5 186t-28.5 213.5v5h-178z" />
<glyph unicode="&#x2122;" horiz-adv-x="1364" d="M211 1212v144h471v-144h-57l-15 86q0 11 -8 11h-106v-437l28 -4q12 -2 25 -3.5t22 -2.5v-45h-252v45l22 2q14 2 26 4q14 2 30 4v437h-108q-8 0 -8 -11l-13 -86h-57zM739 817v45l64 10v424l-64 13v47h213v-27l135 -360l136 360v27h211v-47l-66 -13v-424l66 -10v-45h-224 v45l62 10v428l-185 -483h-49l-174 483v-428l62 -10v-45h-187z" />
<glyph unicode="&#xe000;" horiz-adv-x="1010" d="M0 0v1010h1010v-1010h-1010z" />
</font>
</defs>
</svg>
